G04 #@! TF.GenerationSoftware,KiCad,Pcbnew,8.0.6*
G04 #@! TF.CreationDate,2025-02-13T00:08:42+01:00*
G04 #@! TF.ProjectId,board_v1,626f6172-645f-4763-912e-6b696361645f,rev?*
G04 #@! TF.SameCoordinates,Original*
G04 #@! TF.FileFunction,Copper,L2,Bot*
G04 #@! TF.FilePolarity,Positive*
%FSLAX46Y46*%
G04 Gerber Fmt 4.6, Leading zero omitted, Abs format (unit mm)*
G04 Created by KiCad (PCBNEW 8.0.6) date 2025-02-13 00:08:42*
%MOMM*%
%LPD*%
G01*
G04 APERTURE LIST*
G04 Aperture macros list*
%AMFreePoly0*
4,1,19,0.550000,-0.750000,0.000000,-0.750000,0.000000,-0.744911,-0.071157,-0.744911,-0.207708,-0.704816,-0.327430,-0.627875,-0.420627,-0.520320,-0.479746,-0.390866,-0.500000,-0.250000,-0.500000,0.250000,-0.479746,0.390866,-0.420627,0.520320,-0.327430,0.627875,-0.207708,0.704816,-0.071157,0.744911,0.000000,0.744911,0.000000,0.750000,0.550000,0.750000,0.550000,-0.750000,0.550000,-0.750000,
$1*%
%AMFreePoly1*
4,1,19,0.000000,0.744911,0.071157,0.744911,0.207708,0.704816,0.327430,0.627875,0.420627,0.520320,0.479746,0.390866,0.500000,0.250000,0.500000,-0.250000,0.479746,-0.390866,0.420627,-0.520320,0.327430,-0.627875,0.207708,-0.704816,0.071157,-0.744911,0.000000,-0.744911,0.000000,-0.750000,-0.550000,-0.750000,-0.550000,0.750000,0.000000,0.750000,0.000000,0.744911,0.000000,0.744911,
$1*%
G04 Aperture macros list end*
G04 #@! TA.AperFunction,ComponentPad*
%ADD10R,1.600000X1.600000*%
G04 #@! TD*
G04 #@! TA.AperFunction,ComponentPad*
%ADD11O,1.600000X1.600000*%
G04 #@! TD*
G04 #@! TA.AperFunction,ComponentPad*
%ADD12R,1.700000X1.700000*%
G04 #@! TD*
G04 #@! TA.AperFunction,ComponentPad*
%ADD13O,1.700000X1.700000*%
G04 #@! TD*
G04 #@! TA.AperFunction,ComponentPad*
%ADD14C,1.600000*%
G04 #@! TD*
G04 #@! TA.AperFunction,ComponentPad*
%ADD15R,1.560000X1.560000*%
G04 #@! TD*
G04 #@! TA.AperFunction,ComponentPad*
%ADD16C,1.560000*%
G04 #@! TD*
G04 #@! TA.AperFunction,SMDPad,CuDef*
%ADD17FreePoly0,180.000000*%
G04 #@! TD*
G04 #@! TA.AperFunction,SMDPad,CuDef*
%ADD18R,1.000000X1.500000*%
G04 #@! TD*
G04 #@! TA.AperFunction,SMDPad,CuDef*
%ADD19FreePoly1,180.000000*%
G04 #@! TD*
G04 #@! TA.AperFunction,ViaPad*
%ADD20C,0.600000*%
G04 #@! TD*
G04 #@! TA.AperFunction,Conductor*
%ADD21C,0.200000*%
G04 #@! TD*
G04 #@! TA.AperFunction,Conductor*
%ADD22C,0.500000*%
G04 #@! TD*
G04 #@! TA.AperFunction,Conductor*
%ADD23C,0.150000*%
G04 #@! TD*
G04 #@! TA.AperFunction,Conductor*
%ADD24C,0.300000*%
G04 #@! TD*
G04 APERTURE END LIST*
D10*
X106680000Y-76200000D03*
D11*
X106680000Y-78740000D03*
X106680000Y-81280000D03*
X106680000Y-83820000D03*
X106680000Y-86360000D03*
X106680000Y-88900000D03*
X106680000Y-91440000D03*
X106680000Y-93980000D03*
X106680000Y-96520000D03*
X106680000Y-99060000D03*
X114300000Y-99060000D03*
X114300000Y-96520000D03*
X114300000Y-93980000D03*
X114300000Y-91440000D03*
X114300000Y-88900000D03*
X114300000Y-86360000D03*
X114300000Y-83820000D03*
X114300000Y-81280000D03*
X114300000Y-78740000D03*
X114300000Y-76200000D03*
D12*
X68580000Y-76200000D03*
D13*
X71120000Y-76200000D03*
X68580000Y-78740000D03*
X71120000Y-78740000D03*
X68580000Y-81280000D03*
X71120000Y-81280000D03*
X68580000Y-83820000D03*
X71120000Y-83820000D03*
X68580000Y-86360000D03*
X71120000Y-86360000D03*
X68580000Y-88900000D03*
X71120000Y-88900000D03*
X68580000Y-91440000D03*
X71120000Y-91440000D03*
X68580000Y-93980000D03*
X71120000Y-93980000D03*
X68580000Y-96520000D03*
X71120000Y-96520000D03*
X68580000Y-99060000D03*
X71120000Y-99060000D03*
D10*
X99060000Y-104140000D03*
D11*
X99060000Y-106680000D03*
X99060000Y-109220000D03*
X99060000Y-111760000D03*
X99060000Y-114300000D03*
X99060000Y-116840000D03*
X99060000Y-119380000D03*
X99060000Y-121920000D03*
X99060000Y-124460000D03*
X99060000Y-127000000D03*
X99060000Y-129540000D03*
X99060000Y-132080000D03*
X99060000Y-134620000D03*
X99060000Y-137160000D03*
X114300000Y-137160000D03*
X114300000Y-134620000D03*
X114300000Y-132080000D03*
X114300000Y-129540000D03*
X114300000Y-127000000D03*
X114300000Y-124460000D03*
X114300000Y-121920000D03*
X114300000Y-119380000D03*
X114300000Y-116840000D03*
X114300000Y-114300000D03*
X114300000Y-111760000D03*
X114300000Y-109220000D03*
X114300000Y-106680000D03*
X114300000Y-104140000D03*
D10*
X76200000Y-76200000D03*
D11*
X76200000Y-78740000D03*
X76200000Y-81280000D03*
X76200000Y-83820000D03*
X76200000Y-86360000D03*
X76200000Y-88900000D03*
X76200000Y-91440000D03*
X76200000Y-93980000D03*
X76200000Y-96520000D03*
X76200000Y-99060000D03*
X76200000Y-101600000D03*
X76200000Y-104140000D03*
X76200000Y-106680000D03*
X76200000Y-109220000D03*
X76200000Y-111760000D03*
X76200000Y-114300000D03*
X76200000Y-116840000D03*
X76200000Y-119380000D03*
X76200000Y-121920000D03*
X76200000Y-124460000D03*
X91440000Y-124460000D03*
X91440000Y-121920000D03*
X91440000Y-119380000D03*
X91440000Y-116840000D03*
X91440000Y-114300000D03*
X91440000Y-111760000D03*
X91440000Y-109220000D03*
X91440000Y-106680000D03*
X91440000Y-104140000D03*
X91440000Y-101600000D03*
X91440000Y-99060000D03*
X91440000Y-96520000D03*
X91440000Y-93980000D03*
X91440000Y-91440000D03*
X91440000Y-88900000D03*
X91440000Y-86360000D03*
X91440000Y-83820000D03*
X91440000Y-81280000D03*
X91440000Y-78740000D03*
X91440000Y-76200000D03*
D12*
X96520000Y-76200000D03*
D13*
X99060000Y-76200000D03*
X96520000Y-78740000D03*
X99060000Y-78740000D03*
X96520000Y-81280000D03*
X99060000Y-81280000D03*
X96520000Y-83820000D03*
X99060000Y-83820000D03*
X96520000Y-86360000D03*
X99060000Y-86360000D03*
X96520000Y-88900000D03*
X99060000Y-88900000D03*
X96520000Y-91440000D03*
X99060000Y-91440000D03*
X96520000Y-93980000D03*
X99060000Y-93980000D03*
X96520000Y-96520000D03*
X99060000Y-96520000D03*
X96520000Y-99060000D03*
X99060000Y-99060000D03*
D12*
X86360000Y-134620000D03*
D13*
X88900000Y-134620000D03*
X91440000Y-134620000D03*
D10*
X70612000Y-123190000D03*
D14*
X70612000Y-125690000D03*
D12*
X86360000Y-132080000D03*
D13*
X88900000Y-132080000D03*
X91440000Y-132080000D03*
D10*
X70612000Y-117348000D03*
D14*
X70612000Y-119848000D03*
D10*
X68580000Y-129540000D03*
D11*
X68580000Y-132080000D03*
X68580000Y-134620000D03*
X68580000Y-137160000D03*
X76200000Y-137160000D03*
X76200000Y-134620000D03*
X76200000Y-132080000D03*
X76200000Y-129540000D03*
D12*
X86360000Y-129540000D03*
D13*
X88900000Y-129540000D03*
X91440000Y-129540000D03*
D12*
X86360000Y-137160000D03*
D13*
X88900000Y-137160000D03*
X91440000Y-137160000D03*
D14*
X95250000Y-104140000D03*
D11*
X95250000Y-116840000D03*
D14*
X102870000Y-86360000D03*
D11*
X102870000Y-99060000D03*
D15*
X68580000Y-107950000D03*
D16*
X71080000Y-112950000D03*
X73580000Y-107950000D03*
D12*
X102870000Y-76200000D03*
D13*
X102870000Y-78740000D03*
D17*
X83423000Y-95444525D03*
D18*
X82123000Y-95444525D03*
D19*
X80823000Y-95444525D03*
D17*
X83423000Y-85315610D03*
D18*
X82123000Y-85315610D03*
D19*
X80823000Y-85315610D03*
D17*
X83423000Y-102197135D03*
D18*
X82123000Y-102197135D03*
D19*
X80823000Y-102197135D03*
D17*
X83423000Y-81939305D03*
D18*
X82123000Y-81939305D03*
D19*
X80823000Y-81939305D03*
D17*
X83423000Y-98820830D03*
D18*
X82123000Y-98820830D03*
D19*
X80823000Y-98820830D03*
D17*
X83423000Y-92068220D03*
D18*
X82123000Y-92068220D03*
D19*
X80823000Y-92068220D03*
D17*
X83423000Y-105573440D03*
D18*
X82123000Y-105573440D03*
D19*
X80823000Y-105573440D03*
D17*
X83423000Y-88691915D03*
D18*
X82123000Y-88691915D03*
D19*
X80823000Y-88691915D03*
D17*
X83423000Y-78563000D03*
D18*
X82123000Y-78563000D03*
D19*
X80823000Y-78563000D03*
D20*
X93726000Y-90170000D03*
X85436000Y-87376000D03*
X96266000Y-101854000D03*
X94402200Y-101269800D03*
X85436000Y-89662000D03*
X93218000Y-92710000D03*
X85252000Y-102997000D03*
X77114400Y-102852135D03*
X78486000Y-97866200D03*
X80060800Y-97586800D03*
X72034400Y-74371200D03*
X80264000Y-74234600D03*
X103124000Y-96520000D03*
X113512600Y-101066600D03*
X84810600Y-94335600D03*
X104477735Y-80002465D03*
X79460800Y-125476000D03*
X79400400Y-98806000D03*
X73152000Y-91948000D03*
X102642233Y-100600000D03*
X69088000Y-110236000D03*
X79387700Y-89293700D03*
X79959200Y-103200200D03*
X79885735Y-126275735D03*
X92872000Y-127635000D03*
X84493100Y-100977700D03*
X108600000Y-129540000D03*
X105400000Y-129540000D03*
X94234000Y-86360000D03*
X111000000Y-132080000D03*
X102200000Y-137160000D03*
X101400000Y-134620000D03*
X104600000Y-132080000D03*
X107800000Y-127000000D03*
X111800000Y-134620000D03*
X85699600Y-104724200D03*
X80660800Y-100752200D03*
X84442300Y-93332300D03*
X84582000Y-107950000D03*
X85852000Y-107950000D03*
X72199500Y-109283500D03*
X85852000Y-122936000D03*
X69697600Y-103733600D03*
X84963000Y-122047000D03*
X71247000Y-109347000D03*
X86868000Y-123952000D03*
X112600000Y-116840000D03*
X103000000Y-119380000D03*
X110200000Y-114300000D03*
X109400000Y-111760000D03*
X107000000Y-109220000D03*
X106200000Y-127000000D03*
X100600000Y-121920000D03*
X103800000Y-124460000D03*
D21*
X92964000Y-129448000D02*
X92872000Y-129356000D01*
X92872000Y-133188000D02*
X91440000Y-134620000D01*
X92872000Y-127635000D02*
X92872000Y-133188000D01*
X91440000Y-129540000D02*
X91440000Y-127254000D01*
X91440000Y-127254000D02*
X93218000Y-125476000D01*
X93218000Y-125476000D02*
X93218000Y-105918000D01*
X93218000Y-105918000D02*
X91440000Y-104140000D01*
D22*
X71729600Y-74676000D02*
X67741800Y-74676000D01*
X72034400Y-74371200D02*
X71729600Y-74676000D01*
X67741800Y-74676000D02*
X67208400Y-75209400D01*
X67208400Y-75209400D02*
X67208400Y-86360000D01*
X71120000Y-81280000D02*
X71120000Y-78740000D01*
X67208400Y-88900000D02*
X67208400Y-86360000D01*
X68580000Y-86360000D02*
X67208400Y-86360000D01*
X67208400Y-97688400D02*
X67208400Y-88900000D01*
X68580000Y-88900000D02*
X67208400Y-88900000D01*
D21*
X82923000Y-80889305D02*
X83423000Y-81389305D01*
X83423000Y-81389305D02*
X83423000Y-81939305D01*
X80823000Y-79318000D02*
X82394305Y-80889305D01*
X80823000Y-78563000D02*
X80823000Y-79318000D01*
D22*
X80823000Y-78563000D02*
X76377000Y-78563000D01*
X76377000Y-78563000D02*
X76200000Y-78740000D01*
D23*
X83423000Y-81594200D02*
X83423000Y-81939305D01*
D21*
X82394305Y-80889305D02*
X82923000Y-80889305D01*
X85436000Y-85934733D02*
X85436000Y-87376000D01*
X82123000Y-81939305D02*
X82123000Y-83139000D01*
X82550000Y-83566000D02*
X83067267Y-83566000D01*
X96266000Y-101854000D02*
X94742000Y-100330000D01*
X83067267Y-83566000D02*
X85436000Y-85934733D01*
X94742000Y-100330000D02*
X94742000Y-91186000D01*
X82123000Y-83139000D02*
X82550000Y-83566000D01*
X94742000Y-91186000D02*
X93726000Y-90170000D01*
X82394305Y-84265610D02*
X82843210Y-84265610D01*
X80823000Y-81939305D02*
X80823000Y-82694305D01*
X80823000Y-81939305D02*
X80163695Y-81280000D01*
X83423000Y-84845400D02*
X83423000Y-85315610D01*
X80823000Y-82694305D02*
X82394305Y-84265610D01*
X80163695Y-81280000D02*
X76200000Y-81280000D01*
X82843210Y-84265610D02*
X83423000Y-84845400D01*
X85344000Y-88646000D02*
X85344000Y-89570000D01*
X94402200Y-101269800D02*
X94234000Y-101101600D01*
X94234000Y-93726000D02*
X93218000Y-92710000D01*
X82123000Y-86441000D02*
X82804000Y-87122000D01*
X83820000Y-87122000D02*
X85344000Y-88646000D01*
X85344000Y-89570000D02*
X85436000Y-89662000D01*
X94234000Y-101101600D02*
X94234000Y-93726000D01*
X82804000Y-87122000D02*
X83820000Y-87122000D01*
X82123000Y-85315610D02*
X82123000Y-86441000D01*
X80823000Y-85315610D02*
X79327390Y-83820000D01*
X79327390Y-83820000D02*
X76200000Y-83820000D01*
X80823000Y-85315610D02*
X80823000Y-86157000D01*
X83423000Y-88260915D02*
X83423000Y-88691915D01*
X82307915Y-87641915D02*
X82804000Y-87641915D01*
X82804000Y-87641915D02*
X83423000Y-88260915D01*
X80823000Y-86157000D02*
X82307915Y-87641915D01*
X74930000Y-74930000D02*
X76225400Y-73634600D01*
X115570000Y-74930000D02*
X115570000Y-97790000D01*
X115570000Y-97790000D02*
X114300000Y-99060000D01*
X76225400Y-73634600D02*
X114274600Y-73634600D01*
X82123000Y-88691915D02*
X82123000Y-88260579D01*
X75692000Y-85090000D02*
X74930000Y-84328000D01*
X82123000Y-88260579D02*
X78952421Y-85090000D01*
X114274600Y-73634600D02*
X115570000Y-74930000D01*
X78952421Y-85090000D02*
X75692000Y-85090000D01*
X74930000Y-84328000D02*
X74930000Y-74930000D01*
X80823000Y-89241915D02*
X80823000Y-88691915D01*
X81328000Y-89746915D02*
X80823000Y-89241915D01*
X85852000Y-103530400D02*
X85852000Y-92684600D01*
X80823000Y-88691915D02*
X78491085Y-86360000D01*
X78491085Y-86360000D02*
X76200000Y-86360000D01*
X85852000Y-92684600D02*
X82914315Y-89746915D01*
X82914315Y-89746915D02*
X81328000Y-89746915D01*
X83423000Y-105573440D02*
X83808960Y-105573440D01*
X83808960Y-105573440D02*
X85852000Y-103530400D01*
X82123000Y-105142104D02*
X82123000Y-105573440D01*
X85252000Y-102997000D02*
X84013800Y-104235200D01*
X84013800Y-104235200D02*
X83029904Y-104235200D01*
X83029904Y-104235200D02*
X82123000Y-105142104D01*
D22*
X80823000Y-92068220D02*
X77654780Y-88900000D01*
X77654780Y-88900000D02*
X76200000Y-88900000D01*
D21*
X83032600Y-103835200D02*
X83423000Y-103444800D01*
X77114400Y-102852135D02*
X77114400Y-102870000D01*
X78079600Y-103835200D02*
X83032600Y-103835200D01*
X77114400Y-102870000D02*
X78079600Y-103835200D01*
X83423000Y-103444800D02*
X83423000Y-102197135D01*
X81028065Y-100152200D02*
X82123000Y-101247135D01*
X79451200Y-100152200D02*
X81028065Y-100152200D01*
X82123000Y-101247135D02*
X82123000Y-102197135D01*
X77495400Y-92735400D02*
X77495400Y-98196400D01*
X77495400Y-98196400D02*
X79451200Y-100152200D01*
X76200000Y-91440000D02*
X77495400Y-92735400D01*
D22*
X78486000Y-97781525D02*
X80823000Y-95444525D01*
X80823000Y-95444525D02*
X80823000Y-94767200D01*
X78486000Y-97866200D02*
X78486000Y-97781525D01*
X82321400Y-93776800D02*
X83423000Y-92675200D01*
X80823000Y-94767200D02*
X81813400Y-93776800D01*
X81813400Y-93776800D02*
X82321400Y-93776800D01*
X83423000Y-92675200D02*
X83423000Y-92068220D01*
D21*
X83423000Y-95444525D02*
X83836725Y-95444525D01*
X80060800Y-97586800D02*
X80543400Y-97104200D01*
X80543400Y-97104200D02*
X82518325Y-97104200D01*
X82518325Y-97104200D02*
X83423000Y-96199525D01*
X83820000Y-121920000D02*
X90170000Y-128270000D01*
X90678000Y-111760000D02*
X83820000Y-118618000D01*
X90170000Y-128270000D02*
X90170000Y-135890000D01*
X91440000Y-111760000D02*
X90678000Y-111760000D01*
X83423000Y-96199525D02*
X83423000Y-95444525D01*
X90170000Y-135890000D02*
X91440000Y-137160000D01*
X83820000Y-118618000D02*
X83820000Y-121920000D01*
D22*
X114300000Y-124460000D02*
X115646200Y-123113800D01*
X70064000Y-125690000D02*
X70612000Y-125690000D01*
X86360000Y-137160000D02*
X86360000Y-129540000D01*
X87884000Y-138684000D02*
X97536000Y-138684000D01*
X68580000Y-137160000D02*
X86360000Y-137160000D01*
X68580000Y-99060000D02*
X67208400Y-97688400D01*
X82123000Y-76093600D02*
X82123000Y-78563000D01*
X70612000Y-119848000D02*
X69088000Y-121372000D01*
X76200000Y-76200000D02*
X81788000Y-76200000D01*
X69088000Y-124714000D02*
X70064000Y-125690000D01*
X97536000Y-138684000D02*
X99060000Y-137160000D01*
X80264000Y-74234600D02*
X82123000Y-76093600D01*
X115646200Y-103200200D02*
X113512600Y-101066600D01*
X104477735Y-80002465D02*
X104444800Y-80035400D01*
X104444800Y-80035400D02*
X104444800Y-87299800D01*
X86360000Y-137160000D02*
X87884000Y-138684000D01*
X69088000Y-121372000D02*
X69088000Y-124714000D01*
X115646200Y-123113800D02*
X115646200Y-103200200D01*
X68580000Y-99060000D02*
X68580000Y-107950000D01*
X76200000Y-134620000D02*
X76200000Y-137160000D01*
D21*
X68580000Y-107188000D02*
X68580000Y-107950000D01*
D22*
X104444800Y-87299800D02*
X103124000Y-88620600D01*
X103124000Y-88620600D02*
X103124000Y-96520000D01*
X106680000Y-76200000D02*
X102870000Y-76200000D01*
D21*
X80823000Y-98820830D02*
X79415230Y-98820830D01*
X87630000Y-128510000D02*
X87630000Y-135890000D01*
X79415230Y-98820830D02*
X79400400Y-98806000D01*
X87630000Y-135890000D02*
X88900000Y-137160000D01*
X79460800Y-125476000D02*
X84596000Y-125476000D01*
X84596000Y-125476000D02*
X87630000Y-128510000D01*
D22*
X73152000Y-99568000D02*
X70485000Y-102235000D01*
X70485000Y-102235000D02*
X70485000Y-108839000D01*
X100626233Y-102616000D02*
X96012000Y-102616000D01*
X72136000Y-126492000D02*
X72136000Y-118872000D01*
X72136000Y-118872000D02*
X70612000Y-117348000D01*
X102642233Y-100600000D02*
X100626233Y-102616000D01*
X82123000Y-91424752D02*
X82123000Y-92068220D01*
X101200000Y-88030000D02*
X102870000Y-86360000D01*
X96012000Y-102616000D02*
X95250000Y-103378000D01*
X95250000Y-103378000D02*
X95250000Y-104140000D01*
X70485000Y-108839000D02*
X69088000Y-110236000D01*
X80492600Y-90398600D02*
X81096848Y-90398600D01*
X102642233Y-100600000D02*
X101200000Y-99157767D01*
X101200000Y-99157767D02*
X101200000Y-88030000D01*
X79387700Y-89293700D02*
X80492600Y-90398600D01*
X102870000Y-78740000D02*
X102870000Y-86360000D01*
X73152000Y-91948000D02*
X73152000Y-99568000D01*
X76200000Y-129540000D02*
X75184000Y-129540000D01*
X75184000Y-129540000D02*
X72136000Y-126492000D01*
X81096848Y-90398600D02*
X82123000Y-91424752D01*
D21*
X80010000Y-126400000D02*
X80010000Y-130556000D01*
X80823000Y-102197135D02*
X80823000Y-102336400D01*
X80010000Y-130556000D02*
X77216000Y-133350000D01*
X79885735Y-126275735D02*
X80010000Y-126400000D01*
X69850000Y-133350000D02*
X68580000Y-134620000D01*
X80823000Y-102336400D02*
X79959200Y-103200200D01*
X77216000Y-133350000D02*
X69850000Y-133350000D01*
X99060000Y-93980000D02*
X99060000Y-96520000D01*
X84493100Y-100977700D02*
X84048600Y-100533200D01*
X82123000Y-99252166D02*
X82123000Y-98820830D01*
X82854800Y-100533200D02*
X82245200Y-99923600D01*
X84048600Y-100533200D02*
X82854800Y-100533200D01*
X82245200Y-99923600D02*
X82245200Y-99374366D01*
X82245200Y-99374366D02*
X82123000Y-99252166D01*
X108600000Y-106600000D02*
X108600000Y-129270000D01*
X114300000Y-83820000D02*
X110180000Y-87940000D01*
X110180000Y-105020000D02*
X108600000Y-106600000D01*
X108600000Y-129270000D02*
X108600000Y-129200000D01*
X110180000Y-87940000D02*
X110180000Y-105020000D01*
X106680000Y-81280000D02*
X107280000Y-81280000D01*
X106680000Y-81280000D02*
X108580000Y-83180000D01*
X108580000Y-83180000D02*
X108580000Y-102220000D01*
X108580000Y-102220000D02*
X105400000Y-105400000D01*
X105400000Y-105400000D02*
X105400000Y-129200000D01*
X111000000Y-107600000D02*
X111000000Y-132080000D01*
X91440000Y-86360000D02*
X94234000Y-86360000D01*
X114300000Y-91440000D02*
X111380000Y-94360000D01*
X111380000Y-94360000D02*
X111380000Y-107220000D01*
X111380000Y-107220000D02*
X111000000Y-107600000D01*
X102200000Y-104400000D02*
X102200000Y-137000000D01*
X105000000Y-95660000D02*
X105000000Y-101600000D01*
X105000000Y-101600000D02*
X102200000Y-104400000D01*
X106680000Y-93980000D02*
X105000000Y-95660000D01*
X101400000Y-104300000D02*
X101400000Y-134600000D01*
X104600000Y-93520000D02*
X104600000Y-101100000D01*
X104600000Y-101100000D02*
X101400000Y-104300000D01*
X106680000Y-91440000D02*
X104600000Y-93520000D01*
X91440000Y-99060000D02*
X93218000Y-100838000D01*
X93218000Y-100838000D02*
X93218000Y-105029000D01*
X93218000Y-105029000D02*
X94869000Y-106680000D01*
X94869000Y-106680000D02*
X99060000Y-106680000D01*
X96520000Y-105410000D02*
X97790000Y-104140000D01*
X91440000Y-96520000D02*
X93726000Y-98806000D01*
X93726000Y-98806000D02*
X93726000Y-104648000D01*
X94488000Y-105410000D02*
X96520000Y-105410000D01*
X93726000Y-104648000D02*
X94488000Y-105410000D01*
X97790000Y-104140000D02*
X99060000Y-104140000D01*
X100838000Y-78486000D02*
X101854000Y-77470000D01*
X101854000Y-77470000D02*
X103886000Y-77470000D01*
X103886000Y-77470000D02*
X105257600Y-78841600D01*
X105257600Y-82905600D02*
X106172000Y-83820000D01*
X104600000Y-131800000D02*
X104600000Y-105200000D01*
X98298000Y-80010000D02*
X100076000Y-80010000D01*
X95504000Y-82550000D02*
X97282000Y-82550000D01*
X108180000Y-85320000D02*
X106680000Y-83820000D01*
X100076000Y-80010000D02*
X100838000Y-79248000D01*
X97790000Y-80518000D02*
X98298000Y-80010000D01*
X91440000Y-83820000D02*
X94234000Y-83820000D01*
X104600000Y-105200000D02*
X108180000Y-101620000D01*
X97790000Y-82042000D02*
X97790000Y-80518000D01*
X106172000Y-83820000D02*
X106680000Y-83820000D01*
X105257600Y-78841600D02*
X105257600Y-82905600D01*
X94234000Y-83820000D02*
X95504000Y-82550000D01*
X108180000Y-101620000D02*
X108180000Y-85320000D01*
X100838000Y-79248000D02*
X100838000Y-78486000D01*
X97282000Y-82550000D02*
X97790000Y-82042000D01*
X109780000Y-104220000D02*
X107800000Y-106200000D01*
X114300000Y-81280000D02*
X109780000Y-85800000D01*
X107800000Y-106200000D02*
X107800000Y-126800000D01*
X109780000Y-85800000D02*
X109780000Y-104220000D01*
X107800000Y-126800000D02*
X107800000Y-127000000D01*
X111800000Y-134420000D02*
X111800000Y-134400000D01*
X114300000Y-93980000D02*
X111800000Y-96480000D01*
X111800000Y-96480000D02*
X111800000Y-134420000D01*
D24*
X78446440Y-107950000D02*
X75438000Y-107950000D01*
X82042000Y-107315000D02*
X82067400Y-107289600D01*
X83337400Y-107289600D02*
X82092800Y-107289600D01*
X68072000Y-113792000D02*
X68072000Y-129032000D01*
X82092800Y-107289600D02*
X82042000Y-107340400D01*
X82067400Y-107289600D02*
X80823000Y-106045200D01*
X75438000Y-107950000D02*
X73152000Y-110236000D01*
X80823000Y-106045200D02*
X80823000Y-105573440D01*
X80823000Y-105573440D02*
X78446440Y-107950000D01*
X82042000Y-107340400D02*
X82042000Y-107315000D01*
X71628000Y-110236000D02*
X68072000Y-113792000D01*
X68072000Y-129032000D02*
X68580000Y-129540000D01*
X85699600Y-104927400D02*
X83337400Y-107289600D01*
X85699600Y-104724200D02*
X85699600Y-104927400D01*
X73152000Y-110236000D02*
X71628000Y-110236000D01*
X77384200Y-100752200D02*
X76962000Y-100330000D01*
X80660800Y-100752200D02*
X77384200Y-100752200D01*
X74676000Y-101092000D02*
X74676000Y-106854000D01*
X74676000Y-106854000D02*
X73580000Y-107950000D01*
X75438000Y-100330000D02*
X74676000Y-101092000D01*
X76962000Y-100330000D02*
X75438000Y-100330000D01*
D21*
X84442300Y-93332300D02*
X84048600Y-93726000D01*
X83261200Y-93726000D02*
X82123000Y-94864200D01*
X82123000Y-94864200D02*
X82123000Y-95444525D01*
X84048600Y-93726000D02*
X83261200Y-93726000D01*
X88392000Y-85090000D02*
X90932000Y-82550000D01*
X74676000Y-122682000D02*
X75184000Y-123190000D01*
X76962000Y-123190000D02*
X78232000Y-121920000D01*
X75184000Y-123190000D02*
X76962000Y-123190000D01*
X74676000Y-118364000D02*
X74676000Y-122682000D01*
X76200000Y-116840000D02*
X74676000Y-118364000D01*
X78232000Y-121920000D02*
X78232000Y-119380000D01*
X90932000Y-82550000D02*
X93218000Y-82550000D01*
X93218000Y-82550000D02*
X94488000Y-81280000D01*
X88392000Y-109220000D02*
X88392000Y-85090000D01*
X78232000Y-119380000D02*
X88392000Y-109220000D01*
X94488000Y-81280000D02*
X96520000Y-81280000D01*
X82804000Y-121158000D02*
X82804000Y-117856000D01*
X76962000Y-127000000D02*
X82804000Y-121158000D01*
X73152000Y-125476000D02*
X74676000Y-127000000D01*
X90678000Y-90170000D02*
X92456000Y-90170000D01*
X97790000Y-87630000D02*
X99060000Y-86360000D01*
X74676000Y-127000000D02*
X76962000Y-127000000D01*
X89916000Y-90932000D02*
X90678000Y-90170000D01*
X82804000Y-117856000D02*
X89916000Y-110744000D01*
X92456000Y-90170000D02*
X94996000Y-87630000D01*
X94996000Y-87630000D02*
X97790000Y-87630000D01*
X89916000Y-110744000D02*
X89916000Y-90932000D01*
X76200000Y-109220000D02*
X73152000Y-112268000D01*
X73152000Y-112268000D02*
X73152000Y-125476000D01*
X90678000Y-77470000D02*
X97790000Y-77470000D01*
X76200000Y-119380000D02*
X87376000Y-108204000D01*
X97790000Y-77470000D02*
X99060000Y-78740000D01*
X87376000Y-108204000D02*
X87376000Y-80772000D01*
X87376000Y-80772000D02*
X90678000Y-77470000D01*
X76708000Y-126492000D02*
X75184000Y-126492000D01*
X89408000Y-110236000D02*
X81788000Y-117856000D01*
X90678000Y-87630000D02*
X89408000Y-88900000D01*
X96520000Y-86360000D02*
X95504000Y-86360000D01*
X81788000Y-117856000D02*
X81788000Y-121412000D01*
X95504000Y-86360000D02*
X94234000Y-87630000D01*
X73660000Y-124968000D02*
X73660000Y-114300000D01*
X89408000Y-88900000D02*
X89408000Y-110236000D01*
X75184000Y-126492000D02*
X73660000Y-124968000D01*
X94234000Y-87630000D02*
X90678000Y-87630000D01*
X73660000Y-114300000D02*
X76200000Y-111760000D01*
X81788000Y-121412000D02*
X76708000Y-126492000D01*
X97282000Y-74422000D02*
X99060000Y-76200000D01*
X84582000Y-107950000D02*
X86360000Y-106172000D01*
X86360000Y-106172000D02*
X86360000Y-78936314D01*
X86360000Y-78936314D02*
X90874314Y-74422000D01*
X90874314Y-74422000D02*
X97282000Y-74422000D01*
X86868000Y-81280000D02*
X86868000Y-106934000D01*
X90932000Y-74930000D02*
X86868000Y-78994000D01*
X93472000Y-76200000D02*
X92202000Y-74930000D01*
X96520000Y-76200000D02*
X93472000Y-76200000D01*
X92202000Y-74930000D02*
X91186000Y-74930000D01*
X86868000Y-106934000D02*
X85852000Y-107950000D01*
X86868000Y-78994000D02*
X86868000Y-81280000D01*
X91186000Y-74930000D02*
X90932000Y-74930000D01*
X72199500Y-109283500D02*
X71628000Y-108712000D01*
X71628000Y-102870000D02*
X74295000Y-100203000D01*
X74295000Y-78867000D02*
X71628000Y-76200000D01*
X71628000Y-108712000D02*
X71628000Y-102870000D01*
X74295000Y-100203000D02*
X74295000Y-78867000D01*
X71628000Y-76200000D02*
X71120000Y-76200000D01*
X85852000Y-122936000D02*
X91440000Y-117348000D01*
X91440000Y-117348000D02*
X91440000Y-116840000D01*
X69697600Y-103733600D02*
X69850000Y-103581200D01*
X69850000Y-103581200D02*
X69850000Y-80010000D01*
X84963000Y-122047000D02*
X84963000Y-121285000D01*
X69850000Y-80010000D02*
X68580000Y-78740000D01*
X91440000Y-114808000D02*
X91440000Y-114300000D01*
X84963000Y-121285000D02*
X91440000Y-114808000D01*
X71120000Y-109220000D02*
X71120000Y-102616000D01*
X69850000Y-77470000D02*
X68580000Y-76200000D01*
X73787000Y-79432686D02*
X71824314Y-77470000D01*
X71120000Y-102616000D02*
X73787000Y-99949000D01*
X71824314Y-77470000D02*
X69850000Y-77470000D01*
X73787000Y-99949000D02*
X73787000Y-79432686D01*
X71247000Y-109347000D02*
X71120000Y-109220000D01*
X86868000Y-123952000D02*
X91440000Y-119380000D01*
X76200000Y-121920000D02*
X77724000Y-120396000D01*
X87884000Y-108712000D02*
X77724000Y-118872000D01*
X95250000Y-80010000D02*
X90932000Y-80010000D01*
X96520000Y-78740000D02*
X95250000Y-80010000D01*
X77724000Y-120396000D02*
X77724000Y-118872000D01*
X87884000Y-83058000D02*
X87884000Y-108712000D01*
X90932000Y-80010000D02*
X87884000Y-83058000D01*
X80772000Y-121666000D02*
X80772000Y-117856000D01*
X80772000Y-117856000D02*
X88900000Y-109728000D01*
X74168000Y-116332000D02*
X74168000Y-124475818D01*
X90932000Y-85090000D02*
X97790000Y-85090000D01*
X76200000Y-114300000D02*
X74168000Y-116332000D01*
X88900000Y-87122000D02*
X90932000Y-85090000D01*
X88900000Y-109728000D02*
X88900000Y-87122000D01*
X97790000Y-85090000D02*
X99060000Y-83820000D01*
X76454000Y-125984000D02*
X80772000Y-121666000D01*
X74168000Y-124475818D02*
X75676182Y-125984000D01*
X75676182Y-125984000D02*
X76454000Y-125984000D01*
X112600000Y-98220000D02*
X112600000Y-116640000D01*
X112600000Y-116640000D02*
X112600000Y-116800000D01*
X114300000Y-96520000D02*
X112600000Y-98220000D01*
X105400000Y-97800000D02*
X105400000Y-102200000D01*
X103000000Y-119180000D02*
X103000000Y-119200000D01*
X103000000Y-104600000D02*
X103000000Y-119180000D01*
X106680000Y-96520000D02*
X105400000Y-97800000D01*
X105400000Y-102200000D02*
X103000000Y-104600000D01*
X110200000Y-114100000D02*
X110200000Y-114200000D01*
X110200000Y-107200000D02*
X110200000Y-114100000D01*
X110980000Y-106420000D02*
X110200000Y-107200000D01*
X110980000Y-92220000D02*
X110980000Y-106420000D01*
X114300000Y-88900000D02*
X110980000Y-92220000D01*
X110580000Y-105620000D02*
X109400000Y-106800000D01*
X110580000Y-90080000D02*
X110580000Y-105620000D01*
X114300000Y-86360000D02*
X110580000Y-90080000D01*
X109400000Y-106800000D02*
X109400000Y-111400000D01*
X109380000Y-103420000D02*
X107000000Y-105800000D01*
X107000000Y-109020000D02*
X107000000Y-109000000D01*
X114300000Y-78740000D02*
X109380000Y-83660000D01*
X109380000Y-83660000D02*
X109380000Y-103420000D01*
X107000000Y-105800000D02*
X107000000Y-109020000D01*
X108980000Y-102820000D02*
X106200000Y-105600000D01*
X106680000Y-78740000D02*
X108980000Y-81040000D01*
X108980000Y-81040000D02*
X108980000Y-102820000D01*
X106200000Y-105600000D02*
X106200000Y-126800000D01*
X100600000Y-104400000D02*
X100600000Y-121800000D01*
X106680000Y-88900000D02*
X106680000Y-88920000D01*
X100600000Y-121800000D02*
X100600000Y-122000000D01*
X104200000Y-100800000D02*
X100600000Y-104400000D01*
X104200000Y-91400000D02*
X104200000Y-100800000D01*
X106680000Y-88920000D02*
X104200000Y-91400000D01*
X107780000Y-100920000D02*
X103800000Y-104900000D01*
X103800000Y-104900000D02*
X103800000Y-124400000D01*
X106680000Y-86360000D02*
X107780000Y-87460000D01*
X107780000Y-87460000D02*
X107780000Y-100920000D01*
D22*
X84810600Y-97433230D02*
X83423000Y-98820830D01*
X84810600Y-94335600D02*
X84810600Y-97433230D01*
G04 #@! TA.AperFunction,Conductor*
G36*
X69750299Y-113136158D02*
G01*
X69806233Y-113178030D01*
X69826741Y-113220246D01*
X69872126Y-113389624D01*
X69872128Y-113389630D01*
X69905730Y-113461689D01*
X69966819Y-113592696D01*
X69966821Y-113592700D01*
X70095329Y-113776228D01*
X70095334Y-113776234D01*
X70253765Y-113934665D01*
X70253771Y-113934670D01*
X70437299Y-114063178D01*
X70437301Y-114063179D01*
X70437304Y-114063181D01*
X70640370Y-114157872D01*
X70856794Y-114215863D01*
X71016226Y-114229811D01*
X71079998Y-114235391D01*
X71080000Y-114235391D01*
X71080002Y-114235391D01*
X71135801Y-114230509D01*
X71303206Y-114215863D01*
X71519630Y-114157872D01*
X71722696Y-114063181D01*
X71906233Y-113934667D01*
X72064667Y-113776233D01*
X72193181Y-113592696D01*
X72287872Y-113389630D01*
X72307725Y-113315537D01*
X72344090Y-113255877D01*
X72406937Y-113225348D01*
X72476312Y-113233643D01*
X72530190Y-113278128D01*
X72551465Y-113344680D01*
X72551500Y-113347631D01*
X72551500Y-117926770D01*
X72531815Y-117993809D01*
X72479011Y-118039564D01*
X72409853Y-118049508D01*
X72346297Y-118020483D01*
X72339819Y-118014451D01*
X71948818Y-117623450D01*
X71915333Y-117562127D01*
X71912499Y-117535769D01*
X71912499Y-116500129D01*
X71912498Y-116500123D01*
X71912497Y-116500116D01*
X71906091Y-116440517D01*
X71888556Y-116393504D01*
X71855797Y-116305671D01*
X71855793Y-116305664D01*
X71769547Y-116190455D01*
X71769544Y-116190452D01*
X71654335Y-116104206D01*
X71654328Y-116104202D01*
X71519482Y-116053908D01*
X71519483Y-116053908D01*
X71459883Y-116047501D01*
X71459881Y-116047500D01*
X71459873Y-116047500D01*
X71459864Y-116047500D01*
X69764129Y-116047500D01*
X69764123Y-116047501D01*
X69704516Y-116053908D01*
X69569671Y-116104202D01*
X69569664Y-116104206D01*
X69454455Y-116190452D01*
X69454452Y-116190455D01*
X69368206Y-116305664D01*
X69368202Y-116305671D01*
X69317908Y-116440517D01*
X69311501Y-116500116D01*
X69311501Y-116500123D01*
X69311500Y-116500135D01*
X69311500Y-118195870D01*
X69311501Y-118195876D01*
X69317908Y-118255483D01*
X69368202Y-118390328D01*
X69368206Y-118390335D01*
X69454452Y-118505544D01*
X69454455Y-118505547D01*
X69569664Y-118591793D01*
X69569671Y-118591797D01*
X69704517Y-118642091D01*
X69704516Y-118642091D01*
X69711444Y-118642835D01*
X69764127Y-118648500D01*
X70799769Y-118648499D01*
X70866808Y-118668183D01*
X70887450Y-118684818D01*
X71349181Y-119146548D01*
X71382666Y-119207871D01*
X71385500Y-119234229D01*
X71385500Y-121765500D01*
X71365815Y-121832539D01*
X71313011Y-121878294D01*
X71261500Y-121889500D01*
X69764129Y-121889500D01*
X69764123Y-121889501D01*
X69704516Y-121895908D01*
X69569671Y-121946202D01*
X69569664Y-121946206D01*
X69454455Y-122032452D01*
X69454452Y-122032455D01*
X69368206Y-122147664D01*
X69368202Y-122147671D01*
X69317908Y-122282517D01*
X69311501Y-122342116D01*
X69311500Y-122342135D01*
X69311500Y-124037870D01*
X69311501Y-124037876D01*
X69317908Y-124097483D01*
X69368202Y-124232328D01*
X69368206Y-124232335D01*
X69454452Y-124347544D01*
X69454455Y-124347547D01*
X69569664Y-124433793D01*
X69569671Y-124433797D01*
X69704517Y-124484091D01*
X69704516Y-124484091D01*
X69711444Y-124484835D01*
X69764127Y-124490500D01*
X71261500Y-124490499D01*
X71328539Y-124510184D01*
X71374294Y-124562987D01*
X71385500Y-124614499D01*
X71385500Y-126565918D01*
X71385500Y-126565920D01*
X71385499Y-126565920D01*
X71414340Y-126710907D01*
X71414343Y-126710917D01*
X71470914Y-126847492D01*
X71470915Y-126847494D01*
X71470916Y-126847495D01*
X71496164Y-126885282D01*
X71503812Y-126896727D01*
X71503813Y-126896730D01*
X71553046Y-126970414D01*
X71553052Y-126970421D01*
X74705584Y-130122952D01*
X74705586Y-130122954D01*
X74731056Y-130139971D01*
X74769265Y-130165501D01*
X74828505Y-130205084D01*
X74828507Y-130205085D01*
X74828511Y-130205087D01*
X74965082Y-130261656D01*
X74965087Y-130261658D01*
X75093558Y-130287213D01*
X75155469Y-130319598D01*
X75170942Y-130337707D01*
X75199954Y-130379141D01*
X75360858Y-130540045D01*
X75360861Y-130540047D01*
X75547266Y-130670568D01*
X75605275Y-130697618D01*
X75657714Y-130743791D01*
X75676866Y-130810984D01*
X75656650Y-130877865D01*
X75605275Y-130922381D01*
X75600267Y-130924717D01*
X75547267Y-130949431D01*
X75547265Y-130949432D01*
X75360858Y-131079954D01*
X75199954Y-131240858D01*
X75069432Y-131427265D01*
X75069431Y-131427267D01*
X74973261Y-131633502D01*
X74973258Y-131633511D01*
X74914366Y-131853302D01*
X74914364Y-131853313D01*
X74894532Y-132079998D01*
X74894532Y-132080001D01*
X74914364Y-132306686D01*
X74914366Y-132306697D01*
X74973258Y-132526488D01*
X74973261Y-132526497D01*
X74994991Y-132573095D01*
X75005483Y-132642172D01*
X74976964Y-132705956D01*
X74918487Y-132744196D01*
X74882609Y-132749500D01*
X69897391Y-132749500D01*
X69830352Y-132729815D01*
X69784597Y-132677011D01*
X69774653Y-132607853D01*
X69785009Y-132573095D01*
X69806739Y-132526496D01*
X69865635Y-132306692D01*
X69885468Y-132080000D01*
X69865635Y-131853308D01*
X69806739Y-131633504D01*
X69710568Y-131427266D01*
X69580047Y-131240861D01*
X69580045Y-131240858D01*
X69419143Y-131079956D01*
X69394536Y-131062726D01*
X69350912Y-131008149D01*
X69343719Y-130938650D01*
X69375241Y-130876296D01*
X69435471Y-130840882D01*
X69452404Y-130837861D01*
X69487483Y-130834091D01*
X69622331Y-130783796D01*
X69737546Y-130697546D01*
X69823796Y-130582331D01*
X69874091Y-130447483D01*
X69880500Y-130387873D01*
X69880499Y-128692128D01*
X69874091Y-128632517D01*
X69839567Y-128539954D01*
X69823797Y-128497671D01*
X69823793Y-128497664D01*
X69737547Y-128382455D01*
X69737544Y-128382452D01*
X69622335Y-128296206D01*
X69622328Y-128296202D01*
X69487482Y-128245908D01*
X69487483Y-128245908D01*
X69427883Y-128239501D01*
X69427881Y-128239500D01*
X69427873Y-128239500D01*
X69427865Y-128239500D01*
X68846500Y-128239500D01*
X68779461Y-128219815D01*
X68733706Y-128167011D01*
X68722500Y-128115500D01*
X68722500Y-114112807D01*
X68742185Y-114045768D01*
X68758814Y-114025130D01*
X69619287Y-113164657D01*
X69680608Y-113131174D01*
X69750299Y-113136158D01*
G37*
G04 #@! TD.AperFunction*
G04 #@! TA.AperFunction,Conductor*
G36*
X77646475Y-104270178D02*
G01*
X77695473Y-104300309D01*
X77710884Y-104315720D01*
X77710886Y-104315721D01*
X77710890Y-104315724D01*
X77763841Y-104346295D01*
X77763844Y-104346296D01*
X77778608Y-104354820D01*
X77847809Y-104394774D01*
X77847810Y-104394775D01*
X77847812Y-104394775D01*
X77847815Y-104394777D01*
X78000543Y-104435701D01*
X78000546Y-104435701D01*
X78166253Y-104435701D01*
X78166269Y-104435700D01*
X79990241Y-104435700D01*
X80057280Y-104455385D01*
X80103035Y-104508189D01*
X80112979Y-104577347D01*
X80083954Y-104640900D01*
X80072488Y-104654135D01*
X80016014Y-104719309D01*
X79968829Y-104792732D01*
X79940314Y-104837104D01*
X79938231Y-104840345D01*
X79938223Y-104840358D01*
X79881263Y-104965083D01*
X79879015Y-104969379D01*
X79837966Y-105109178D01*
X79837963Y-105109188D01*
X79817503Y-105251499D01*
X79817503Y-105307839D01*
X79817500Y-105307849D01*
X79817500Y-105607632D01*
X79797815Y-105674671D01*
X79781181Y-105695313D01*
X78213313Y-107263181D01*
X78151990Y-107296666D01*
X78125632Y-107299500D01*
X75381143Y-107299500D01*
X75314104Y-107279815D01*
X75268349Y-107227011D01*
X75258405Y-107157853D01*
X75266582Y-107128048D01*
X75301500Y-107043746D01*
X75301501Y-107043743D01*
X75303879Y-107031788D01*
X75303880Y-107031785D01*
X75326500Y-106918071D01*
X75326500Y-105354187D01*
X75346185Y-105287148D01*
X75398989Y-105241393D01*
X75468147Y-105231449D01*
X75521619Y-105252610D01*
X75547266Y-105270568D01*
X75753504Y-105366739D01*
X75973308Y-105425635D01*
X76113052Y-105437861D01*
X76199998Y-105445468D01*
X76200000Y-105445468D01*
X76200002Y-105445468D01*
X76256796Y-105440499D01*
X76426692Y-105425635D01*
X76646496Y-105366739D01*
X76852734Y-105270568D01*
X77039139Y-105140047D01*
X77200047Y-104979139D01*
X77330568Y-104792734D01*
X77426739Y-104586496D01*
X77485635Y-104366692D01*
X77485635Y-104366681D01*
X77485674Y-104366467D01*
X77485720Y-104366373D01*
X77487036Y-104361463D01*
X77488022Y-104361727D01*
X77516696Y-104303862D01*
X77576641Y-104267967D01*
X77646475Y-104270178D01*
G37*
G04 #@! TD.AperFunction*
G04 #@! TA.AperFunction,Conductor*
G36*
X107093256Y-97776024D02*
G01*
X107151119Y-97815186D01*
X107178623Y-97879415D01*
X107179500Y-97894136D01*
X107179500Y-100619903D01*
X107159815Y-100686942D01*
X107143181Y-100707584D01*
X106212181Y-101638584D01*
X106150858Y-101672069D01*
X106081166Y-101667085D01*
X106025233Y-101625213D01*
X106000816Y-101559749D01*
X106000500Y-101550903D01*
X106000500Y-98100096D01*
X106020185Y-98033057D01*
X106036815Y-98012419D01*
X106237294Y-97811939D01*
X106298615Y-97778456D01*
X106357066Y-97779847D01*
X106376604Y-97785082D01*
X106453308Y-97805635D01*
X106615230Y-97819801D01*
X106679998Y-97825468D01*
X106680000Y-97825468D01*
X106680002Y-97825468D01*
X106736673Y-97820509D01*
X106906692Y-97805635D01*
X107023408Y-97774361D01*
X107093256Y-97776024D01*
G37*
G04 #@! TD.AperFunction*
G04 #@! TA.AperFunction,Conductor*
G36*
X85170834Y-93838358D02*
G01*
X85226767Y-93880230D01*
X85251184Y-93945694D01*
X85251500Y-93954540D01*
X85251500Y-100304660D01*
X85231815Y-100371699D01*
X85179011Y-100417454D01*
X85109853Y-100427398D01*
X85046297Y-100398373D01*
X85039819Y-100392341D01*
X84995362Y-100347884D01*
X84842621Y-100251910D01*
X84672349Y-100192330D01*
X84585431Y-100182537D01*
X84521017Y-100155470D01*
X84511634Y-100146998D01*
X84417317Y-100052681D01*
X84417316Y-100052680D01*
X84330504Y-100002560D01*
X84330504Y-100002559D01*
X84330500Y-100002558D01*
X84280385Y-99973623D01*
X84127657Y-99932699D01*
X83969543Y-99932699D01*
X83961947Y-99932699D01*
X83961931Y-99932700D01*
X83200804Y-99932700D01*
X83133765Y-99913015D01*
X83088010Y-99860211D01*
X83078066Y-99791053D01*
X83084622Y-99765367D01*
X83104253Y-99712734D01*
X83117091Y-99678313D01*
X83123500Y-99618703D01*
X83123499Y-98022958D01*
X83117091Y-97963347D01*
X83115453Y-97958956D01*
X83066797Y-97828501D01*
X83066793Y-97828494D01*
X82980547Y-97713285D01*
X82980544Y-97713282D01*
X82968106Y-97703971D01*
X82926235Y-97648037D01*
X82921251Y-97578346D01*
X82954735Y-97517025D01*
X82998845Y-97472916D01*
X82998845Y-97472914D01*
X83009049Y-97462711D01*
X83009052Y-97462706D01*
X83865198Y-96606561D01*
X83901369Y-96581448D01*
X83906137Y-96579272D01*
X84021483Y-96505143D01*
X84022919Y-96504326D01*
X84027098Y-96501536D01*
X84124081Y-96417498D01*
X84135832Y-96407316D01*
X84229986Y-96298655D01*
X84307770Y-96177619D01*
X84364742Y-96052867D01*
X84366986Y-96048578D01*
X84367498Y-96046833D01*
X84367499Y-96046833D01*
X84408035Y-95908781D01*
X84428497Y-95766466D01*
X84428497Y-95710126D01*
X84428500Y-95710115D01*
X84428500Y-95572469D01*
X84432725Y-95540377D01*
X84433788Y-95536408D01*
X84437225Y-95523582D01*
X84437225Y-95365468D01*
X84432723Y-95348668D01*
X84428500Y-95316580D01*
X84428500Y-95178951D01*
X84428497Y-95178924D01*
X84428497Y-95122585D01*
X84426769Y-95110570D01*
X84408035Y-94980269D01*
X84408035Y-94980268D01*
X84367498Y-94842216D01*
X84351512Y-94807211D01*
X84307776Y-94711443D01*
X84307773Y-94711439D01*
X84307770Y-94711431D01*
X84229986Y-94590395D01*
X84154846Y-94503678D01*
X84125823Y-94440125D01*
X84135767Y-94370966D01*
X84181522Y-94318162D01*
X84216463Y-94302704D01*
X84280385Y-94285577D01*
X84341992Y-94250008D01*
X84417316Y-94206520D01*
X84417317Y-94206519D01*
X84460835Y-94163001D01*
X84522158Y-94129515D01*
X84534616Y-94127462D01*
X84621555Y-94117668D01*
X84791822Y-94058089D01*
X84944562Y-93962116D01*
X85039819Y-93866859D01*
X85101142Y-93833374D01*
X85170834Y-93838358D01*
G37*
G04 #@! TD.AperFunction*
G04 #@! TA.AperFunction,Conductor*
G36*
X104420216Y-78853451D02*
G01*
X104620781Y-79054016D01*
X104654266Y-79115339D01*
X104657100Y-79141697D01*
X104657100Y-82818930D01*
X104657099Y-82818948D01*
X104657099Y-82984654D01*
X104657098Y-82984654D01*
X104660224Y-82996320D01*
X104698023Y-83137385D01*
X104704797Y-83149118D01*
X104704799Y-83149126D01*
X104704802Y-83149125D01*
X104777080Y-83274316D01*
X104895949Y-83393185D01*
X104895955Y-83393190D01*
X105347581Y-83844816D01*
X105381066Y-83906139D01*
X105383428Y-83921689D01*
X105394364Y-84046687D01*
X105394366Y-84046697D01*
X105453258Y-84266488D01*
X105453261Y-84266497D01*
X105549431Y-84472732D01*
X105549432Y-84472734D01*
X105679954Y-84659141D01*
X105840858Y-84820045D01*
X105840861Y-84820047D01*
X106027266Y-84950568D01*
X106085275Y-84977618D01*
X106137714Y-85023791D01*
X106156866Y-85090984D01*
X106136650Y-85157865D01*
X106085275Y-85202382D01*
X106027267Y-85229431D01*
X106027265Y-85229432D01*
X105840858Y-85359954D01*
X105679954Y-85520858D01*
X105549432Y-85707265D01*
X105549431Y-85707267D01*
X105453261Y-85913502D01*
X105453258Y-85913511D01*
X105394366Y-86133302D01*
X105394364Y-86133313D01*
X105374532Y-86359998D01*
X105374532Y-86360001D01*
X105394364Y-86586686D01*
X105394366Y-86586697D01*
X105453258Y-86806488D01*
X105453261Y-86806497D01*
X105549431Y-87012732D01*
X105549432Y-87012734D01*
X105679954Y-87199141D01*
X105840858Y-87360045D01*
X105840861Y-87360047D01*
X106027266Y-87490568D01*
X106085275Y-87517618D01*
X106137714Y-87563791D01*
X106156866Y-87630984D01*
X106136650Y-87697865D01*
X106085275Y-87742382D01*
X106027267Y-87769431D01*
X106027265Y-87769432D01*
X105840858Y-87899954D01*
X105679954Y-88060858D01*
X105549432Y-88247265D01*
X105549431Y-88247267D01*
X105453261Y-88453502D01*
X105453258Y-88453511D01*
X105394366Y-88673302D01*
X105394364Y-88673313D01*
X105374532Y-88899998D01*
X105374532Y-88900001D01*
X105394364Y-89126686D01*
X105394366Y-89126697D01*
X105424378Y-89238704D01*
X105422715Y-89308554D01*
X105392284Y-89358478D01*
X103831286Y-90919478D01*
X103719481Y-91031282D01*
X103719477Y-91031287D01*
X103676673Y-91105428D01*
X103676673Y-91105429D01*
X103640423Y-91168214D01*
X103630677Y-91204586D01*
X103599499Y-91320943D01*
X103599499Y-91320945D01*
X103599499Y-91489046D01*
X103599500Y-91489059D01*
X103599500Y-97770587D01*
X103579815Y-97837626D01*
X103527011Y-97883381D01*
X103457853Y-97893325D01*
X103423095Y-97882969D01*
X103363246Y-97855061D01*
X103316496Y-97833261D01*
X103316492Y-97833260D01*
X103316488Y-97833258D01*
X103096697Y-97774366D01*
X103096693Y-97774365D01*
X103096692Y-97774365D01*
X103096691Y-97774364D01*
X103096686Y-97774364D01*
X102870002Y-97754532D01*
X102869998Y-97754532D01*
X102643313Y-97774364D01*
X102643302Y-97774366D01*
X102423511Y-97833258D01*
X102423502Y-97833261D01*
X102217267Y-97929431D01*
X102145622Y-97979597D01*
X102079416Y-98001924D01*
X102011649Y-97984912D01*
X101963836Y-97933964D01*
X101950500Y-97878021D01*
X101950500Y-88392229D01*
X101970185Y-88325190D01*
X101986819Y-88304548D01*
X102262770Y-88028597D01*
X102604652Y-87686714D01*
X102665973Y-87653231D01*
X102703135Y-87650869D01*
X102846366Y-87663400D01*
X102869999Y-87665468D01*
X102870000Y-87665468D01*
X102870002Y-87665468D01*
X102926673Y-87660509D01*
X103096692Y-87645635D01*
X103316496Y-87586739D01*
X103522734Y-87490568D01*
X103709139Y-87360047D01*
X103870047Y-87199139D01*
X104000568Y-87012734D01*
X104096739Y-86806496D01*
X104155635Y-86586692D01*
X104173631Y-86380998D01*
X104175468Y-86360001D01*
X104175468Y-86359998D01*
X104162211Y-86208472D01*
X104155635Y-86133308D01*
X104096739Y-85913504D01*
X104000568Y-85707266D01*
X103870047Y-85520861D01*
X103709139Y-85359953D01*
X103678837Y-85338735D01*
X103673375Y-85334910D01*
X103629751Y-85280332D01*
X103620500Y-85233336D01*
X103620500Y-79927700D01*
X103640185Y-79860661D01*
X103673375Y-79826126D01*
X103741401Y-79778495D01*
X103908495Y-79611401D01*
X104044035Y-79417830D01*
X104143903Y-79203663D01*
X104205063Y-78975408D01*
X104209007Y-78930323D01*
X104234459Y-78865256D01*
X104291050Y-78824277D01*
X104360812Y-78820399D01*
X104420216Y-78853451D01*
G37*
G04 #@! TD.AperFunction*
G04 #@! TA.AperFunction,Conductor*
G36*
X71591256Y-78090185D02*
G01*
X71611898Y-78106819D01*
X73150181Y-79645102D01*
X73183666Y-79706425D01*
X73186500Y-79732783D01*
X73186500Y-91027734D01*
X73166815Y-91094773D01*
X73114011Y-91140528D01*
X73076384Y-91150954D01*
X72972749Y-91162630D01*
X72972745Y-91162631D01*
X72802476Y-91222211D01*
X72646441Y-91320255D01*
X72579204Y-91339255D01*
X72512369Y-91318887D01*
X72467155Y-91265619D01*
X72456942Y-91226069D01*
X72455063Y-91204592D01*
X72393903Y-90976337D01*
X72294035Y-90762171D01*
X72290510Y-90757136D01*
X72158494Y-90568597D01*
X71991402Y-90401506D01*
X71991396Y-90401501D01*
X71805842Y-90271575D01*
X71762217Y-90216998D01*
X71755023Y-90147500D01*
X71786546Y-90085145D01*
X71805842Y-90068425D01*
X71859909Y-90030567D01*
X71991401Y-89938495D01*
X72158495Y-89771401D01*
X72294035Y-89577830D01*
X72393903Y-89363663D01*
X72455063Y-89135408D01*
X72475659Y-88900000D01*
X72455063Y-88664592D01*
X72393903Y-88436337D01*
X72294035Y-88222171D01*
X72290510Y-88217136D01*
X72158494Y-88028597D01*
X71991402Y-87861506D01*
X71991396Y-87861501D01*
X71805842Y-87731575D01*
X71762217Y-87676998D01*
X71755023Y-87607500D01*
X71786546Y-87545145D01*
X71805842Y-87528425D01*
X71863069Y-87488354D01*
X71991401Y-87398495D01*
X72158495Y-87231401D01*
X72294035Y-87037830D01*
X72393903Y-86823663D01*
X72455063Y-86595408D01*
X72475659Y-86360000D01*
X72455063Y-86124592D01*
X72398502Y-85913502D01*
X72393905Y-85896344D01*
X72393904Y-85896343D01*
X72393903Y-85896337D01*
X72294035Y-85682171D01*
X72158495Y-85488599D01*
X72158494Y-85488597D01*
X71991402Y-85321506D01*
X71991396Y-85321501D01*
X71805842Y-85191575D01*
X71762217Y-85136998D01*
X71755023Y-85067500D01*
X71786546Y-85005145D01*
X71805842Y-84988425D01*
X71859909Y-84950567D01*
X71991401Y-84858495D01*
X72158495Y-84691401D01*
X72294035Y-84497830D01*
X72393903Y-84283663D01*
X72455063Y-84055408D01*
X72475659Y-83820000D01*
X72455063Y-83584592D01*
X72393903Y-83356337D01*
X72294035Y-83142171D01*
X72290684Y-83137384D01*
X72158494Y-82948597D01*
X71991402Y-82781506D01*
X71991395Y-82781501D01*
X71797834Y-82645967D01*
X71797830Y-82645965D01*
X71789499Y-82642080D01*
X71583663Y-82546097D01*
X71583659Y-82546096D01*
X71583655Y-82546094D01*
X71355413Y-82484938D01*
X71355403Y-82484936D01*
X71120001Y-82464341D01*
X71119999Y-82464341D01*
X70884596Y-82484936D01*
X70884586Y-82484938D01*
X70656344Y-82546094D01*
X70656335Y-82546098D01*
X70626903Y-82559822D01*
X70557826Y-82570313D01*
X70494042Y-82541792D01*
X70455803Y-82483315D01*
X70450500Y-82447439D01*
X70450500Y-79930945D01*
X70450499Y-79930941D01*
X70445969Y-79914035D01*
X70423524Y-79830265D01*
X70418993Y-79813353D01*
X70418993Y-79813352D01*
X70409578Y-79778217D01*
X70409577Y-79778216D01*
X70409577Y-79778215D01*
X70380639Y-79728095D01*
X70330520Y-79641284D01*
X70218716Y-79529480D01*
X70218715Y-79529479D01*
X70214385Y-79525149D01*
X70214374Y-79525139D01*
X69912766Y-79223531D01*
X69879281Y-79162208D01*
X69880672Y-79103757D01*
X69894000Y-79054016D01*
X69915063Y-78975408D01*
X69935659Y-78740000D01*
X69915063Y-78504592D01*
X69859554Y-78297426D01*
X69853905Y-78276344D01*
X69853904Y-78276343D01*
X69853903Y-78276337D01*
X69840177Y-78246902D01*
X69829686Y-78177829D01*
X69858205Y-78114044D01*
X69916681Y-78075804D01*
X69952560Y-78070500D01*
X71524217Y-78070500D01*
X71591256Y-78090185D01*
G37*
G04 #@! TD.AperFunction*
G04 #@! TA.AperFunction,Conductor*
G36*
X89979656Y-74254785D02*
G01*
X90025411Y-74307589D01*
X90035355Y-74376747D01*
X90006330Y-74440303D01*
X90000298Y-74446780D01*
X87917718Y-76529360D01*
X85991286Y-78455792D01*
X85879481Y-78567596D01*
X85879477Y-78567601D01*
X85836837Y-78641458D01*
X85836837Y-78641459D01*
X85800423Y-78704528D01*
X85800423Y-78704529D01*
X85759499Y-78857257D01*
X85759499Y-78857259D01*
X85759499Y-79025360D01*
X85759500Y-79025373D01*
X85759500Y-85109636D01*
X85739815Y-85176675D01*
X85687011Y-85222430D01*
X85617853Y-85232374D01*
X85554297Y-85203349D01*
X85547819Y-85197317D01*
X83698138Y-83347636D01*
X83664653Y-83286313D01*
X83669637Y-83216621D01*
X83711509Y-83160688D01*
X83750881Y-83140979D01*
X83775259Y-83133822D01*
X83906137Y-83074052D01*
X84021477Y-82999927D01*
X84022915Y-82999109D01*
X84027098Y-82996316D01*
X84082167Y-82948597D01*
X84135832Y-82902096D01*
X84229986Y-82793435D01*
X84307770Y-82672399D01*
X84364742Y-82547647D01*
X84366986Y-82543358D01*
X84367498Y-82541613D01*
X84367499Y-82541613D01*
X84408035Y-82403561D01*
X84410576Y-82385892D01*
X84412072Y-82375480D01*
X84428497Y-82261246D01*
X84428497Y-82204906D01*
X84428500Y-82204895D01*
X84428500Y-81673731D01*
X84428497Y-81673704D01*
X84428497Y-81617365D01*
X84413838Y-81515413D01*
X84408035Y-81475049D01*
X84408035Y-81475048D01*
X84367498Y-81336996D01*
X84341469Y-81280000D01*
X84307776Y-81206223D01*
X84307773Y-81206219D01*
X84307770Y-81206211D01*
X84229986Y-81085175D01*
X84229985Y-81085174D01*
X84229984Y-81085172D01*
X84229981Y-81085168D01*
X84135847Y-80976531D01*
X84135830Y-80976512D01*
X84135829Y-80976511D01*
X84027091Y-80882290D01*
X83991858Y-80859647D01*
X83906142Y-80804560D01*
X83906136Y-80804557D01*
X83835028Y-80772083D01*
X83775259Y-80744788D01*
X83692279Y-80720423D01*
X83637309Y-80704282D01*
X83637302Y-80704280D01*
X83619647Y-80701742D01*
X83556092Y-80672716D01*
X83549630Y-80666700D01*
X83403521Y-80520590D01*
X83403520Y-80520589D01*
X83291716Y-80408785D01*
X83204904Y-80358665D01*
X83204904Y-80358664D01*
X83204900Y-80358663D01*
X83154785Y-80329728D01*
X83002057Y-80288804D01*
X82843943Y-80288804D01*
X82836347Y-80288804D01*
X82836331Y-80288805D01*
X82694402Y-80288805D01*
X82627363Y-80269120D01*
X82606721Y-80252486D01*
X82378916Y-80024681D01*
X82345431Y-79963358D01*
X82350415Y-79893666D01*
X82392287Y-79837733D01*
X82457751Y-79813316D01*
X82466597Y-79813000D01*
X82670828Y-79813000D01*
X82670844Y-79812999D01*
X82738089Y-79805769D01*
X82738145Y-79806298D01*
X82776287Y-79804595D01*
X82873000Y-79818500D01*
X82873001Y-79818500D01*
X83494886Y-79818500D01*
X83494889Y-79818500D01*
X83637304Y-79798024D01*
X83775259Y-79757517D01*
X83906137Y-79697747D01*
X83908789Y-79696043D01*
X83989720Y-79644032D01*
X84021477Y-79623622D01*
X84022915Y-79622804D01*
X84027098Y-79620011D01*
X84076017Y-79577620D01*
X84135832Y-79525791D01*
X84229986Y-79417130D01*
X84307770Y-79296094D01*
X84364742Y-79171342D01*
X84366986Y-79167053D01*
X84367498Y-79165308D01*
X84367499Y-79165308D01*
X84408035Y-79027256D01*
X84408949Y-79020904D01*
X84415489Y-78975412D01*
X84428497Y-78884941D01*
X84428497Y-78828601D01*
X84428500Y-78828590D01*
X84428500Y-78297426D01*
X84428497Y-78297399D01*
X84428497Y-78241060D01*
X84424166Y-78210940D01*
X84408035Y-78098744D01*
X84408035Y-78098743D01*
X84367498Y-77960691D01*
X84367496Y-77960686D01*
X84307776Y-77829918D01*
X84307773Y-77829914D01*
X84307770Y-77829906D01*
X84229986Y-77708870D01*
X84229985Y-77708869D01*
X84229984Y-77708867D01*
X84229981Y-77708863D01*
X84135847Y-77600226D01*
X84135830Y-77600207D01*
X84135829Y-77600206D01*
X84027091Y-77505985D01*
X83989720Y-77481968D01*
X83906142Y-77428255D01*
X83906136Y-77428252D01*
X83817439Y-77387746D01*
X83775259Y-77368483D01*
X83646132Y-77330568D01*
X83637308Y-77327977D01*
X83637296Y-77327974D01*
X83494889Y-77307500D01*
X82873000Y-77307500D01*
X82872997Y-77307500D01*
X82801060Y-77312644D01*
X82788288Y-77316395D01*
X82738356Y-77317733D01*
X82738088Y-77320231D01*
X82670844Y-77313000D01*
X82373000Y-77313000D01*
X82373000Y-77765877D01*
X82371738Y-77783523D01*
X82367500Y-77812998D01*
X82367500Y-78689000D01*
X82347815Y-78756039D01*
X82295011Y-78801794D01*
X82243500Y-78813000D01*
X82002500Y-78813000D01*
X81935461Y-78793315D01*
X81889706Y-78740511D01*
X81878500Y-78689000D01*
X81878500Y-77813000D01*
X81873355Y-77741060D01*
X81873354Y-77741058D01*
X81873316Y-77740518D01*
X81873000Y-77731672D01*
X81873000Y-77313000D01*
X81575155Y-77313000D01*
X81507913Y-77320231D01*
X81507856Y-77319702D01*
X81469711Y-77321404D01*
X81373001Y-77307500D01*
X81373000Y-77307500D01*
X80751111Y-77307500D01*
X80751110Y-77307500D01*
X80608703Y-77327974D01*
X80608691Y-77327977D01*
X80470741Y-77368483D01*
X80339863Y-77428252D01*
X80339861Y-77428254D01*
X80224523Y-77502376D01*
X80223083Y-77503196D01*
X80218901Y-77505988D01*
X80110169Y-77600207D01*
X80110166Y-77600210D01*
X80016018Y-77708864D01*
X80016015Y-77708867D01*
X79986022Y-77755539D01*
X79933218Y-77801294D01*
X79881706Y-77812500D01*
X77163048Y-77812500D01*
X77096009Y-77792815D01*
X77075366Y-77776180D01*
X77039140Y-77739953D01*
X76852734Y-77609432D01*
X76852732Y-77609431D01*
X76646497Y-77513261D01*
X76646488Y-77513258D01*
X76426697Y-77454366D01*
X76426693Y-77454365D01*
X76426692Y-77454365D01*
X76426691Y-77454364D01*
X76426686Y-77454364D01*
X76200002Y-77434532D01*
X76199998Y-77434532D01*
X75973313Y-77454364D01*
X75973302Y-77454366D01*
X75753511Y-77513258D01*
X75753506Y-77513260D01*
X75706904Y-77534991D01*
X75637826Y-77545482D01*
X75574042Y-77516961D01*
X75535803Y-77458484D01*
X75530500Y-77422608D01*
X75530500Y-75230097D01*
X75550185Y-75163058D01*
X75566819Y-75142416D01*
X76437816Y-74271419D01*
X76499139Y-74237934D01*
X76525497Y-74235100D01*
X89912617Y-74235100D01*
X89979656Y-74254785D01*
G37*
G04 #@! TD.AperFunction*
G04 #@! TA.AperFunction,Conductor*
G36*
X114041542Y-74254785D02*
G01*
X114062184Y-74271419D01*
X114481336Y-74690571D01*
X114514821Y-74751894D01*
X114509837Y-74821586D01*
X114467965Y-74877519D01*
X114402501Y-74901936D01*
X114382848Y-74901780D01*
X114300002Y-74894532D01*
X114299998Y-74894532D01*
X114073313Y-74914364D01*
X114073302Y-74914366D01*
X113853511Y-74973258D01*
X113853502Y-74973261D01*
X113647267Y-75069431D01*
X113647265Y-75069432D01*
X113460858Y-75199954D01*
X113299954Y-75360858D01*
X113169432Y-75547265D01*
X113169431Y-75547267D01*
X113073261Y-75753502D01*
X113073258Y-75753511D01*
X113014366Y-75973302D01*
X113014364Y-75973313D01*
X112994532Y-76199998D01*
X112994532Y-76200001D01*
X113014364Y-76426686D01*
X113014366Y-76426697D01*
X113073258Y-76646488D01*
X113073261Y-76646497D01*
X113169431Y-76852732D01*
X113169432Y-76852734D01*
X113299954Y-77039141D01*
X113460858Y-77200045D01*
X113460861Y-77200047D01*
X113647266Y-77330568D01*
X113705275Y-77357618D01*
X113757714Y-77403791D01*
X113776866Y-77470984D01*
X113756650Y-77537865D01*
X113705275Y-77582381D01*
X113688272Y-77590310D01*
X113647267Y-77609431D01*
X113647265Y-77609432D01*
X113460858Y-77739954D01*
X113299954Y-77900858D01*
X113169432Y-78087265D01*
X113169431Y-78087267D01*
X113073261Y-78293502D01*
X113073258Y-78293511D01*
X113014366Y-78513302D01*
X113014364Y-78513313D01*
X112994532Y-78739998D01*
X112994532Y-78740001D01*
X113014364Y-78966686D01*
X113014366Y-78966697D01*
X113040152Y-79062931D01*
X113038489Y-79132781D01*
X113008058Y-79182705D01*
X109792181Y-82398583D01*
X109730858Y-82432068D01*
X109661166Y-82427084D01*
X109605233Y-82385212D01*
X109580816Y-82319748D01*
X109580500Y-82310902D01*
X109580500Y-80960943D01*
X109580499Y-80960939D01*
X109567195Y-80911286D01*
X109566525Y-80908785D01*
X109539577Y-80808215D01*
X109535214Y-80800658D01*
X109502957Y-80744787D01*
X109460522Y-80671287D01*
X109460521Y-80671286D01*
X109460520Y-80671284D01*
X109348716Y-80559480D01*
X109348715Y-80559479D01*
X109344385Y-80555149D01*
X109344374Y-80555139D01*
X107971941Y-79182706D01*
X107938456Y-79121383D01*
X107939847Y-79062931D01*
X107942236Y-79054016D01*
X107965635Y-78966692D01*
X107985468Y-78740000D01*
X107985007Y-78734735D01*
X107970385Y-78567601D01*
X107965635Y-78513308D01*
X107906739Y-78293504D01*
X107810568Y-78087266D01*
X107680047Y-77900861D01*
X107680045Y-77900858D01*
X107519141Y-77739954D01*
X107332734Y-77609432D01*
X107332732Y-77609431D01*
X107126497Y-77513261D01*
X107126488Y-77513258D01*
X106906697Y-77454366D01*
X106906693Y-77454365D01*
X106906692Y-77454365D01*
X106906691Y-77454364D01*
X106906686Y-77454364D01*
X106680002Y-77434532D01*
X106679998Y-77434532D01*
X106453313Y-77454364D01*
X106453302Y-77454366D01*
X106233511Y-77513258D01*
X106233502Y-77513261D01*
X106027267Y-77609431D01*
X106027265Y-77609432D01*
X105840858Y-77739954D01*
X105679954Y-77900858D01*
X105553090Y-78082041D01*
X105498513Y-78125666D01*
X105429015Y-78132860D01*
X105366660Y-78101337D01*
X105363834Y-78098599D01*
X104373590Y-77108355D01*
X104373588Y-77108352D01*
X104254717Y-76989481D01*
X104254716Y-76989480D01*
X104167904Y-76939360D01*
X104167904Y-76939359D01*
X104167900Y-76939358D01*
X104117785Y-76910423D01*
X103965057Y-76869499D01*
X103806943Y-76869499D01*
X103799347Y-76869499D01*
X103799331Y-76869500D01*
X101940669Y-76869500D01*
X101940653Y-76869499D01*
X101933057Y-76869499D01*
X101774943Y-76869499D01*
X101667587Y-76898265D01*
X101622210Y-76910424D01*
X101622209Y-76910425D01*
X101572096Y-76939359D01*
X101572095Y-76939360D01*
X101553576Y-76950052D01*
X101485285Y-76989479D01*
X101485282Y-76989481D01*
X100469284Y-78005480D01*
X100469283Y-78005481D01*
X100412064Y-78062699D01*
X100350741Y-78096183D01*
X100281049Y-78091198D01*
X100225116Y-78049327D01*
X100222840Y-78046183D01*
X100098495Y-77868599D01*
X100098493Y-77868596D01*
X99931402Y-77701506D01*
X99931396Y-77701501D01*
X99745842Y-77571575D01*
X99702217Y-77516998D01*
X99695023Y-77447500D01*
X99726546Y-77385145D01*
X99745842Y-77368425D01*
X99799909Y-77330567D01*
X99931401Y-77238495D01*
X100098495Y-77071401D01*
X100234035Y-76877830D01*
X100333903Y-76663663D01*
X100395063Y-76435408D01*
X100415659Y-76200000D01*
X100395063Y-75964592D01*
X100333903Y-75736337D01*
X100234035Y-75522171D01*
X100098495Y-75328599D01*
X100098494Y-75328597D01*
X99931402Y-75161506D01*
X99931395Y-75161501D01*
X99737834Y-75025967D01*
X99737830Y-75025965D01*
X99701571Y-75009057D01*
X99523663Y-74926097D01*
X99523659Y-74926096D01*
X99523655Y-74926094D01*
X99295413Y-74864938D01*
X99295403Y-74864936D01*
X99060001Y-74844341D01*
X99059999Y-74844341D01*
X98824596Y-74864936D01*
X98824583Y-74864939D01*
X98696241Y-74899327D01*
X98626392Y-74897664D01*
X98576468Y-74867233D01*
X98156016Y-74446781D01*
X98122531Y-74385458D01*
X98127515Y-74315766D01*
X98169387Y-74259833D01*
X98234851Y-74235416D01*
X98243697Y-74235100D01*
X113974503Y-74235100D01*
X114041542Y-74254785D01*
G37*
G04 #@! TD.AperFunction*
G04 #@! TA.AperFunction,Conductor*
G36*
X116582539Y-72610185D02*
G01*
X116628294Y-72662989D01*
X116639500Y-72714500D01*
X116639500Y-140645500D01*
X116619815Y-140712539D01*
X116567011Y-140758294D01*
X116515500Y-140769500D01*
X66364500Y-140769500D01*
X66297461Y-140749815D01*
X66251706Y-140697011D01*
X66240500Y-140645500D01*
X66240500Y-78739999D01*
X67224341Y-78739999D01*
X67224341Y-78740000D01*
X67244936Y-78975403D01*
X67244938Y-78975413D01*
X67306094Y-79203655D01*
X67306096Y-79203659D01*
X67306097Y-79203663D01*
X67385145Y-79373181D01*
X67405965Y-79417830D01*
X67405967Y-79417834D01*
X67481559Y-79525789D01*
X67537171Y-79605212D01*
X67541501Y-79611395D01*
X67541506Y-79611402D01*
X67708597Y-79778493D01*
X67708603Y-79778498D01*
X67894158Y-79908425D01*
X67937783Y-79963002D01*
X67944977Y-80032500D01*
X67913454Y-80094855D01*
X67894158Y-80111575D01*
X67708597Y-80241505D01*
X67541505Y-80408597D01*
X67405965Y-80602169D01*
X67405964Y-80602171D01*
X67306098Y-80816335D01*
X67306094Y-80816344D01*
X67244938Y-81044586D01*
X67244936Y-81044596D01*
X67224341Y-81279999D01*
X67224341Y-81280000D01*
X67244936Y-81515403D01*
X67244938Y-81515413D01*
X67306094Y-81743655D01*
X67306096Y-81743659D01*
X67306097Y-81743663D01*
X67385145Y-81913181D01*
X67405965Y-81957830D01*
X67405967Y-81957834D01*
X67451000Y-82022147D01*
X67516902Y-82116265D01*
X67541501Y-82151395D01*
X67541506Y-82151402D01*
X67708597Y-82318493D01*
X67708603Y-82318498D01*
X67894158Y-82448425D01*
X67937783Y-82503002D01*
X67944977Y-82572500D01*
X67913454Y-82634855D01*
X67894158Y-82651575D01*
X67708597Y-82781505D01*
X67541505Y-82948597D01*
X67405965Y-83142169D01*
X67405964Y-83142171D01*
X67306098Y-83356335D01*
X67306094Y-83356344D01*
X67244938Y-83584586D01*
X67244936Y-83584596D01*
X67224341Y-83819999D01*
X67224341Y-83820000D01*
X67244936Y-84055403D01*
X67244938Y-84055413D01*
X67306094Y-84283655D01*
X67306096Y-84283659D01*
X67306097Y-84283663D01*
X67369906Y-84420501D01*
X67405965Y-84497830D01*
X67405967Y-84497834D01*
X67454457Y-84567084D01*
X67541505Y-84691401D01*
X67708599Y-84858495D01*
X67805384Y-84926265D01*
X67902165Y-84994032D01*
X67902167Y-84994033D01*
X67902170Y-84994035D01*
X68116337Y-85093903D01*
X68344592Y-85155063D01*
X68532918Y-85171539D01*
X68579999Y-85175659D01*
X68580000Y-85175659D01*
X68580001Y-85175659D01*
X68619234Y-85172226D01*
X68815408Y-85155063D01*
X69043663Y-85093903D01*
X69073097Y-85080177D01*
X69142171Y-85069686D01*
X69205956Y-85098205D01*
X69244196Y-85156681D01*
X69249500Y-85192560D01*
X69249500Y-90067439D01*
X69229815Y-90134478D01*
X69177011Y-90180233D01*
X69107853Y-90190177D01*
X69073097Y-90179822D01*
X69054143Y-90170984D01*
X69043663Y-90166097D01*
X69043659Y-90166096D01*
X69043655Y-90166094D01*
X68815413Y-90104938D01*
X68815403Y-90104936D01*
X68580001Y-90084341D01*
X68579999Y-90084341D01*
X68344596Y-90104936D01*
X68344586Y-90104938D01*
X68116344Y-90166094D01*
X68116335Y-90166098D01*
X67902171Y-90265964D01*
X67902169Y-90265965D01*
X67708597Y-90401505D01*
X67541505Y-90568597D01*
X67405965Y-90762169D01*
X67405964Y-90762171D01*
X67306098Y-90976335D01*
X67306094Y-90976344D01*
X67244938Y-91204586D01*
X67244936Y-91204596D01*
X67224341Y-91439999D01*
X67224341Y-91440000D01*
X67244936Y-91675403D01*
X67244938Y-91675413D01*
X67306094Y-91903655D01*
X67306096Y-91903659D01*
X67306097Y-91903663D01*
X67348351Y-91994276D01*
X67405965Y-92117830D01*
X67405967Y-92117834D01*
X67504521Y-92258583D01*
X67541501Y-92311396D01*
X67541506Y-92311402D01*
X67708597Y-92478493D01*
X67708603Y-92478498D01*
X67894158Y-92608425D01*
X67937783Y-92663002D01*
X67944977Y-92732500D01*
X67913454Y-92794855D01*
X67894158Y-92811575D01*
X67708597Y-92941505D01*
X67541505Y-93108597D01*
X67405965Y-93302169D01*
X67405964Y-93302171D01*
X67306098Y-93516335D01*
X67306094Y-93516344D01*
X67244938Y-93744586D01*
X67244936Y-93744596D01*
X67224341Y-93979999D01*
X67224341Y-93980000D01*
X67244936Y-94215403D01*
X67244938Y-94215413D01*
X67306094Y-94443655D01*
X67306096Y-94443659D01*
X67306097Y-94443663D01*
X67375761Y-94593057D01*
X67405965Y-94657830D01*
X67405967Y-94657834D01*
X67493528Y-94782883D01*
X67541501Y-94851396D01*
X67541506Y-94851402D01*
X67708597Y-95018493D01*
X67708603Y-95018498D01*
X67894158Y-95148425D01*
X67937783Y-95203002D01*
X67944977Y-95272500D01*
X67913454Y-95334855D01*
X67894158Y-95351575D01*
X67708597Y-95481505D01*
X67541505Y-95648597D01*
X67405965Y-95842169D01*
X67405964Y-95842171D01*
X67306098Y-96056335D01*
X67306094Y-96056344D01*
X67244938Y-96284586D01*
X67244936Y-96284596D01*
X67224341Y-96519999D01*
X67224341Y-96520000D01*
X67244936Y-96755403D01*
X67244938Y-96755413D01*
X67306094Y-96983655D01*
X67306096Y-96983659D01*
X67306097Y-96983663D01*
X67310000Y-96992032D01*
X67405965Y-97197830D01*
X67405967Y-97197834D01*
X67493528Y-97322883D01*
X67541505Y-97391401D01*
X67708599Y-97558495D01*
X67789791Y-97615346D01*
X67902165Y-97694032D01*
X67902167Y-97694033D01*
X67902170Y-97694035D01*
X68116337Y-97793903D01*
X68344592Y-97855063D01*
X68532918Y-97871539D01*
X68579999Y-97875659D01*
X68580000Y-97875659D01*
X68580001Y-97875659D01*
X68619234Y-97872226D01*
X68815408Y-97855063D01*
X69043663Y-97793903D01*
X69073097Y-97780177D01*
X69142171Y-97769686D01*
X69205956Y-97798205D01*
X69244196Y-97856681D01*
X69249500Y-97892560D01*
X69249500Y-103001219D01*
X69229815Y-103068258D01*
X69199695Y-103098080D01*
X69200782Y-103099443D01*
X69195335Y-103103786D01*
X69067784Y-103231337D01*
X68971811Y-103384076D01*
X68912231Y-103554345D01*
X68912230Y-103554350D01*
X68892035Y-103733596D01*
X68892035Y-103733603D01*
X68912230Y-103912849D01*
X68912231Y-103912854D01*
X68971811Y-104083123D01*
X69007550Y-104140001D01*
X69067784Y-104235862D01*
X69195338Y-104363416D01*
X69245244Y-104394774D01*
X69341705Y-104455385D01*
X69348078Y-104459389D01*
X69511078Y-104516425D01*
X69518345Y-104518968D01*
X69518350Y-104518969D01*
X69574397Y-104525283D01*
X69624383Y-104530915D01*
X69688796Y-104557981D01*
X69728352Y-104615575D01*
X69734500Y-104654135D01*
X69734500Y-108476769D01*
X69714815Y-108543808D01*
X69698181Y-108564450D01*
X68779937Y-109482693D01*
X68743873Y-109505370D01*
X68744750Y-109507191D01*
X68738475Y-109510212D01*
X68585737Y-109606184D01*
X68458184Y-109733737D01*
X68362211Y-109886476D01*
X68302631Y-110056745D01*
X68302630Y-110056750D01*
X68282435Y-110235996D01*
X68282435Y-110236003D01*
X68302630Y-110415249D01*
X68302631Y-110415254D01*
X68362211Y-110585523D01*
X68447307Y-110720951D01*
X68458184Y-110738262D01*
X68585738Y-110865816D01*
X68738478Y-110961789D01*
X68908745Y-111021368D01*
X68908750Y-111021369D01*
X69087996Y-111041565D01*
X69088000Y-111041565D01*
X69088004Y-111041565D01*
X69267249Y-111021369D01*
X69267252Y-111021368D01*
X69267255Y-111021368D01*
X69437522Y-110961789D01*
X69590262Y-110865816D01*
X69717816Y-110738262D01*
X69813789Y-110585522D01*
X69813792Y-110585510D01*
X69816810Y-110579248D01*
X69818650Y-110580134D01*
X69841305Y-110544061D01*
X70488963Y-109896402D01*
X70550286Y-109862918D01*
X70619978Y-109867902D01*
X70664325Y-109896403D01*
X70744738Y-109976816D01*
X70749723Y-109979948D01*
X70796013Y-110032284D01*
X70806660Y-110101337D01*
X70778284Y-110165185D01*
X70771430Y-110172622D01*
X67566725Y-113377328D01*
X67566722Y-113377331D01*
X67535597Y-113423913D01*
X67535598Y-113423914D01*
X67495534Y-113483874D01*
X67446499Y-113602255D01*
X67446497Y-113602261D01*
X67421500Y-113727928D01*
X67421500Y-128342456D01*
X67401815Y-128409495D01*
X67396767Y-128416767D01*
X67336204Y-128497668D01*
X67336202Y-128497671D01*
X67285908Y-128632517D01*
X67279501Y-128692116D01*
X67279501Y-128692123D01*
X67279500Y-128692135D01*
X67279500Y-130387870D01*
X67279501Y-130387876D01*
X67285908Y-130447483D01*
X67336202Y-130582328D01*
X67336206Y-130582335D01*
X67422452Y-130697544D01*
X67422455Y-130697547D01*
X67537664Y-130783793D01*
X67537671Y-130783797D01*
X67548361Y-130787784D01*
X67672517Y-130834091D01*
X67707596Y-130837862D01*
X67772144Y-130864599D01*
X67811993Y-130921991D01*
X67814488Y-130991816D01*
X67778836Y-131051905D01*
X67765464Y-131062725D01*
X67740858Y-131079954D01*
X67579954Y-131240858D01*
X67449432Y-131427265D01*
X67449431Y-131427267D01*
X67353261Y-131633502D01*
X67353258Y-131633511D01*
X67294366Y-131853302D01*
X67294364Y-131853313D01*
X67274532Y-132079998D01*
X67274532Y-132080001D01*
X67294364Y-132306686D01*
X67294366Y-132306697D01*
X67353258Y-132526488D01*
X67353261Y-132526497D01*
X67449431Y-132732732D01*
X67449432Y-132732734D01*
X67579954Y-132919141D01*
X67740858Y-133080045D01*
X67771282Y-133101348D01*
X67927266Y-133210568D01*
X67985275Y-133237618D01*
X68037714Y-133283791D01*
X68056866Y-133350984D01*
X68036650Y-133417865D01*
X67985275Y-133462382D01*
X67927267Y-133489431D01*
X67927265Y-133489432D01*
X67740858Y-133619954D01*
X67579954Y-133780858D01*
X67449432Y-133967265D01*
X67449431Y-133967267D01*
X67353261Y-134173502D01*
X67353258Y-134173511D01*
X67294366Y-134393302D01*
X67294364Y-134393313D01*
X67274532Y-134619998D01*
X67274532Y-134620001D01*
X67294364Y-134846686D01*
X67294366Y-134846697D01*
X67353258Y-135066488D01*
X67353261Y-135066497D01*
X67449431Y-135272732D01*
X67449432Y-135272734D01*
X67579954Y-135459141D01*
X67740858Y-135620045D01*
X67740861Y-135620047D01*
X67927266Y-135750568D01*
X68133504Y-135846739D01*
X68353308Y-135905635D01*
X68515230Y-135919801D01*
X68579998Y-135925468D01*
X68580000Y-135925468D01*
X68580002Y-135925468D01*
X68636673Y-135920509D01*
X68806692Y-135905635D01*
X69026496Y-135846739D01*
X69232734Y-135750568D01*
X69419139Y-135620047D01*
X69580047Y-135459139D01*
X69710568Y-135272734D01*
X69806739Y-135066496D01*
X69865635Y-134846692D01*
X69885468Y-134620000D01*
X69865635Y-134393308D01*
X69839847Y-134297066D01*
X69841510Y-134227217D01*
X69871937Y-134177296D01*
X70062417Y-133986816D01*
X70123740Y-133953334D01*
X70150097Y-133950500D01*
X77129331Y-133950500D01*
X77129347Y-133950501D01*
X77136943Y-133950501D01*
X77295054Y-133950501D01*
X77295057Y-133950501D01*
X77447785Y-133909577D01*
X77497904Y-133880639D01*
X77584716Y-133830520D01*
X77696520Y-133718716D01*
X77696520Y-133718714D01*
X77706728Y-133708507D01*
X77706729Y-133708504D01*
X80490520Y-130924716D01*
X80569577Y-130787784D01*
X80610501Y-130635057D01*
X80610501Y-130476942D01*
X80610501Y-130469347D01*
X80610500Y-130469329D01*
X80610500Y-126649252D01*
X80617459Y-126608297D01*
X80671101Y-126454997D01*
X80671104Y-126454984D01*
X80691300Y-126275738D01*
X80691300Y-126275731D01*
X80684388Y-126214383D01*
X80696443Y-126145561D01*
X80743792Y-126094182D01*
X80807608Y-126076500D01*
X84295903Y-126076500D01*
X84362942Y-126096185D01*
X84383584Y-126112819D01*
X86993181Y-128722416D01*
X87026666Y-128783739D01*
X87029500Y-128810097D01*
X87029500Y-135803330D01*
X87029499Y-135803348D01*
X87029499Y-135969054D01*
X87029498Y-135969054D01*
X87070423Y-136121787D01*
X87070424Y-136121788D01*
X87092198Y-136159501D01*
X87149475Y-136258709D01*
X87149481Y-136258717D01*
X87268349Y-136377585D01*
X87268355Y-136377590D01*
X87567233Y-136676468D01*
X87600718Y-136737791D01*
X87599327Y-136796241D01*
X87564939Y-136924583D01*
X87564936Y-136924596D01*
X87544341Y-137159999D01*
X87544341Y-137160000D01*
X87564936Y-137395403D01*
X87564938Y-137395413D01*
X87626094Y-137623655D01*
X87626096Y-137623659D01*
X87626097Y-137623663D01*
X87630000Y-137632032D01*
X87725965Y-137837830D01*
X87725967Y-137837834D01*
X87815406Y-137965565D01*
X87861505Y-138031401D01*
X88028599Y-138198495D01*
X88125384Y-138266265D01*
X88222165Y-138334032D01*
X88222167Y-138334033D01*
X88222170Y-138334035D01*
X88436337Y-138433903D01*
X88664592Y-138495063D01*
X88852918Y-138511539D01*
X88899999Y-138515659D01*
X88900000Y-138515659D01*
X88900001Y-138515659D01*
X88939234Y-138512226D01*
X89135408Y-138495063D01*
X89363663Y-138433903D01*
X89577830Y-138334035D01*
X89771401Y-138198495D01*
X89938495Y-138031401D01*
X90068425Y-137845842D01*
X90123002Y-137802217D01*
X90192500Y-137795023D01*
X90254855Y-137826546D01*
X90271575Y-137845842D01*
X90401500Y-138031395D01*
X90401505Y-138031401D01*
X90568599Y-138198495D01*
X90665384Y-138266265D01*
X90762165Y-138334032D01*
X90762167Y-138334033D01*
X90762170Y-138334035D01*
X90976337Y-138433903D01*
X91204592Y-138495063D01*
X91392918Y-138511539D01*
X91439999Y-138515659D01*
X91440000Y-138515659D01*
X91440001Y-138515659D01*
X91479234Y-138512226D01*
X91675408Y-138495063D01*
X91903663Y-138433903D01*
X92117830Y-138334035D01*
X92311401Y-138198495D01*
X92478495Y-138031401D01*
X92614035Y-137837830D01*
X92713903Y-137623663D01*
X92775063Y-137395408D01*
X92795659Y-137160000D01*
X92775063Y-136924592D01*
X92713903Y-136696337D01*
X92614035Y-136482171D01*
X92540804Y-136377585D01*
X92478494Y-136288597D01*
X92311402Y-136121506D01*
X92311396Y-136121501D01*
X92125842Y-135991575D01*
X92082217Y-135936998D01*
X92075023Y-135867500D01*
X92106546Y-135805145D01*
X92125842Y-135788425D01*
X92179909Y-135750567D01*
X92311401Y-135658495D01*
X92478495Y-135491401D01*
X92614035Y-135297830D01*
X92713903Y-135083663D01*
X92775063Y-134855408D01*
X92795659Y-134620000D01*
X92775063Y-134384592D01*
X92740671Y-134256239D01*
X92742334Y-134186393D01*
X92772763Y-134136470D01*
X93230506Y-133678728D01*
X93230511Y-133678724D01*
X93240714Y-133668520D01*
X93240716Y-133668520D01*
X93352520Y-133556716D01*
X93401655Y-133471610D01*
X93426222Y-133429060D01*
X93426223Y-133429059D01*
X93428395Y-133425295D01*
X93431577Y-133419785D01*
X93472501Y-133267057D01*
X93472501Y-133108943D01*
X93472501Y-133101348D01*
X93472500Y-133101330D01*
X93472500Y-129801478D01*
X93489112Y-129739479D01*
X93523577Y-129679785D01*
X93564501Y-129527058D01*
X93564501Y-129368943D01*
X93523577Y-129216216D01*
X93489112Y-129156521D01*
X93472500Y-129094522D01*
X93472500Y-128217412D01*
X93492185Y-128150373D01*
X93499555Y-128140097D01*
X93501810Y-128137267D01*
X93501816Y-128137262D01*
X93597789Y-127984522D01*
X93657368Y-127814255D01*
X93657602Y-127812181D01*
X93677565Y-127635003D01*
X93677565Y-127634996D01*
X93657369Y-127455750D01*
X93657368Y-127455745D01*
X93617417Y-127341573D01*
X93597789Y-127285478D01*
X93501816Y-127132738D01*
X93374262Y-127005184D01*
X93301679Y-126959577D01*
X93221523Y-126909211D01*
X93051254Y-126849631D01*
X93051249Y-126849630D01*
X92985689Y-126842244D01*
X92921275Y-126815178D01*
X92881720Y-126757583D01*
X92879582Y-126687746D01*
X92911891Y-126631343D01*
X92941747Y-126601487D01*
X93698520Y-125844716D01*
X93777577Y-125707784D01*
X93818501Y-125555057D01*
X93818501Y-125396942D01*
X93818501Y-125389347D01*
X93818500Y-125389329D01*
X93818500Y-117406711D01*
X93838185Y-117339672D01*
X93890989Y-117293917D01*
X93960147Y-117283973D01*
X94023703Y-117312998D01*
X94054880Y-117354304D01*
X94108745Y-117469816D01*
X94119431Y-117492732D01*
X94119432Y-117492734D01*
X94249954Y-117679141D01*
X94410858Y-117840045D01*
X94410861Y-117840047D01*
X94597266Y-117970568D01*
X94803504Y-118066739D01*
X95023308Y-118125635D01*
X95185230Y-118139801D01*
X95249998Y-118145468D01*
X95250000Y-118145468D01*
X95250002Y-118145468D01*
X95306673Y-118140509D01*
X95476692Y-118125635D01*
X95696496Y-118066739D01*
X95902734Y-117970568D01*
X96089139Y-117840047D01*
X96250047Y-117679139D01*
X96380568Y-117492734D01*
X96476739Y-117286496D01*
X96535635Y-117066692D01*
X96555468Y-116840000D01*
X96535635Y-116613308D01*
X96476739Y-116393504D01*
X96380568Y-116187266D01*
X96250047Y-116000861D01*
X96250045Y-116000858D01*
X96089141Y-115839954D01*
X95902734Y-115709432D01*
X95902732Y-115709431D01*
X95696497Y-115613261D01*
X95696488Y-115613258D01*
X95476697Y-115554366D01*
X95476693Y-115554365D01*
X95476692Y-115554365D01*
X95476691Y-115554364D01*
X95476686Y-115554364D01*
X95250002Y-115534532D01*
X95249998Y-115534532D01*
X95023313Y-115554364D01*
X95023302Y-115554366D01*
X94803511Y-115613258D01*
X94803502Y-115613261D01*
X94597267Y-115709431D01*
X94597265Y-115709432D01*
X94410858Y-115839954D01*
X94249954Y-116000858D01*
X94119432Y-116187265D01*
X94119431Y-116187267D01*
X94054882Y-116325693D01*
X94008709Y-116378132D01*
X93941516Y-116397284D01*
X93874635Y-116377068D01*
X93829300Y-116323903D01*
X93818500Y-116273288D01*
X93818500Y-106778097D01*
X93838185Y-106711058D01*
X93890989Y-106665303D01*
X93960147Y-106655359D01*
X94023703Y-106684384D01*
X94030176Y-106690411D01*
X94500284Y-107160520D01*
X94500286Y-107160521D01*
X94500290Y-107160524D01*
X94637209Y-107239573D01*
X94637216Y-107239577D01*
X94789943Y-107280501D01*
X94789945Y-107280501D01*
X94955654Y-107280501D01*
X94955670Y-107280500D01*
X97828308Y-107280500D01*
X97895347Y-107300185D01*
X97929880Y-107333374D01*
X98007848Y-107444724D01*
X98059954Y-107519141D01*
X98220858Y-107680045D01*
X98220861Y-107680047D01*
X98407266Y-107810568D01*
X98465275Y-107837618D01*
X98517714Y-107883791D01*
X98536866Y-107950984D01*
X98516650Y-108017865D01*
X98465275Y-108062382D01*
X98407267Y-108089431D01*
X98407265Y-108089432D01*
X98220858Y-108219954D01*
X98059954Y-108380858D01*
X97929432Y-108567265D01*
X97929431Y-108567267D01*
X97833261Y-108773502D01*
X97833258Y-108773511D01*
X97774366Y-108993302D01*
X97774364Y-108993313D01*
X97754532Y-109219998D01*
X97754532Y-109220001D01*
X97774364Y-109446686D01*
X97774366Y-109446697D01*
X97833258Y-109666488D01*
X97833261Y-109666497D01*
X97929431Y-109872732D01*
X97929432Y-109872734D01*
X98059954Y-110059141D01*
X98220858Y-110220045D01*
X98220861Y-110220047D01*
X98407266Y-110350568D01*
X98465275Y-110377618D01*
X98517714Y-110423791D01*
X98536866Y-110490984D01*
X98516650Y-110557865D01*
X98465275Y-110602382D01*
X98407267Y-110629431D01*
X98407265Y-110629432D01*
X98220858Y-110759954D01*
X98059954Y-110920858D01*
X97929432Y-111107265D01*
X97929431Y-111107267D01*
X97833261Y-111313502D01*
X97833258Y-111313511D01*
X97774366Y-111533302D01*
X97774364Y-111533313D01*
X97754532Y-111759998D01*
X97754532Y-111760001D01*
X97774364Y-111986686D01*
X97774366Y-111986697D01*
X97833258Y-112206488D01*
X97833261Y-112206497D01*
X97929431Y-112412732D01*
X97929432Y-112412734D01*
X98059954Y-112599141D01*
X98220858Y-112760045D01*
X98220861Y-112760047D01*
X98407266Y-112890568D01*
X98465275Y-112917618D01*
X98517714Y-112963791D01*
X98536866Y-113030984D01*
X98516650Y-113097865D01*
X98465275Y-113142382D01*
X98407267Y-113169431D01*
X98407265Y-113169432D01*
X98220858Y-113299954D01*
X98059954Y-113460858D01*
X97929432Y-113647265D01*
X97929431Y-113647267D01*
X97833261Y-113853502D01*
X97833258Y-113853511D01*
X97774366Y-114073302D01*
X97774364Y-114073313D01*
X97754532Y-114299998D01*
X97754532Y-114300001D01*
X97774364Y-114526686D01*
X97774366Y-114526697D01*
X97833258Y-114746488D01*
X97833261Y-114746497D01*
X97929431Y-114952732D01*
X97929432Y-114952734D01*
X98059954Y-115139141D01*
X98220858Y-115300045D01*
X98220861Y-115300047D01*
X98407266Y-115430568D01*
X98465275Y-115457618D01*
X98517714Y-115503791D01*
X98536866Y-115570984D01*
X98516650Y-115637865D01*
X98465275Y-115682382D01*
X98407267Y-115709431D01*
X98407265Y-115709432D01*
X98220858Y-115839954D01*
X98059954Y-116000858D01*
X97929432Y-116187265D01*
X97929431Y-116187267D01*
X97833261Y-116393502D01*
X97833258Y-116393511D01*
X97774366Y-116613302D01*
X97774364Y-116613313D01*
X97754532Y-116839998D01*
X97754532Y-116840001D01*
X97774364Y-117066686D01*
X97774366Y-117066697D01*
X97833258Y-117286488D01*
X97833261Y-117286497D01*
X97929431Y-117492732D01*
X97929432Y-117492734D01*
X98059954Y-117679141D01*
X98220858Y-117840045D01*
X98220861Y-117840047D01*
X98407266Y-117970568D01*
X98465275Y-117997618D01*
X98517714Y-118043791D01*
X98536866Y-118110984D01*
X98516650Y-118177865D01*
X98465275Y-118222382D01*
X98407267Y-118249431D01*
X98407265Y-118249432D01*
X98220858Y-118379954D01*
X98059954Y-118540858D01*
X97929432Y-118727265D01*
X97929431Y-118727267D01*
X97833261Y-118933502D01*
X97833258Y-118933511D01*
X97774366Y-119153302D01*
X97774364Y-119153313D01*
X97754532Y-119379998D01*
X97754532Y-119380001D01*
X97774364Y-119606686D01*
X97774366Y-119606697D01*
X97833258Y-119826488D01*
X97833261Y-119826497D01*
X97929431Y-120032732D01*
X97929432Y-120032734D01*
X98059954Y-120219141D01*
X98220858Y-120380045D01*
X98220861Y-120380047D01*
X98407266Y-120510568D01*
X98465275Y-120537618D01*
X98517714Y-120583791D01*
X98536866Y-120650984D01*
X98516650Y-120717865D01*
X98465275Y-120762382D01*
X98407267Y-120789431D01*
X98407265Y-120789432D01*
X98220858Y-120919954D01*
X98059954Y-121080858D01*
X97929432Y-121267265D01*
X97929431Y-121267267D01*
X97833261Y-121473502D01*
X97833258Y-121473511D01*
X97774366Y-121693302D01*
X97774364Y-121693313D01*
X97754532Y-121919998D01*
X97754532Y-121920001D01*
X97774364Y-122146686D01*
X97774366Y-122146697D01*
X97833258Y-122366488D01*
X97833261Y-122366497D01*
X97929431Y-122572732D01*
X97929432Y-122572734D01*
X98059954Y-122759141D01*
X98220858Y-122920045D01*
X98220861Y-122920047D01*
X98407266Y-123050568D01*
X98465275Y-123077618D01*
X98517714Y-123123791D01*
X98536866Y-123190984D01*
X98516650Y-123257865D01*
X98465275Y-123302382D01*
X98407267Y-123329431D01*
X98407265Y-123329432D01*
X98220858Y-123459954D01*
X98059954Y-123620858D01*
X97929432Y-123807265D01*
X97929431Y-123807267D01*
X97833261Y-124013502D01*
X97833258Y-124013511D01*
X97774366Y-124233302D01*
X97774364Y-124233313D01*
X97754532Y-124459998D01*
X97754532Y-124460001D01*
X97774364Y-124686686D01*
X97774366Y-124686697D01*
X97833258Y-124906488D01*
X97833261Y-124906497D01*
X97929431Y-125112732D01*
X97929432Y-125112734D01*
X98059954Y-125299141D01*
X98220858Y-125460045D01*
X98220861Y-125460047D01*
X98407266Y-125590568D01*
X98465275Y-125617618D01*
X98517714Y-125663791D01*
X98536866Y-125730984D01*
X98516650Y-125797865D01*
X98465275Y-125842381D01*
X98460267Y-125844717D01*
X98407267Y-125869431D01*
X98407265Y-125869432D01*
X98220858Y-125999954D01*
X98059954Y-126160858D01*
X97929432Y-126347265D01*
X97929431Y-126347267D01*
X97833261Y-126553502D01*
X97833258Y-126553511D01*
X97774366Y-126773302D01*
X97774364Y-126773313D01*
X97754532Y-126999998D01*
X97754532Y-127000001D01*
X97774364Y-127226686D01*
X97774366Y-127226697D01*
X97833258Y-127446488D01*
X97833261Y-127446497D01*
X97929431Y-127652732D01*
X97929432Y-127652734D01*
X98059954Y-127839141D01*
X98220858Y-128000045D01*
X98220861Y-128000047D01*
X98407266Y-128130568D01*
X98430251Y-128141286D01*
X98465275Y-128157618D01*
X98517714Y-128203791D01*
X98536866Y-128270984D01*
X98516650Y-128337865D01*
X98465275Y-128382381D01*
X98465118Y-128382455D01*
X98407267Y-128409431D01*
X98407265Y-128409432D01*
X98220858Y-128539954D01*
X98059954Y-128700858D01*
X97929432Y-128887265D01*
X97929431Y-128887267D01*
X97833261Y-129093502D01*
X97833258Y-129093511D01*
X97774366Y-129313302D01*
X97774364Y-129313313D01*
X97754532Y-129539998D01*
X97754532Y-129540001D01*
X97774364Y-129766686D01*
X97774366Y-129766697D01*
X97833258Y-129986488D01*
X97833261Y-129986497D01*
X97929431Y-130192732D01*
X97929432Y-130192734D01*
X98059954Y-130379141D01*
X98220858Y-130540045D01*
X98220861Y-130540047D01*
X98407266Y-130670568D01*
X98465275Y-130697618D01*
X98517714Y-130743791D01*
X98536866Y-130810984D01*
X98516650Y-130877865D01*
X98465275Y-130922381D01*
X98460267Y-130924717D01*
X98407267Y-130949431D01*
X98407265Y-130949432D01*
X98220858Y-131079954D01*
X98059954Y-131240858D01*
X97929432Y-131427265D01*
X97929431Y-131427267D01*
X97833261Y-131633502D01*
X97833258Y-131633511D01*
X97774366Y-131853302D01*
X97774364Y-131853313D01*
X97754532Y-132079998D01*
X97754532Y-132080001D01*
X97774364Y-132306686D01*
X97774366Y-132306697D01*
X97833258Y-132526488D01*
X97833261Y-132526497D01*
X97929431Y-132732732D01*
X97929432Y-132732734D01*
X98059954Y-132919141D01*
X98220858Y-133080045D01*
X98251282Y-133101348D01*
X98407266Y-133210568D01*
X98465275Y-133237618D01*
X98517714Y-133283791D01*
X98536866Y-133350984D01*
X98516650Y-133417865D01*
X98465275Y-133462382D01*
X98407267Y-133489431D01*
X98407265Y-133489432D01*
X98220858Y-133619954D01*
X98059954Y-133780858D01*
X97929432Y-133967265D01*
X97929431Y-133967267D01*
X97833261Y-134173502D01*
X97833258Y-134173511D01*
X97774366Y-134393302D01*
X97774364Y-134393313D01*
X97754532Y-134619998D01*
X97754532Y-134620001D01*
X97774364Y-134846686D01*
X97774366Y-134846697D01*
X97833258Y-135066488D01*
X97833261Y-135066497D01*
X97929431Y-135272732D01*
X97929432Y-135272734D01*
X98059954Y-135459141D01*
X98220858Y-135620045D01*
X98220861Y-135620047D01*
X98407266Y-135750568D01*
X98613504Y-135846739D01*
X98833308Y-135905635D01*
X98995230Y-135919801D01*
X99059998Y-135925468D01*
X99060000Y-135925468D01*
X99060002Y-135925468D01*
X99116673Y-135920509D01*
X99286692Y-135905635D01*
X99506496Y-135846739D01*
X99712734Y-135750568D01*
X99899139Y-135620047D01*
X100060047Y-135459139D01*
X100190568Y-135272734D01*
X100286739Y-135066496D01*
X100345635Y-134846692D01*
X100357544Y-134710566D01*
X100382996Y-134645499D01*
X100418469Y-134619812D01*
X100389887Y-134602656D01*
X100358931Y-134540018D01*
X100357544Y-134529431D01*
X100345635Y-134393308D01*
X100286739Y-134173504D01*
X100190568Y-133967266D01*
X100060047Y-133780861D01*
X100060045Y-133780858D01*
X99899141Y-133619954D01*
X99712734Y-133489432D01*
X99712728Y-133489429D01*
X99654725Y-133462382D01*
X99602285Y-133416210D01*
X99583133Y-133349017D01*
X99603348Y-133282135D01*
X99654725Y-133237618D01*
X99712734Y-133210568D01*
X99899139Y-133080047D01*
X100060047Y-132919139D01*
X100190568Y-132732734D01*
X100286739Y-132526496D01*
X100345635Y-132306692D01*
X100365468Y-132080000D01*
X100345635Y-131853308D01*
X100286739Y-131633504D01*
X100190568Y-131427266D01*
X100060047Y-131240861D01*
X100060045Y-131240858D01*
X99899141Y-131079954D01*
X99712734Y-130949432D01*
X99712728Y-130949429D01*
X99685038Y-130936517D01*
X99654724Y-130922381D01*
X99602285Y-130876210D01*
X99583133Y-130809017D01*
X99603348Y-130742135D01*
X99654725Y-130697618D01*
X99712734Y-130670568D01*
X99899139Y-130540047D01*
X100060047Y-130379139D01*
X100190568Y-130192734D01*
X100286739Y-129986496D01*
X100345635Y-129766692D01*
X100365468Y-129540000D01*
X100345635Y-129313308D01*
X100286739Y-129093504D01*
X100190568Y-128887266D01*
X100060047Y-128700861D01*
X100060045Y-128700858D01*
X99899141Y-128539954D01*
X99712734Y-128409432D01*
X99712728Y-128409429D01*
X99654882Y-128382455D01*
X99654724Y-128382381D01*
X99602285Y-128336210D01*
X99583133Y-128269017D01*
X99603348Y-128202135D01*
X99654725Y-128157618D01*
X99670262Y-128150373D01*
X99712734Y-128130568D01*
X99899139Y-128000047D01*
X100060047Y-127839139D01*
X100190568Y-127652734D01*
X100286739Y-127446496D01*
X100345635Y-127226692D01*
X100363525Y-127022213D01*
X100365468Y-127000001D01*
X100365468Y-126999998D01*
X100352303Y-126849522D01*
X100345635Y-126773308D01*
X100286739Y-126553504D01*
X100190568Y-126347266D01*
X100060047Y-126160861D01*
X100060045Y-126160858D01*
X99899141Y-125999954D01*
X99712734Y-125869432D01*
X99712728Y-125869429D01*
X99685038Y-125856517D01*
X99654724Y-125842381D01*
X99602285Y-125796210D01*
X99583133Y-125729017D01*
X99603348Y-125662135D01*
X99654725Y-125617618D01*
X99712734Y-125590568D01*
X99899139Y-125460047D01*
X100060047Y-125299139D01*
X100190568Y-125112734D01*
X100286739Y-124906496D01*
X100345635Y-124686692D01*
X100365468Y-124460000D01*
X100363175Y-124433796D01*
X100356869Y-124361713D01*
X100345635Y-124233308D01*
X100293268Y-124037870D01*
X100286741Y-124013511D01*
X100286738Y-124013502D01*
X100190568Y-123807266D01*
X100060047Y-123620861D01*
X100060045Y-123620858D01*
X99899141Y-123459954D01*
X99712734Y-123329432D01*
X99712728Y-123329429D01*
X99654725Y-123302382D01*
X99602285Y-123256210D01*
X99583133Y-123189017D01*
X99603348Y-123122135D01*
X99654725Y-123077618D01*
X99712734Y-123050568D01*
X99899139Y-122920047D01*
X100060047Y-122759139D01*
X100107396Y-122691515D01*
X100161973Y-122647890D01*
X100231471Y-122640696D01*
X100249927Y-122645597D01*
X100420737Y-122705366D01*
X100420743Y-122705367D01*
X100420745Y-122705368D01*
X100420746Y-122705368D01*
X100420750Y-122705369D01*
X100599996Y-122725565D01*
X100600000Y-122725565D01*
X100600001Y-122725565D01*
X100608324Y-122724627D01*
X100661617Y-122718622D01*
X100730437Y-122730676D01*
X100781817Y-122778024D01*
X100799500Y-122841842D01*
X100799500Y-134037587D01*
X100779815Y-134104626D01*
X100772450Y-134114896D01*
X100770186Y-134117734D01*
X100674211Y-134270476D01*
X100614631Y-134440745D01*
X100614630Y-134440749D01*
X100604292Y-134532508D01*
X100577225Y-134596922D01*
X100543566Y-134620037D01*
X100570133Y-134635096D01*
X100602641Y-134696942D01*
X100604292Y-134707491D01*
X100614630Y-134799250D01*
X100614631Y-134799254D01*
X100674211Y-134969523D01*
X100745931Y-135083664D01*
X100770184Y-135122262D01*
X100897738Y-135249816D01*
X101050478Y-135345789D01*
X101200497Y-135398283D01*
X101220745Y-135405368D01*
X101220750Y-135405369D01*
X101399996Y-135425565D01*
X101400000Y-135425565D01*
X101400001Y-135425565D01*
X101408324Y-135424627D01*
X101461617Y-135418622D01*
X101530437Y-135430676D01*
X101581817Y-135478024D01*
X101599500Y-135541842D01*
X101599500Y-136577587D01*
X101579815Y-136644626D01*
X101572450Y-136654896D01*
X101570186Y-136657734D01*
X101474211Y-136810476D01*
X101414631Y-136980745D01*
X101414630Y-136980750D01*
X101394435Y-137159996D01*
X101394435Y-137160003D01*
X101414630Y-137339249D01*
X101414631Y-137339254D01*
X101474211Y-137509523D01*
X101545931Y-137623664D01*
X101570184Y-137662262D01*
X101697738Y-137789816D01*
X101850478Y-137885789D01*
X102020745Y-137945368D01*
X102020750Y-137945369D01*
X102199996Y-137965565D01*
X102200000Y-137965565D01*
X102200004Y-137965565D01*
X102379249Y-137945369D01*
X102379252Y-137945368D01*
X102379255Y-137945368D01*
X102549522Y-137885789D01*
X102702262Y-137789816D01*
X102829816Y-137662262D01*
X102925789Y-137509522D01*
X102985368Y-137339255D01*
X103005565Y-137160000D01*
X102985368Y-136980745D01*
X102925789Y-136810478D01*
X102829816Y-136657738D01*
X102829814Y-136657736D01*
X102829813Y-136657734D01*
X102827550Y-136654896D01*
X102826659Y-136652715D01*
X102826111Y-136651842D01*
X102826264Y-136651745D01*
X102801144Y-136590209D01*
X102800500Y-136577587D01*
X102800500Y-124757114D01*
X102820185Y-124690075D01*
X102872989Y-124644320D01*
X102942147Y-124634376D01*
X103005703Y-124663401D01*
X103041542Y-124716160D01*
X103074210Y-124809521D01*
X103074211Y-124809522D01*
X103170184Y-124962262D01*
X103297738Y-125089816D01*
X103450478Y-125185789D01*
X103569007Y-125227264D01*
X103620745Y-125245368D01*
X103620750Y-125245369D01*
X103799996Y-125265565D01*
X103800000Y-125265565D01*
X103800001Y-125265565D01*
X103808324Y-125264627D01*
X103861617Y-125258622D01*
X103930437Y-125270676D01*
X103981817Y-125318024D01*
X103999500Y-125381842D01*
X103999500Y-131497587D01*
X103979815Y-131564626D01*
X103972450Y-131574896D01*
X103970186Y-131577734D01*
X103874211Y-131730476D01*
X103814631Y-131900745D01*
X103814630Y-131900750D01*
X103794435Y-132079996D01*
X103794435Y-132080003D01*
X103814630Y-132259249D01*
X103814631Y-132259254D01*
X103874211Y-132429523D01*
X103935139Y-132526488D01*
X103970184Y-132582262D01*
X104097738Y-132709816D01*
X104250478Y-132805789D01*
X104400497Y-132858283D01*
X104420745Y-132865368D01*
X104420750Y-132865369D01*
X104599996Y-132885565D01*
X104600000Y-132885565D01*
X104600004Y-132885565D01*
X104779249Y-132865369D01*
X104779252Y-132865368D01*
X104779255Y-132865368D01*
X104949522Y-132805789D01*
X105102262Y-132709816D01*
X105229816Y-132582262D01*
X105325789Y-132429522D01*
X105385368Y-132259255D01*
X105385369Y-132259249D01*
X105405565Y-132080003D01*
X105405565Y-132079996D01*
X105385369Y-131900750D01*
X105385368Y-131900745D01*
X105325788Y-131730476D01*
X105292645Y-131677730D01*
X105229816Y-131577738D01*
X105229814Y-131577736D01*
X105229813Y-131577734D01*
X105227550Y-131574896D01*
X105226659Y-131572715D01*
X105226111Y-131571842D01*
X105226264Y-131571745D01*
X105201144Y-131510209D01*
X105200500Y-131497587D01*
X105200500Y-130461842D01*
X105220185Y-130394803D01*
X105272989Y-130349048D01*
X105338382Y-130338622D01*
X105391675Y-130344627D01*
X105399999Y-130345565D01*
X105400000Y-130345565D01*
X105400004Y-130345565D01*
X105579249Y-130325369D01*
X105579252Y-130325368D01*
X105579255Y-130325368D01*
X105749522Y-130265789D01*
X105902262Y-130169816D01*
X106029816Y-130042262D01*
X106125789Y-129889522D01*
X106185368Y-129719255D01*
X106205565Y-129540000D01*
X106185368Y-129360745D01*
X106125789Y-129190478D01*
X106029816Y-129037738D01*
X106029814Y-129037736D01*
X106029813Y-129037734D01*
X106027550Y-129034896D01*
X106026659Y-129032715D01*
X106026111Y-129031842D01*
X106026264Y-129031745D01*
X106001144Y-128970209D01*
X106000500Y-128957587D01*
X106000500Y-127921842D01*
X106020185Y-127854803D01*
X106072989Y-127809048D01*
X106138382Y-127798622D01*
X106191675Y-127804627D01*
X106199999Y-127805565D01*
X106200000Y-127805565D01*
X106200004Y-127805565D01*
X106379249Y-127785369D01*
X106379252Y-127785368D01*
X106379255Y-127785368D01*
X106549522Y-127725789D01*
X106702262Y-127629816D01*
X106829816Y-127502262D01*
X106895007Y-127398510D01*
X106947341Y-127352221D01*
X107016394Y-127341573D01*
X107080243Y-127369948D01*
X107104992Y-127398509D01*
X107170184Y-127502262D01*
X107297738Y-127629816D01*
X107450478Y-127725789D01*
X107600497Y-127778283D01*
X107620745Y-127785368D01*
X107620750Y-127785369D01*
X107799996Y-127805565D01*
X107800000Y-127805565D01*
X107800001Y-127805565D01*
X107808324Y-127804627D01*
X107861617Y-127798622D01*
X107930437Y-127810676D01*
X107981817Y-127858024D01*
X107999500Y-127921842D01*
X107999500Y-128957587D01*
X107979815Y-129024626D01*
X107972450Y-129034896D01*
X107970186Y-129037734D01*
X107874211Y-129190476D01*
X107814631Y-129360745D01*
X107814630Y-129360750D01*
X107794435Y-129539996D01*
X107794435Y-129540003D01*
X107814630Y-129719249D01*
X107814631Y-129719254D01*
X107874211Y-129889523D01*
X107935139Y-129986488D01*
X107970184Y-130042262D01*
X108097738Y-130169816D01*
X108188080Y-130226582D01*
X108243903Y-130261658D01*
X108250478Y-130265789D01*
X108321098Y-130290500D01*
X108420745Y-130325368D01*
X108420750Y-130325369D01*
X108599996Y-130345565D01*
X108600000Y-130345565D01*
X108600004Y-130345565D01*
X108779249Y-130325369D01*
X108779252Y-130325368D01*
X108779255Y-130325368D01*
X108949522Y-130265789D01*
X109102262Y-130169816D01*
X109229816Y-130042262D01*
X109325789Y-129889522D01*
X109385368Y-129719255D01*
X109405565Y-129540000D01*
X109385368Y-129360745D01*
X109325789Y-129190478D01*
X109229816Y-129037738D01*
X109229814Y-129037736D01*
X109229813Y-129037734D01*
X109227550Y-129034896D01*
X109226659Y-129032715D01*
X109226111Y-129031842D01*
X109226264Y-129031745D01*
X109201144Y-128970209D01*
X109200500Y-128957587D01*
X109200500Y-114597114D01*
X109220185Y-114530075D01*
X109272989Y-114484320D01*
X109342147Y-114474376D01*
X109405703Y-114503401D01*
X109441542Y-114556160D01*
X109474210Y-114649521D01*
X109474211Y-114649522D01*
X109570184Y-114802262D01*
X109697738Y-114929816D01*
X109788080Y-114986582D01*
X109848943Y-115024825D01*
X109850478Y-115025789D01*
X110000497Y-115078283D01*
X110020745Y-115085368D01*
X110020750Y-115085369D01*
X110199996Y-115105565D01*
X110200000Y-115105565D01*
X110200001Y-115105565D01*
X110208324Y-115104627D01*
X110261617Y-115098622D01*
X110330437Y-115110676D01*
X110381817Y-115158024D01*
X110399500Y-115221842D01*
X110399500Y-131497587D01*
X110379815Y-131564626D01*
X110372450Y-131574896D01*
X110370186Y-131577734D01*
X110274211Y-131730476D01*
X110214631Y-131900745D01*
X110214630Y-131900750D01*
X110194435Y-132079996D01*
X110194435Y-132080003D01*
X110214630Y-132259249D01*
X110214631Y-132259254D01*
X110274211Y-132429523D01*
X110335139Y-132526488D01*
X110370184Y-132582262D01*
X110497738Y-132709816D01*
X110650478Y-132805789D01*
X110800497Y-132858283D01*
X110820745Y-132865368D01*
X110820750Y-132865369D01*
X110999996Y-132885565D01*
X111000000Y-132885565D01*
X111000001Y-132885565D01*
X111008324Y-132884627D01*
X111061617Y-132878622D01*
X111130437Y-132890676D01*
X111181817Y-132938024D01*
X111199500Y-133001842D01*
X111199500Y-134037587D01*
X111179815Y-134104626D01*
X111172450Y-134114896D01*
X111170186Y-134117734D01*
X111074211Y-134270476D01*
X111014631Y-134440745D01*
X111014630Y-134440750D01*
X110994435Y-134619996D01*
X110994435Y-134620003D01*
X111014630Y-134799249D01*
X111014631Y-134799254D01*
X111074211Y-134969523D01*
X111145931Y-135083664D01*
X111170184Y-135122262D01*
X111297738Y-135249816D01*
X111450478Y-135345789D01*
X111600497Y-135398283D01*
X111620745Y-135405368D01*
X111620750Y-135405369D01*
X111799996Y-135425565D01*
X111800000Y-135425565D01*
X111800004Y-135425565D01*
X111979249Y-135405369D01*
X111979252Y-135405368D01*
X111979255Y-135405368D01*
X112149522Y-135345789D01*
X112302262Y-135249816D01*
X112429816Y-135122262D01*
X112525789Y-134969522D01*
X112585368Y-134799255D01*
X112595361Y-134710568D01*
X112605565Y-134620003D01*
X112605565Y-134619996D01*
X112585369Y-134440750D01*
X112585368Y-134440745D01*
X112565719Y-134384592D01*
X112525789Y-134270478D01*
X112499045Y-134227916D01*
X112472955Y-134186393D01*
X112429816Y-134117738D01*
X112429814Y-134117736D01*
X112429813Y-134117734D01*
X112427550Y-134114896D01*
X112426659Y-134112715D01*
X112426111Y-134111842D01*
X112426264Y-134111745D01*
X112401144Y-134050209D01*
X112400500Y-134037587D01*
X112400500Y-126999998D01*
X112994532Y-126999998D01*
X112994532Y-127000001D01*
X113014364Y-127226686D01*
X113014366Y-127226697D01*
X113073258Y-127446488D01*
X113073261Y-127446497D01*
X113169431Y-127652732D01*
X113169432Y-127652734D01*
X113299954Y-127839141D01*
X113460858Y-128000045D01*
X113460861Y-128000047D01*
X113647266Y-128130568D01*
X113670251Y-128141286D01*
X113705275Y-128157618D01*
X113757714Y-128203791D01*
X113776866Y-128270984D01*
X113756650Y-128337865D01*
X113705275Y-128382381D01*
X113705118Y-128382455D01*
X113647267Y-128409431D01*
X113647265Y-128409432D01*
X113460858Y-128539954D01*
X113299954Y-128700858D01*
X113169432Y-128887265D01*
X113169431Y-128887267D01*
X113073261Y-129093502D01*
X113073258Y-129093511D01*
X113014366Y-129313302D01*
X113014364Y-129313313D01*
X112994532Y-129539998D01*
X112994532Y-129540001D01*
X113014364Y-129766686D01*
X113014366Y-129766697D01*
X113073258Y-129986488D01*
X113073261Y-129986497D01*
X113169431Y-130192732D01*
X113169432Y-130192734D01*
X113299954Y-130379141D01*
X113460858Y-130540045D01*
X113460861Y-130540047D01*
X113647266Y-130670568D01*
X113705275Y-130697618D01*
X113757714Y-130743791D01*
X113776866Y-130810984D01*
X113756650Y-130877865D01*
X113705275Y-130922381D01*
X113700267Y-130924717D01*
X113647267Y-130949431D01*
X113647265Y-130949432D01*
X113460858Y-131079954D01*
X113299954Y-131240858D01*
X113169432Y-131427265D01*
X113169431Y-131427267D01*
X113073261Y-131633502D01*
X113073258Y-131633511D01*
X113014366Y-131853302D01*
X113014364Y-131853313D01*
X112994532Y-132079998D01*
X112994532Y-132080001D01*
X113014364Y-132306686D01*
X113014366Y-132306697D01*
X113073258Y-132526488D01*
X113073261Y-132526497D01*
X113169431Y-132732732D01*
X113169432Y-132732734D01*
X113299954Y-132919141D01*
X113460858Y-133080045D01*
X113491282Y-133101348D01*
X113647266Y-133210568D01*
X113705275Y-133237618D01*
X113757714Y-133283791D01*
X113776866Y-133350984D01*
X113756650Y-133417865D01*
X113705275Y-133462382D01*
X113647267Y-133489431D01*
X113647265Y-133489432D01*
X113460858Y-133619954D01*
X113299954Y-133780858D01*
X113169432Y-133967265D01*
X113169431Y-133967267D01*
X113073261Y-134173502D01*
X113073258Y-134173511D01*
X113014366Y-134393302D01*
X113014364Y-134393313D01*
X112994532Y-134619998D01*
X112994532Y-134620001D01*
X113014364Y-134846686D01*
X113014366Y-134846697D01*
X113073258Y-135066488D01*
X113073261Y-135066497D01*
X113169431Y-135272732D01*
X113169432Y-135272734D01*
X113299954Y-135459141D01*
X113460858Y-135620045D01*
X113460861Y-135620047D01*
X113647266Y-135750568D01*
X113705275Y-135777618D01*
X113757714Y-135823791D01*
X113776866Y-135890984D01*
X113756650Y-135957865D01*
X113705275Y-136002382D01*
X113647267Y-136029431D01*
X113647265Y-136029432D01*
X113460858Y-136159954D01*
X113299954Y-136320858D01*
X113169432Y-136507265D01*
X113169431Y-136507267D01*
X113073261Y-136713502D01*
X113073258Y-136713511D01*
X113014366Y-136933302D01*
X113014364Y-136933313D01*
X112994532Y-137159998D01*
X112994532Y-137160001D01*
X113014364Y-137386686D01*
X113014366Y-137386697D01*
X113073258Y-137606488D01*
X113073261Y-137606497D01*
X113169431Y-137812732D01*
X113169432Y-137812734D01*
X113299954Y-137999141D01*
X113460858Y-138160045D01*
X113460861Y-138160047D01*
X113647266Y-138290568D01*
X113853504Y-138386739D01*
X114073308Y-138445635D01*
X114235230Y-138459801D01*
X114299998Y-138465468D01*
X114300000Y-138465468D01*
X114300002Y-138465468D01*
X114356673Y-138460509D01*
X114526692Y-138445635D01*
X114746496Y-138386739D01*
X114952734Y-138290568D01*
X115139139Y-138160047D01*
X115300047Y-137999139D01*
X115430568Y-137812734D01*
X115526739Y-137606496D01*
X115585635Y-137386692D01*
X115605468Y-137160000D01*
X115585635Y-136933308D01*
X115526739Y-136713504D01*
X115430568Y-136507266D01*
X115300047Y-136320861D01*
X115300045Y-136320858D01*
X115139141Y-136159954D01*
X114952734Y-136029432D01*
X114952728Y-136029429D01*
X114894725Y-136002382D01*
X114842285Y-135956210D01*
X114823133Y-135889017D01*
X114843348Y-135822135D01*
X114894725Y-135777618D01*
X114952734Y-135750568D01*
X115139139Y-135620047D01*
X115300047Y-135459139D01*
X115430568Y-135272734D01*
X115526739Y-135066496D01*
X115585635Y-134846692D01*
X115605468Y-134620000D01*
X115585635Y-134393308D01*
X115526739Y-134173504D01*
X115430568Y-133967266D01*
X115300047Y-133780861D01*
X115300045Y-133780858D01*
X115139141Y-133619954D01*
X114952734Y-133489432D01*
X114952728Y-133489429D01*
X114894725Y-133462382D01*
X114842285Y-133416210D01*
X114823133Y-133349017D01*
X114843348Y-133282135D01*
X114894725Y-133237618D01*
X114952734Y-133210568D01*
X115139139Y-133080047D01*
X115300047Y-132919139D01*
X115430568Y-132732734D01*
X115526739Y-132526496D01*
X115585635Y-132306692D01*
X115605468Y-132080000D01*
X115585635Y-131853308D01*
X115526739Y-131633504D01*
X115430568Y-131427266D01*
X115300047Y-131240861D01*
X115300045Y-131240858D01*
X115139141Y-131079954D01*
X114952734Y-130949432D01*
X114952728Y-130949429D01*
X114925038Y-130936517D01*
X114894724Y-130922381D01*
X114842285Y-130876210D01*
X114823133Y-130809017D01*
X114843348Y-130742135D01*
X114894725Y-130697618D01*
X114952734Y-130670568D01*
X115139139Y-130540047D01*
X115300047Y-130379139D01*
X115430568Y-130192734D01*
X115526739Y-129986496D01*
X115585635Y-129766692D01*
X115605468Y-129540000D01*
X115585635Y-129313308D01*
X115526739Y-129093504D01*
X115430568Y-128887266D01*
X115300047Y-128700861D01*
X115300045Y-128700858D01*
X115139141Y-128539954D01*
X114952734Y-128409432D01*
X114952728Y-128409429D01*
X114894882Y-128382455D01*
X114894724Y-128382381D01*
X114842285Y-128336210D01*
X114823133Y-128269017D01*
X114843348Y-128202135D01*
X114894725Y-128157618D01*
X114910262Y-128150373D01*
X114952734Y-128130568D01*
X115139139Y-128000047D01*
X115300047Y-127839139D01*
X115430568Y-127652734D01*
X115526739Y-127446496D01*
X115585635Y-127226692D01*
X115603525Y-127022213D01*
X115605468Y-127000001D01*
X115605468Y-126999998D01*
X115592303Y-126849522D01*
X115585635Y-126773308D01*
X115526739Y-126553504D01*
X115430568Y-126347266D01*
X115300047Y-126160861D01*
X115300045Y-126160858D01*
X115139141Y-125999954D01*
X114952734Y-125869432D01*
X114952732Y-125869431D01*
X114746497Y-125773261D01*
X114746488Y-125773258D01*
X114526697Y-125714366D01*
X114526693Y-125714365D01*
X114526692Y-125714365D01*
X114526691Y-125714364D01*
X114526686Y-125714364D01*
X114300002Y-125694532D01*
X114299998Y-125694532D01*
X114073313Y-125714364D01*
X114073302Y-125714366D01*
X113853511Y-125773258D01*
X113853502Y-125773261D01*
X113647267Y-125869431D01*
X113647265Y-125869432D01*
X113460858Y-125999954D01*
X113299954Y-126160858D01*
X113169432Y-126347265D01*
X113169431Y-126347267D01*
X113073261Y-126553502D01*
X113073258Y-126553511D01*
X113014366Y-126773302D01*
X113014364Y-126773313D01*
X112994532Y-126999998D01*
X112400500Y-126999998D01*
X112400500Y-117761842D01*
X112420185Y-117694803D01*
X112472989Y-117649048D01*
X112538382Y-117638622D01*
X112591675Y-117644627D01*
X112599999Y-117645565D01*
X112600000Y-117645565D01*
X112600004Y-117645565D01*
X112779249Y-117625369D01*
X112779252Y-117625368D01*
X112779255Y-117625368D01*
X112949522Y-117565789D01*
X112951057Y-117564825D01*
X112983976Y-117544140D01*
X113037880Y-117510269D01*
X113105116Y-117491269D01*
X113171951Y-117511636D01*
X113205425Y-117544138D01*
X113225688Y-117573076D01*
X113299954Y-117679141D01*
X113460858Y-117840045D01*
X113460861Y-117840047D01*
X113647266Y-117970568D01*
X113705275Y-117997618D01*
X113757714Y-118043791D01*
X113776866Y-118110984D01*
X113756650Y-118177865D01*
X113705275Y-118222382D01*
X113647267Y-118249431D01*
X113647265Y-118249432D01*
X113460858Y-118379954D01*
X113299954Y-118540858D01*
X113169432Y-118727265D01*
X113169431Y-118727267D01*
X113073261Y-118933502D01*
X113073258Y-118933511D01*
X113014366Y-119153302D01*
X113014364Y-119153313D01*
X112994532Y-119379998D01*
X112994532Y-119380001D01*
X113014364Y-119606686D01*
X113014366Y-119606697D01*
X113073258Y-119826488D01*
X113073261Y-119826497D01*
X113169431Y-120032732D01*
X113169432Y-120032734D01*
X113299954Y-120219141D01*
X113460858Y-120380045D01*
X113460861Y-120380047D01*
X113647266Y-120510568D01*
X113705275Y-120537618D01*
X113757714Y-120583791D01*
X113776866Y-120650984D01*
X113756650Y-120717865D01*
X113705275Y-120762382D01*
X113647267Y-120789431D01*
X113647265Y-120789432D01*
X113460858Y-120919954D01*
X113299954Y-121080858D01*
X113169432Y-121267265D01*
X113169431Y-121267267D01*
X113073261Y-121473502D01*
X113073258Y-121473511D01*
X113014366Y-121693302D01*
X113014364Y-121693313D01*
X112994532Y-121919998D01*
X112994532Y-121920001D01*
X113014364Y-122146686D01*
X113014366Y-122146697D01*
X113073258Y-122366488D01*
X113073261Y-122366497D01*
X113169431Y-122572732D01*
X113169432Y-122572734D01*
X113299954Y-122759141D01*
X113460858Y-122920045D01*
X113460861Y-122920047D01*
X113647266Y-123050568D01*
X113853504Y-123146739D01*
X113853509Y-123146740D01*
X113853511Y-123146741D01*
X113906415Y-123160916D01*
X114073308Y-123205635D01*
X114235230Y-123219801D01*
X114299998Y-123225468D01*
X114300000Y-123225468D01*
X114300002Y-123225468D01*
X114356673Y-123220509D01*
X114526692Y-123205635D01*
X114746496Y-123146739D01*
X114952734Y-123050568D01*
X115139139Y-122920047D01*
X115300047Y-122759139D01*
X115430568Y-122572734D01*
X115526739Y-122366496D01*
X115585635Y-122146692D01*
X115605468Y-121920000D01*
X115585635Y-121693308D01*
X115526739Y-121473504D01*
X115430568Y-121267266D01*
X115300047Y-121080861D01*
X115300045Y-121080858D01*
X115139141Y-120919954D01*
X114952734Y-120789432D01*
X114952728Y-120789429D01*
X114894725Y-120762382D01*
X114842285Y-120716210D01*
X114823133Y-120649017D01*
X114843348Y-120582135D01*
X114894725Y-120537618D01*
X114952734Y-120510568D01*
X115139139Y-120380047D01*
X115300047Y-120219139D01*
X115430568Y-120032734D01*
X115526739Y-119826496D01*
X115585635Y-119606692D01*
X115605468Y-119380000D01*
X115585635Y-119153308D01*
X115526739Y-118933504D01*
X115430568Y-118727266D01*
X115300047Y-118540861D01*
X115300045Y-118540858D01*
X115139141Y-118379954D01*
X114952734Y-118249432D01*
X114952728Y-118249429D01*
X114894725Y-118222382D01*
X114842285Y-118176210D01*
X114823133Y-118109017D01*
X114843348Y-118042135D01*
X114894725Y-117997618D01*
X114952734Y-117970568D01*
X115139139Y-117840047D01*
X115300047Y-117679139D01*
X115430568Y-117492734D01*
X115526739Y-117286496D01*
X115585635Y-117066692D01*
X115605468Y-116840000D01*
X115585635Y-116613308D01*
X115526739Y-116393504D01*
X115430568Y-116187266D01*
X115300047Y-116000861D01*
X115300045Y-116000858D01*
X115139141Y-115839954D01*
X114952734Y-115709432D01*
X114952728Y-115709429D01*
X114894725Y-115682382D01*
X114842285Y-115636210D01*
X114823133Y-115569017D01*
X114843348Y-115502135D01*
X114894725Y-115457618D01*
X114952734Y-115430568D01*
X115139139Y-115300047D01*
X115300047Y-115139139D01*
X115430568Y-114952734D01*
X115526739Y-114746496D01*
X115585635Y-114526692D01*
X115605468Y-114300000D01*
X115585635Y-114073308D01*
X115526739Y-113853504D01*
X115430568Y-113647266D01*
X115300047Y-113460861D01*
X115300045Y-113460858D01*
X115139141Y-113299954D01*
X114952734Y-113169432D01*
X114952728Y-113169429D01*
X114894725Y-113142382D01*
X114842285Y-113096210D01*
X114823133Y-113029017D01*
X114843348Y-112962135D01*
X114894725Y-112917618D01*
X114952734Y-112890568D01*
X115139139Y-112760047D01*
X115300047Y-112599139D01*
X115430568Y-112412734D01*
X115526739Y-112206496D01*
X115585635Y-111986692D01*
X115605468Y-111760000D01*
X115603904Y-111742129D01*
X115596500Y-111657497D01*
X115585635Y-111533308D01*
X115526739Y-111313504D01*
X115430568Y-111107266D01*
X115300047Y-110920861D01*
X115300045Y-110920858D01*
X115139141Y-110759954D01*
X114952734Y-110629432D01*
X114952728Y-110629429D01*
X114894725Y-110602382D01*
X114842285Y-110556210D01*
X114823133Y-110489017D01*
X114843348Y-110422135D01*
X114894725Y-110377618D01*
X114952734Y-110350568D01*
X115139139Y-110220047D01*
X115300047Y-110059139D01*
X115430568Y-109872734D01*
X115526739Y-109666496D01*
X115585635Y-109446692D01*
X115605468Y-109220000D01*
X115600032Y-109157872D01*
X115585635Y-108993313D01*
X115585635Y-108993308D01*
X115526739Y-108773504D01*
X115430568Y-108567266D01*
X115300047Y-108380861D01*
X115300045Y-108380858D01*
X115139141Y-108219954D01*
X114952734Y-108089432D01*
X114952728Y-108089429D01*
X114894725Y-108062382D01*
X114842285Y-108016210D01*
X114823133Y-107949017D01*
X114843348Y-107882135D01*
X114894725Y-107837618D01*
X114952734Y-107810568D01*
X115139139Y-107680047D01*
X115300047Y-107519139D01*
X115430568Y-107332734D01*
X115526739Y-107126496D01*
X115585635Y-106906692D01*
X115604337Y-106692931D01*
X115605468Y-106680001D01*
X115605468Y-106679998D01*
X115598489Y-106600229D01*
X115585635Y-106453308D01*
X115526739Y-106233504D01*
X115430568Y-106027266D01*
X115300047Y-105840861D01*
X115300045Y-105840858D01*
X115139141Y-105679954D01*
X114952734Y-105549432D01*
X114952728Y-105549429D01*
X114894725Y-105522382D01*
X114842285Y-105476210D01*
X114823133Y-105409017D01*
X114843348Y-105342135D01*
X114894725Y-105297618D01*
X114952734Y-105270568D01*
X115139139Y-105140047D01*
X115300047Y-104979139D01*
X115430568Y-104792734D01*
X115526739Y-104586496D01*
X115585635Y-104366692D01*
X115605468Y-104140000D01*
X115585635Y-103913308D01*
X115526739Y-103693504D01*
X115430568Y-103487266D01*
X115300047Y-103300861D01*
X115300045Y-103300858D01*
X115139141Y-103139954D01*
X114952734Y-103009432D01*
X114952732Y-103009431D01*
X114746497Y-102913261D01*
X114746488Y-102913258D01*
X114526697Y-102854366D01*
X114526693Y-102854365D01*
X114526692Y-102854365D01*
X114526691Y-102854364D01*
X114526686Y-102854364D01*
X114300002Y-102834532D01*
X114299998Y-102834532D01*
X114073313Y-102854364D01*
X114073302Y-102854366D01*
X113853511Y-102913258D01*
X113853502Y-102913261D01*
X113647267Y-103009431D01*
X113647265Y-103009432D01*
X113460858Y-103139954D01*
X113412181Y-103188632D01*
X113350858Y-103222117D01*
X113281166Y-103217133D01*
X113225233Y-103175261D01*
X113200816Y-103109797D01*
X113200500Y-103100951D01*
X113200500Y-100099049D01*
X113220185Y-100032010D01*
X113272989Y-99986255D01*
X113342147Y-99976311D01*
X113405703Y-100005336D01*
X113412181Y-100011368D01*
X113460858Y-100060045D01*
X113460861Y-100060047D01*
X113647266Y-100190568D01*
X113853504Y-100286739D01*
X114073308Y-100345635D01*
X114235230Y-100359801D01*
X114299998Y-100365468D01*
X114300000Y-100365468D01*
X114300002Y-100365468D01*
X114356673Y-100360509D01*
X114526692Y-100345635D01*
X114746496Y-100286739D01*
X114952734Y-100190568D01*
X115139139Y-100060047D01*
X115300047Y-99899139D01*
X115430568Y-99712734D01*
X115526739Y-99506496D01*
X115585635Y-99286692D01*
X115605468Y-99060000D01*
X115605007Y-99054735D01*
X115585635Y-98833313D01*
X115585635Y-98833308D01*
X115559847Y-98737066D01*
X115561510Y-98667217D01*
X115591939Y-98617294D01*
X115928506Y-98280728D01*
X115928511Y-98280724D01*
X115938714Y-98270520D01*
X115938716Y-98270520D01*
X116050520Y-98158716D01*
X116128865Y-98023018D01*
X116129577Y-98021785D01*
X116170500Y-97869058D01*
X116170500Y-97710943D01*
X116170500Y-74850943D01*
X116170500Y-74850941D01*
X116170121Y-74849525D01*
X116170121Y-74849526D01*
X116143960Y-74751894D01*
X116129577Y-74698215D01*
X116100639Y-74648095D01*
X116050520Y-74561284D01*
X115938716Y-74449480D01*
X115938715Y-74449479D01*
X115934385Y-74445149D01*
X115934374Y-74445139D01*
X114762190Y-73272955D01*
X114762188Y-73272952D01*
X114643317Y-73154081D01*
X114643316Y-73154080D01*
X114556504Y-73103960D01*
X114556504Y-73103959D01*
X114556500Y-73103958D01*
X114506385Y-73075023D01*
X114353657Y-73034099D01*
X114195543Y-73034099D01*
X114187947Y-73034099D01*
X114187931Y-73034100D01*
X76304457Y-73034100D01*
X76146342Y-73034100D01*
X75993615Y-73075023D01*
X75993614Y-73075023D01*
X75993612Y-73075024D01*
X75993609Y-73075025D01*
X75943496Y-73103959D01*
X75943495Y-73103960D01*
X75900089Y-73129020D01*
X75856685Y-73154079D01*
X75856682Y-73154081D01*
X74449481Y-74561282D01*
X74449479Y-74561285D01*
X74399361Y-74648094D01*
X74399359Y-74648096D01*
X74370425Y-74698209D01*
X74370424Y-74698210D01*
X74354544Y-74757472D01*
X74329499Y-74850943D01*
X74329499Y-74850945D01*
X74329499Y-75019046D01*
X74329500Y-75019059D01*
X74329500Y-77752902D01*
X74309815Y-77819941D01*
X74257011Y-77865696D01*
X74187853Y-77875640D01*
X74124297Y-77846615D01*
X74117819Y-77840583D01*
X72507420Y-76230185D01*
X72473935Y-76168862D01*
X72471573Y-76153311D01*
X72455063Y-75964592D01*
X72393903Y-75736337D01*
X72294035Y-75522171D01*
X72158495Y-75328599D01*
X72158494Y-75328597D01*
X71991402Y-75161506D01*
X71991395Y-75161501D01*
X71797834Y-75025967D01*
X71797830Y-75025965D01*
X71761571Y-75009057D01*
X71583663Y-74926097D01*
X71583659Y-74926096D01*
X71583655Y-74926094D01*
X71355413Y-74864938D01*
X71355403Y-74864936D01*
X71120001Y-74844341D01*
X71119999Y-74844341D01*
X70884596Y-74864936D01*
X70884586Y-74864938D01*
X70656344Y-74926094D01*
X70656335Y-74926098D01*
X70442171Y-75025964D01*
X70442169Y-75025965D01*
X70248600Y-75161503D01*
X70126673Y-75283430D01*
X70065350Y-75316914D01*
X69995658Y-75311930D01*
X69939725Y-75270058D01*
X69922810Y-75239081D01*
X69873797Y-75107671D01*
X69873793Y-75107664D01*
X69787547Y-74992455D01*
X69787544Y-74992452D01*
X69672335Y-74906206D01*
X69672328Y-74906202D01*
X69537482Y-74855908D01*
X69537483Y-74855908D01*
X69477883Y-74849501D01*
X69477881Y-74849500D01*
X69477873Y-74849500D01*
X69477864Y-74849500D01*
X67682129Y-74849500D01*
X67682123Y-74849501D01*
X67622516Y-74855908D01*
X67487671Y-74906202D01*
X67487664Y-74906206D01*
X67372455Y-74992452D01*
X67372452Y-74992455D01*
X67286206Y-75107664D01*
X67286202Y-75107671D01*
X67235908Y-75242517D01*
X67229501Y-75302116D01*
X67229500Y-75302135D01*
X67229500Y-77097870D01*
X67229501Y-77097876D01*
X67235908Y-77157483D01*
X67286202Y-77292328D01*
X67286206Y-77292335D01*
X67372452Y-77407544D01*
X67372455Y-77407547D01*
X67487664Y-77493793D01*
X67487671Y-77493797D01*
X67619081Y-77542810D01*
X67675015Y-77584681D01*
X67699432Y-77650145D01*
X67684580Y-77718418D01*
X67663430Y-77746673D01*
X67541503Y-77868600D01*
X67405965Y-78062169D01*
X67405964Y-78062171D01*
X67306098Y-78276335D01*
X67306094Y-78276344D01*
X67244938Y-78504586D01*
X67244936Y-78504596D01*
X67224341Y-78739999D01*
X66240500Y-78739999D01*
X66240500Y-72714500D01*
X66260185Y-72647461D01*
X66312989Y-72601706D01*
X66364500Y-72590500D01*
X116515500Y-72590500D01*
X116582539Y-72610185D01*
G37*
G04 #@! TD.AperFunction*
M02*
