M48
; DRILL file {KiCad 8.0.6} date 2025-02-13T00:08:46+0100
; FORMAT={-:-/ absolute / metric / decimal}
; #@! TF.CreationDate,2025-02-13T00:08:46+01:00
; #@! TF.GenerationSoftware,Kicad,Pcbnew,8.0.6
; #@! TF.FileFunction,Plated,1,2,PTH
FMAT,2
METRIC
; #@! TA.AperFunction,Plated,PTH,ViaDrill
T1C0.300
; #@! TA.AperFunction,Plated,PTH,ComponentDrill
T2C0.800
; #@! TA.AperFunction,Plated,PTH,ComponentDrill
T3C1.000
%
G90
G05
T1
X69.088Y-110.236
X69.698Y-103.734
X71.247Y-109.347
X72.034Y-74.371
X72.2Y-109.283
X73.152Y-91.948
X77.114Y-102.852
X78.486Y-97.866
X79.388Y-89.294
X79.4Y-98.806
X79.461Y-125.476
X79.886Y-126.276
X79.959Y-103.2
X80.061Y-97.587
X80.264Y-74.235
X80.661Y-100.752
X84.442Y-93.332
X84.493Y-100.978
X84.582Y-107.95
X84.811Y-94.336
X84.963Y-122.047
X85.252Y-102.997
X85.436Y-87.376
X85.436Y-89.662
X85.7Y-104.724
X85.852Y-107.95
X85.852Y-122.936
X86.868Y-123.952
X92.872Y-127.635
X93.218Y-92.71
X93.726Y-90.17
X94.234Y-86.36
X94.402Y-101.27
X96.266Y-101.854
X100.6Y-121.92
X101.4Y-134.62
X102.2Y-137.16
X102.642Y-100.6
X103.0Y-119.38
X103.124Y-96.52
X103.8Y-124.46
X104.478Y-80.002
X104.6Y-132.08
X105.4Y-129.54
X106.2Y-127.0
X107.0Y-109.22
X107.8Y-127.0
X108.6Y-129.54
X109.4Y-111.76
X110.2Y-114.3
X111.0Y-132.08
X111.8Y-134.62
X112.6Y-116.84
X113.513Y-101.067
T2
X68.58Y-129.54
X68.58Y-132.08
X68.58Y-134.62
X68.58Y-137.16
X70.612Y-117.348
X70.612Y-119.848
X70.612Y-123.19
X70.612Y-125.69
X76.2Y-76.2
X76.2Y-78.74
X76.2Y-81.28
X76.2Y-83.82
X76.2Y-86.36
X76.2Y-88.9
X76.2Y-91.44
X76.2Y-93.98
X76.2Y-96.52
X76.2Y-99.06
X76.2Y-101.6
X76.2Y-104.14
X76.2Y-106.68
X76.2Y-109.22
X76.2Y-111.76
X76.2Y-114.3
X76.2Y-116.84
X76.2Y-119.38
X76.2Y-121.92
X76.2Y-124.46
X76.2Y-129.54
X76.2Y-132.08
X76.2Y-134.62
X76.2Y-137.16
X91.44Y-76.2
X91.44Y-78.74
X91.44Y-81.28
X91.44Y-83.82
X91.44Y-86.36
X91.44Y-88.9
X91.44Y-91.44
X91.44Y-93.98
X91.44Y-96.52
X91.44Y-99.06
X91.44Y-101.6
X91.44Y-104.14
X91.44Y-106.68
X91.44Y-109.22
X91.44Y-111.76
X91.44Y-114.3
X91.44Y-116.84
X91.44Y-119.38
X91.44Y-121.92
X91.44Y-124.46
X95.25Y-104.14
X95.25Y-116.84
X99.06Y-104.14
X99.06Y-106.68
X99.06Y-109.22
X99.06Y-111.76
X99.06Y-114.3
X99.06Y-116.84
X99.06Y-119.38
X99.06Y-121.92
X99.06Y-124.46
X99.06Y-127.0
X99.06Y-129.54
X99.06Y-132.08
X99.06Y-134.62
X99.06Y-137.16
X102.87Y-86.36
X102.87Y-99.06
X106.68Y-76.2
X106.68Y-78.74
X106.68Y-81.28
X106.68Y-83.82
X106.68Y-86.36
X106.68Y-88.9
X106.68Y-91.44
X106.68Y-93.98
X106.68Y-96.52
X106.68Y-99.06
X114.3Y-76.2
X114.3Y-78.74
X114.3Y-81.28
X114.3Y-83.82
X114.3Y-86.36
X114.3Y-88.9
X114.3Y-91.44
X114.3Y-93.98
X114.3Y-96.52
X114.3Y-99.06
X114.3Y-104.14
X114.3Y-106.68
X114.3Y-109.22
X114.3Y-111.76
X114.3Y-114.3
X114.3Y-116.84
X114.3Y-119.38
X114.3Y-121.92
X114.3Y-124.46
X114.3Y-127.0
X114.3Y-129.54
X114.3Y-132.08
X114.3Y-134.62
X114.3Y-137.16
T3
X68.58Y-76.2
X68.58Y-78.74
X68.58Y-81.28
X68.58Y-83.82
X68.58Y-86.36
X68.58Y-88.9
X68.58Y-91.44
X68.58Y-93.98
X68.58Y-96.52
X68.58Y-99.06
X68.58Y-107.95
X71.08Y-112.95
X71.12Y-76.2
X71.12Y-78.74
X71.12Y-81.28
X71.12Y-83.82
X71.12Y-86.36
X71.12Y-88.9
X71.12Y-91.44
X71.12Y-93.98
X71.12Y-96.52
X71.12Y-99.06
X73.58Y-107.95
X86.36Y-129.54
X86.36Y-132.08
X86.36Y-134.62
X86.36Y-137.16
X88.9Y-129.54
X88.9Y-132.08
X88.9Y-134.62
X88.9Y-137.16
X91.44Y-129.54
X91.44Y-132.08
X91.44Y-134.62
X91.44Y-137.16
X96.52Y-76.2
X96.52Y-78.74
X96.52Y-81.28
X96.52Y-83.82
X96.52Y-86.36
X96.52Y-88.9
X96.52Y-91.44
X96.52Y-93.98
X96.52Y-96.52
X96.52Y-99.06
X99.06Y-76.2
X99.06Y-78.74
X99.06Y-81.28
X99.06Y-83.82
X99.06Y-86.36
X99.06Y-88.9
X99.06Y-91.44
X99.06Y-93.98
X99.06Y-96.52
X99.06Y-99.06
X102.87Y-76.2
X102.87Y-78.74
M30
