G04 #@! TF.GenerationSoftware,KiCad,Pcbnew,8.0.6*
G04 #@! TF.CreationDate,2025-02-13T00:08:43+01:00*
G04 #@! TF.ProjectId,board_v1,626f6172-645f-4763-912e-6b696361645f,rev?*
G04 #@! TF.SameCoordinates,Original*
G04 #@! TF.FileFunction,Legend,Bot*
G04 #@! TF.FilePolarity,Positive*
%FSLAX46Y46*%
G04 Gerber Fmt 4.6, Leading zero omitted, Abs format (unit mm)*
G04 Created by KiCad (PCBNEW 8.0.6) date 2025-02-13 00:08:43*
%MOMM*%
%LPD*%
G01*
G04 APERTURE LIST*
G04 Aperture macros list*
%AMRoundRect*
0 Rectangle with rounded corners*
0 $1 Rounding radius*
0 $2 $3 $4 $5 $6 $7 $8 $9 X,Y pos of 4 corners*
0 Add a 4 corners polygon primitive as box body*
4,1,4,$2,$3,$4,$5,$6,$7,$8,$9,$2,$3,0*
0 Add four circle primitives for the rounded corners*
1,1,$1+$1,$2,$3*
1,1,$1+$1,$4,$5*
1,1,$1+$1,$6,$7*
1,1,$1+$1,$8,$9*
0 Add four rect primitives between the rounded corners*
20,1,$1+$1,$2,$3,$4,$5,0*
20,1,$1+$1,$4,$5,$6,$7,0*
20,1,$1+$1,$6,$7,$8,$9,0*
20,1,$1+$1,$8,$9,$2,$3,0*%
%AMFreePoly0*
4,1,35,0.576870,0.776870,0.588000,0.750000,0.588000,-0.750000,0.576870,-0.776870,0.550000,-0.788000,0.000000,-0.788000,-0.012286,-0.782911,-0.071157,-0.782911,-0.081863,-0.781372,-0.218414,-0.741277,-0.228252,-0.736784,-0.347974,-0.659843,-0.356148,-0.652760,-0.449345,-0.545205,-0.455193,-0.536106,-0.514312,-0.406652,-0.517359,-0.396274,-0.537613,-0.255408,-0.538000,-0.250000,-0.538000,0.250000,
-0.537613,0.255408,-0.517359,0.396274,-0.514312,0.406652,-0.455193,0.536106,-0.449345,0.545205,-0.356148,0.652760,-0.347974,0.659843,-0.228252,0.736784,-0.218414,0.741277,-0.081863,0.781372,-0.071157,0.782911,-0.012286,0.782911,0.000000,0.788000,0.550000,0.788000,0.576870,0.776870,0.576870,0.776870,$1*%
%AMFreePoly1*
4,1,35,0.012286,0.782911,0.071157,0.782911,0.081863,0.781372,0.218414,0.741277,0.228252,0.736784,0.347974,0.659843,0.356148,0.652760,0.449345,0.545205,0.455193,0.536106,0.514312,0.406652,0.517359,0.396274,0.537613,0.255408,0.538000,0.250000,0.538000,-0.250000,0.537613,-0.255408,0.517359,-0.396274,0.514312,-0.406652,0.455193,-0.536106,0.449345,-0.545205,0.356148,-0.652760,
0.347974,-0.659843,0.228252,-0.736784,0.218414,-0.741277,0.081863,-0.781372,0.071157,-0.782911,0.012286,-0.782911,0.000000,-0.788000,-0.550000,-0.788000,-0.576870,-0.776870,-0.588000,-0.750000,-0.588000,0.750000,-0.576870,0.776870,-0.550000,0.788000,0.000000,0.788000,0.012286,0.782911,0.012286,0.782911,$1*%
G04 Aperture macros list end*
%ADD10C,0.153000*%
%ADD11C,0.120000*%
%ADD12RoundRect,0.038000X-0.800000X-0.800000X0.800000X-0.800000X0.800000X0.800000X-0.800000X0.800000X0*%
%ADD13O,1.676000X1.676000*%
%ADD14RoundRect,0.038000X-0.850000X-0.850000X0.850000X-0.850000X0.850000X0.850000X-0.850000X0.850000X0*%
%ADD15O,1.776000X1.776000*%
%ADD16RoundRect,0.038000X0.850000X-0.850000X0.850000X0.850000X-0.850000X0.850000X-0.850000X-0.850000X0*%
%ADD17RoundRect,0.038000X-0.800000X0.800000X-0.800000X-0.800000X0.800000X-0.800000X0.800000X0.800000X0*%
%ADD18C,1.676000*%
%ADD19RoundRect,0.038000X-0.780000X-0.780000X0.780000X-0.780000X0.780000X0.780000X-0.780000X0.780000X0*%
%ADD20C,1.636000*%
%ADD21FreePoly0,180.000000*%
%ADD22RoundRect,0.038000X0.500000X0.750000X-0.500000X0.750000X-0.500000X-0.750000X0.500000X-0.750000X0*%
%ADD23FreePoly1,180.000000*%
G04 APERTURE END LIST*
D10*
X81394336Y-119875990D02*
X81394336Y-119304562D01*
X80394336Y-119590276D02*
X81394336Y-119590276D01*
X80441956Y-119018847D02*
X80394336Y-118875990D01*
X80394336Y-118875990D02*
X80394336Y-118637895D01*
X80394336Y-118637895D02*
X80441956Y-118542657D01*
X80441956Y-118542657D02*
X80489575Y-118495038D01*
X80489575Y-118495038D02*
X80584813Y-118447419D01*
X80584813Y-118447419D02*
X80680051Y-118447419D01*
X80680051Y-118447419D02*
X80775289Y-118495038D01*
X80775289Y-118495038D02*
X80822908Y-118542657D01*
X80822908Y-118542657D02*
X80870527Y-118637895D01*
X80870527Y-118637895D02*
X80918146Y-118828371D01*
X80918146Y-118828371D02*
X80965765Y-118923609D01*
X80965765Y-118923609D02*
X81013384Y-118971228D01*
X81013384Y-118971228D02*
X81108622Y-119018847D01*
X81108622Y-119018847D02*
X81203860Y-119018847D01*
X81203860Y-119018847D02*
X81299098Y-118971228D01*
X81299098Y-118971228D02*
X81346717Y-118923609D01*
X81346717Y-118923609D02*
X81394336Y-118828371D01*
X81394336Y-118828371D02*
X81394336Y-118590276D01*
X81394336Y-118590276D02*
X81346717Y-118447419D01*
X80394336Y-117971228D02*
X80394336Y-117780752D01*
X80394336Y-117780752D02*
X80441956Y-117685514D01*
X80441956Y-117685514D02*
X80489575Y-117637895D01*
X80489575Y-117637895D02*
X80632432Y-117542657D01*
X80632432Y-117542657D02*
X80822908Y-117495038D01*
X80822908Y-117495038D02*
X81203860Y-117495038D01*
X81203860Y-117495038D02*
X81299098Y-117542657D01*
X81299098Y-117542657D02*
X81346717Y-117590276D01*
X81346717Y-117590276D02*
X81394336Y-117685514D01*
X81394336Y-117685514D02*
X81394336Y-117875990D01*
X81394336Y-117875990D02*
X81346717Y-117971228D01*
X81346717Y-117971228D02*
X81299098Y-118018847D01*
X81299098Y-118018847D02*
X81203860Y-118066466D01*
X81203860Y-118066466D02*
X80965765Y-118066466D01*
X80965765Y-118066466D02*
X80870527Y-118018847D01*
X80870527Y-118018847D02*
X80822908Y-117971228D01*
X80822908Y-117971228D02*
X80775289Y-117875990D01*
X80775289Y-117875990D02*
X80775289Y-117685514D01*
X80775289Y-117685514D02*
X80822908Y-117590276D01*
X80822908Y-117590276D02*
X80870527Y-117542657D01*
X80870527Y-117542657D02*
X80965765Y-117495038D01*
X81394336Y-117161704D02*
X81394336Y-116542657D01*
X81394336Y-116542657D02*
X81013384Y-116875990D01*
X81013384Y-116875990D02*
X81013384Y-116733133D01*
X81013384Y-116733133D02*
X80965765Y-116637895D01*
X80965765Y-116637895D02*
X80918146Y-116590276D01*
X80918146Y-116590276D02*
X80822908Y-116542657D01*
X80822908Y-116542657D02*
X80584813Y-116542657D01*
X80584813Y-116542657D02*
X80489575Y-116590276D01*
X80489575Y-116590276D02*
X80441956Y-116637895D01*
X80441956Y-116637895D02*
X80394336Y-116733133D01*
X80394336Y-116733133D02*
X80394336Y-117018847D01*
X80394336Y-117018847D02*
X80441956Y-117114085D01*
X80441956Y-117114085D02*
X80489575Y-117161704D01*
X81061003Y-115685514D02*
X80394336Y-115685514D01*
X81441956Y-115923609D02*
X80727670Y-116161704D01*
X80727670Y-116161704D02*
X80727670Y-115542657D01*
X81394336Y-115256942D02*
X81394336Y-114590276D01*
X81394336Y-114590276D02*
X80394336Y-115018847D01*
X80489575Y-113637895D02*
X80441956Y-113685514D01*
X80441956Y-113685514D02*
X80394336Y-113828371D01*
X80394336Y-113828371D02*
X80394336Y-113923609D01*
X80394336Y-113923609D02*
X80441956Y-114066466D01*
X80441956Y-114066466D02*
X80537194Y-114161704D01*
X80537194Y-114161704D02*
X80632432Y-114209323D01*
X80632432Y-114209323D02*
X80822908Y-114256942D01*
X80822908Y-114256942D02*
X80965765Y-114256942D01*
X80965765Y-114256942D02*
X81156241Y-114209323D01*
X81156241Y-114209323D02*
X81251479Y-114161704D01*
X81251479Y-114161704D02*
X81346717Y-114066466D01*
X81346717Y-114066466D02*
X81394336Y-113923609D01*
X81394336Y-113923609D02*
X81394336Y-113828371D01*
X81394336Y-113828371D02*
X81346717Y-113685514D01*
X81346717Y-113685514D02*
X81299098Y-113637895D01*
X80394336Y-113209323D02*
X81394336Y-113209323D01*
X81394336Y-113209323D02*
X81394336Y-112828371D01*
X81394336Y-112828371D02*
X81346717Y-112733133D01*
X81346717Y-112733133D02*
X81299098Y-112685514D01*
X81299098Y-112685514D02*
X81203860Y-112637895D01*
X81203860Y-112637895D02*
X81061003Y-112637895D01*
X81061003Y-112637895D02*
X80965765Y-112685514D01*
X80965765Y-112685514D02*
X80918146Y-112733133D01*
X80918146Y-112733133D02*
X80870527Y-112828371D01*
X80870527Y-112828371D02*
X80870527Y-113209323D01*
X81441956Y-111495038D02*
X80156241Y-112352180D01*
X81299098Y-111209323D02*
X81346717Y-111161704D01*
X81346717Y-111161704D02*
X81394336Y-111066466D01*
X81394336Y-111066466D02*
X81394336Y-110828371D01*
X81394336Y-110828371D02*
X81346717Y-110733133D01*
X81346717Y-110733133D02*
X81299098Y-110685514D01*
X81299098Y-110685514D02*
X81203860Y-110637895D01*
X81203860Y-110637895D02*
X81108622Y-110637895D01*
X81108622Y-110637895D02*
X80965765Y-110685514D01*
X80965765Y-110685514D02*
X80394336Y-111256942D01*
X80394336Y-111256942D02*
X80394336Y-110637895D01*
X80394336Y-109637895D02*
X80870527Y-109971228D01*
X80394336Y-110209323D02*
X81394336Y-110209323D01*
X81394336Y-110209323D02*
X81394336Y-109828371D01*
X81394336Y-109828371D02*
X81346717Y-109733133D01*
X81346717Y-109733133D02*
X81299098Y-109685514D01*
X81299098Y-109685514D02*
X81203860Y-109637895D01*
X81203860Y-109637895D02*
X81061003Y-109637895D01*
X81061003Y-109637895D02*
X80965765Y-109685514D01*
X80965765Y-109685514D02*
X80918146Y-109733133D01*
X80918146Y-109733133D02*
X80870527Y-109828371D01*
X80870527Y-109828371D02*
X80870527Y-110209323D01*
X81394336Y-109018847D02*
X81394336Y-108923609D01*
X81394336Y-108923609D02*
X81346717Y-108828371D01*
X81346717Y-108828371D02*
X81299098Y-108780752D01*
X81299098Y-108780752D02*
X81203860Y-108733133D01*
X81203860Y-108733133D02*
X81013384Y-108685514D01*
X81013384Y-108685514D02*
X80775289Y-108685514D01*
X80775289Y-108685514D02*
X80584813Y-108733133D01*
X80584813Y-108733133D02*
X80489575Y-108780752D01*
X80489575Y-108780752D02*
X80441956Y-108828371D01*
X80441956Y-108828371D02*
X80394336Y-108923609D01*
X80394336Y-108923609D02*
X80394336Y-109018847D01*
X80394336Y-109018847D02*
X80441956Y-109114085D01*
X80441956Y-109114085D02*
X80489575Y-109161704D01*
X80489575Y-109161704D02*
X80584813Y-109209323D01*
X80584813Y-109209323D02*
X80775289Y-109256942D01*
X80775289Y-109256942D02*
X81013384Y-109256942D01*
X81013384Y-109256942D02*
X81203860Y-109209323D01*
X81203860Y-109209323D02*
X81299098Y-109161704D01*
X81299098Y-109161704D02*
X81346717Y-109114085D01*
X81346717Y-109114085D02*
X81394336Y-109018847D01*
X81394336Y-108066466D02*
X81394336Y-107971228D01*
X81394336Y-107971228D02*
X81346717Y-107875990D01*
X81346717Y-107875990D02*
X81299098Y-107828371D01*
X81299098Y-107828371D02*
X81203860Y-107780752D01*
X81203860Y-107780752D02*
X81013384Y-107733133D01*
X81013384Y-107733133D02*
X80775289Y-107733133D01*
X80775289Y-107733133D02*
X80584813Y-107780752D01*
X80584813Y-107780752D02*
X80489575Y-107828371D01*
X80489575Y-107828371D02*
X80441956Y-107875990D01*
X80441956Y-107875990D02*
X80394336Y-107971228D01*
X80394336Y-107971228D02*
X80394336Y-108066466D01*
X80394336Y-108066466D02*
X80441956Y-108161704D01*
X80441956Y-108161704D02*
X80489575Y-108209323D01*
X80489575Y-108209323D02*
X80584813Y-108256942D01*
X80584813Y-108256942D02*
X80775289Y-108304561D01*
X80775289Y-108304561D02*
X81013384Y-108304561D01*
X81013384Y-108304561D02*
X81203860Y-108256942D01*
X81203860Y-108256942D02*
X81299098Y-108209323D01*
X81299098Y-108209323D02*
X81346717Y-108161704D01*
X81346717Y-108161704D02*
X81394336Y-108066466D01*
X83458146Y-113875990D02*
X83458146Y-113542657D01*
X82934336Y-113399800D02*
X82934336Y-113875990D01*
X82934336Y-113875990D02*
X83934336Y-113875990D01*
X83934336Y-113875990D02*
X83934336Y-113399800D01*
X83458146Y-112637895D02*
X83458146Y-112971228D01*
X82934336Y-112971228D02*
X83934336Y-112971228D01*
X83934336Y-112971228D02*
X83934336Y-112495038D01*
X82934336Y-112066466D02*
X82934336Y-111875990D01*
X82934336Y-111875990D02*
X82981956Y-111780752D01*
X82981956Y-111780752D02*
X83029575Y-111733133D01*
X83029575Y-111733133D02*
X83172432Y-111637895D01*
X83172432Y-111637895D02*
X83362908Y-111590276D01*
X83362908Y-111590276D02*
X83743860Y-111590276D01*
X83743860Y-111590276D02*
X83839098Y-111637895D01*
X83839098Y-111637895D02*
X83886717Y-111685514D01*
X83886717Y-111685514D02*
X83934336Y-111780752D01*
X83934336Y-111780752D02*
X83934336Y-111971228D01*
X83934336Y-111971228D02*
X83886717Y-112066466D01*
X83886717Y-112066466D02*
X83839098Y-112114085D01*
X83839098Y-112114085D02*
X83743860Y-112161704D01*
X83743860Y-112161704D02*
X83505765Y-112161704D01*
X83505765Y-112161704D02*
X83410527Y-112114085D01*
X83410527Y-112114085D02*
X83362908Y-112066466D01*
X83362908Y-112066466D02*
X83315289Y-111971228D01*
X83315289Y-111971228D02*
X83315289Y-111780752D01*
X83315289Y-111780752D02*
X83362908Y-111685514D01*
X83362908Y-111685514D02*
X83410527Y-111637895D01*
X83410527Y-111637895D02*
X83505765Y-111590276D01*
X83934336Y-111256942D02*
X83934336Y-110637895D01*
X83934336Y-110637895D02*
X83553384Y-110971228D01*
X83553384Y-110971228D02*
X83553384Y-110828371D01*
X83553384Y-110828371D02*
X83505765Y-110733133D01*
X83505765Y-110733133D02*
X83458146Y-110685514D01*
X83458146Y-110685514D02*
X83362908Y-110637895D01*
X83362908Y-110637895D02*
X83124813Y-110637895D01*
X83124813Y-110637895D02*
X83029575Y-110685514D01*
X83029575Y-110685514D02*
X82981956Y-110733133D01*
X82981956Y-110733133D02*
X82934336Y-110828371D01*
X82934336Y-110828371D02*
X82934336Y-111114085D01*
X82934336Y-111114085D02*
X82981956Y-111209323D01*
X82981956Y-111209323D02*
X83029575Y-111256942D01*
X83601003Y-109780752D02*
X82934336Y-109780752D01*
X83981956Y-110018847D02*
X83267670Y-110256942D01*
X83267670Y-110256942D02*
X83267670Y-109637895D01*
X83934336Y-108780752D02*
X83934336Y-109256942D01*
X83934336Y-109256942D02*
X83458146Y-109304561D01*
X83458146Y-109304561D02*
X83505765Y-109256942D01*
X83505765Y-109256942D02*
X83553384Y-109161704D01*
X83553384Y-109161704D02*
X83553384Y-108923609D01*
X83553384Y-108923609D02*
X83505765Y-108828371D01*
X83505765Y-108828371D02*
X83458146Y-108780752D01*
X83458146Y-108780752D02*
X83362908Y-108733133D01*
X83362908Y-108733133D02*
X83124813Y-108733133D01*
X83124813Y-108733133D02*
X83029575Y-108780752D01*
X83029575Y-108780752D02*
X82981956Y-108828371D01*
X82981956Y-108828371D02*
X82934336Y-108923609D01*
X82934336Y-108923609D02*
X82934336Y-109161704D01*
X82934336Y-109161704D02*
X82981956Y-109256942D01*
X82981956Y-109256942D02*
X83029575Y-109304561D01*
X82934336Y-108304561D02*
X83934336Y-108304561D01*
X83934336Y-108304561D02*
X83934336Y-107923609D01*
X83934336Y-107923609D02*
X83886717Y-107828371D01*
X83886717Y-107828371D02*
X83839098Y-107780752D01*
X83839098Y-107780752D02*
X83743860Y-107733133D01*
X83743860Y-107733133D02*
X83601003Y-107733133D01*
X83601003Y-107733133D02*
X83505765Y-107780752D01*
X83505765Y-107780752D02*
X83458146Y-107828371D01*
X83458146Y-107828371D02*
X83410527Y-107923609D01*
X83410527Y-107923609D02*
X83410527Y-108304561D01*
X74966181Y-139302139D02*
X74966181Y-139873567D01*
X74966181Y-139873567D02*
X75004276Y-139987853D01*
X75004276Y-139987853D02*
X75080467Y-140064044D01*
X75080467Y-140064044D02*
X75194752Y-140102139D01*
X75194752Y-140102139D02*
X75270943Y-140102139D01*
X74204276Y-140102139D02*
X74585228Y-140102139D01*
X74585228Y-140102139D02*
X74585228Y-139302139D01*
X73480466Y-140025948D02*
X73518562Y-140064044D01*
X73518562Y-140064044D02*
X73632847Y-140102139D01*
X73632847Y-140102139D02*
X73709038Y-140102139D01*
X73709038Y-140102139D02*
X73823324Y-140064044D01*
X73823324Y-140064044D02*
X73899514Y-139987853D01*
X73899514Y-139987853D02*
X73937609Y-139911663D01*
X73937609Y-139911663D02*
X73975705Y-139759282D01*
X73975705Y-139759282D02*
X73975705Y-139644996D01*
X73975705Y-139644996D02*
X73937609Y-139492615D01*
X73937609Y-139492615D02*
X73899514Y-139416424D01*
X73899514Y-139416424D02*
X73823324Y-139340234D01*
X73823324Y-139340234D02*
X73709038Y-139302139D01*
X73709038Y-139302139D02*
X73632847Y-139302139D01*
X73632847Y-139302139D02*
X73518562Y-139340234D01*
X73518562Y-139340234D02*
X73480466Y-139378329D01*
X72909038Y-139302139D02*
X72909038Y-139873567D01*
X72909038Y-139873567D02*
X72947133Y-139987853D01*
X72947133Y-139987853D02*
X73023324Y-140064044D01*
X73023324Y-140064044D02*
X73137609Y-140102139D01*
X73137609Y-140102139D02*
X73213800Y-140102139D01*
X72147133Y-140102139D02*
X72528085Y-140102139D01*
X72528085Y-140102139D02*
X72528085Y-139302139D01*
X71423323Y-140025948D02*
X71461419Y-140064044D01*
X71461419Y-140064044D02*
X71575704Y-140102139D01*
X71575704Y-140102139D02*
X71651895Y-140102139D01*
X71651895Y-140102139D02*
X71766181Y-140064044D01*
X71766181Y-140064044D02*
X71842371Y-139987853D01*
X71842371Y-139987853D02*
X71880466Y-139911663D01*
X71880466Y-139911663D02*
X71918562Y-139759282D01*
X71918562Y-139759282D02*
X71918562Y-139644996D01*
X71918562Y-139644996D02*
X71880466Y-139492615D01*
X71880466Y-139492615D02*
X71842371Y-139416424D01*
X71842371Y-139416424D02*
X71766181Y-139340234D01*
X71766181Y-139340234D02*
X71651895Y-139302139D01*
X71651895Y-139302139D02*
X71575704Y-139302139D01*
X71575704Y-139302139D02*
X71461419Y-139340234D01*
X71461419Y-139340234D02*
X71423323Y-139378329D01*
X70851895Y-139302139D02*
X70851895Y-139873567D01*
X70851895Y-139873567D02*
X70889990Y-139987853D01*
X70889990Y-139987853D02*
X70966181Y-140064044D01*
X70966181Y-140064044D02*
X71080466Y-140102139D01*
X71080466Y-140102139D02*
X71156657Y-140102139D01*
X70089990Y-140102139D02*
X70470942Y-140102139D01*
X70470942Y-140102139D02*
X70470942Y-139302139D01*
X69366180Y-140025948D02*
X69404276Y-140064044D01*
X69404276Y-140064044D02*
X69518561Y-140102139D01*
X69518561Y-140102139D02*
X69594752Y-140102139D01*
X69594752Y-140102139D02*
X69709038Y-140064044D01*
X69709038Y-140064044D02*
X69785228Y-139987853D01*
X69785228Y-139987853D02*
X69823323Y-139911663D01*
X69823323Y-139911663D02*
X69861419Y-139759282D01*
X69861419Y-139759282D02*
X69861419Y-139644996D01*
X69861419Y-139644996D02*
X69823323Y-139492615D01*
X69823323Y-139492615D02*
X69785228Y-139416424D01*
X69785228Y-139416424D02*
X69709038Y-139340234D01*
X69709038Y-139340234D02*
X69594752Y-139302139D01*
X69594752Y-139302139D02*
X69518561Y-139302139D01*
X69518561Y-139302139D02*
X69404276Y-139340234D01*
X69404276Y-139340234D02*
X69366180Y-139378329D01*
X68794752Y-139302139D02*
X68794752Y-139873567D01*
X68794752Y-139873567D02*
X68832847Y-139987853D01*
X68832847Y-139987853D02*
X68909038Y-140064044D01*
X68909038Y-140064044D02*
X69023323Y-140102139D01*
X69023323Y-140102139D02*
X69099514Y-140102139D01*
X68032847Y-140102139D02*
X68413799Y-140102139D01*
X68413799Y-140102139D02*
X68413799Y-139302139D01*
X67309037Y-140025948D02*
X67347133Y-140064044D01*
X67347133Y-140064044D02*
X67461418Y-140102139D01*
X67461418Y-140102139D02*
X67537609Y-140102139D01*
X67537609Y-140102139D02*
X67651895Y-140064044D01*
X67651895Y-140064044D02*
X67728085Y-139987853D01*
X67728085Y-139987853D02*
X67766180Y-139911663D01*
X67766180Y-139911663D02*
X67804276Y-139759282D01*
X67804276Y-139759282D02*
X67804276Y-139644996D01*
X67804276Y-139644996D02*
X67766180Y-139492615D01*
X67766180Y-139492615D02*
X67728085Y-139416424D01*
X67728085Y-139416424D02*
X67651895Y-139340234D01*
X67651895Y-139340234D02*
X67537609Y-139302139D01*
X67537609Y-139302139D02*
X67461418Y-139302139D01*
X67461418Y-139302139D02*
X67347133Y-139340234D01*
X67347133Y-139340234D02*
X67309037Y-139378329D01*
X86584333Y-94845188D02*
X86584333Y-95559473D01*
X86584333Y-95559473D02*
X86631952Y-95702330D01*
X86631952Y-95702330D02*
X86727190Y-95797569D01*
X86727190Y-95797569D02*
X86870047Y-95845188D01*
X86870047Y-95845188D02*
X86965285Y-95845188D01*
X86108142Y-95845188D02*
X86108142Y-94845188D01*
X86108142Y-94845188D02*
X85727190Y-94845188D01*
X85727190Y-94845188D02*
X85631952Y-94892807D01*
X85631952Y-94892807D02*
X85584333Y-94940426D01*
X85584333Y-94940426D02*
X85536714Y-95035664D01*
X85536714Y-95035664D02*
X85536714Y-95178521D01*
X85536714Y-95178521D02*
X85584333Y-95273759D01*
X85584333Y-95273759D02*
X85631952Y-95321378D01*
X85631952Y-95321378D02*
X85727190Y-95368997D01*
X85727190Y-95368997D02*
X86108142Y-95368997D01*
X84679571Y-94845188D02*
X84870047Y-94845188D01*
X84870047Y-94845188D02*
X84965285Y-94892807D01*
X84965285Y-94892807D02*
X85012904Y-94940426D01*
X85012904Y-94940426D02*
X85108142Y-95083283D01*
X85108142Y-95083283D02*
X85155761Y-95273759D01*
X85155761Y-95273759D02*
X85155761Y-95654711D01*
X85155761Y-95654711D02*
X85108142Y-95749949D01*
X85108142Y-95749949D02*
X85060523Y-95797569D01*
X85060523Y-95797569D02*
X84965285Y-95845188D01*
X84965285Y-95845188D02*
X84774809Y-95845188D01*
X84774809Y-95845188D02*
X84679571Y-95797569D01*
X84679571Y-95797569D02*
X84631952Y-95749949D01*
X84631952Y-95749949D02*
X84584333Y-95654711D01*
X84584333Y-95654711D02*
X84584333Y-95416616D01*
X84584333Y-95416616D02*
X84631952Y-95321378D01*
X84631952Y-95321378D02*
X84679571Y-95273759D01*
X84679571Y-95273759D02*
X84774809Y-95226140D01*
X84774809Y-95226140D02*
X84965285Y-95226140D01*
X84965285Y-95226140D02*
X85060523Y-95273759D01*
X85060523Y-95273759D02*
X85108142Y-95321378D01*
X85108142Y-95321378D02*
X85155761Y-95416616D01*
X86584333Y-84716273D02*
X86584333Y-85430558D01*
X86584333Y-85430558D02*
X86631952Y-85573415D01*
X86631952Y-85573415D02*
X86727190Y-85668654D01*
X86727190Y-85668654D02*
X86870047Y-85716273D01*
X86870047Y-85716273D02*
X86965285Y-85716273D01*
X86108142Y-85716273D02*
X86108142Y-84716273D01*
X86108142Y-84716273D02*
X85727190Y-84716273D01*
X85727190Y-84716273D02*
X85631952Y-84763892D01*
X85631952Y-84763892D02*
X85584333Y-84811511D01*
X85584333Y-84811511D02*
X85536714Y-84906749D01*
X85536714Y-84906749D02*
X85536714Y-85049606D01*
X85536714Y-85049606D02*
X85584333Y-85144844D01*
X85584333Y-85144844D02*
X85631952Y-85192463D01*
X85631952Y-85192463D02*
X85727190Y-85240082D01*
X85727190Y-85240082D02*
X86108142Y-85240082D01*
X85203380Y-84716273D02*
X84584333Y-84716273D01*
X84584333Y-84716273D02*
X84917666Y-85097225D01*
X84917666Y-85097225D02*
X84774809Y-85097225D01*
X84774809Y-85097225D02*
X84679571Y-85144844D01*
X84679571Y-85144844D02*
X84631952Y-85192463D01*
X84631952Y-85192463D02*
X84584333Y-85287701D01*
X84584333Y-85287701D02*
X84584333Y-85525796D01*
X84584333Y-85525796D02*
X84631952Y-85621034D01*
X84631952Y-85621034D02*
X84679571Y-85668654D01*
X84679571Y-85668654D02*
X84774809Y-85716273D01*
X84774809Y-85716273D02*
X85060523Y-85716273D01*
X85060523Y-85716273D02*
X85155761Y-85668654D01*
X85155761Y-85668654D02*
X85203380Y-85621034D01*
X86584333Y-101597798D02*
X86584333Y-102312083D01*
X86584333Y-102312083D02*
X86631952Y-102454940D01*
X86631952Y-102454940D02*
X86727190Y-102550179D01*
X86727190Y-102550179D02*
X86870047Y-102597798D01*
X86870047Y-102597798D02*
X86965285Y-102597798D01*
X86108142Y-102597798D02*
X86108142Y-101597798D01*
X86108142Y-101597798D02*
X85727190Y-101597798D01*
X85727190Y-101597798D02*
X85631952Y-101645417D01*
X85631952Y-101645417D02*
X85584333Y-101693036D01*
X85584333Y-101693036D02*
X85536714Y-101788274D01*
X85536714Y-101788274D02*
X85536714Y-101931131D01*
X85536714Y-101931131D02*
X85584333Y-102026369D01*
X85584333Y-102026369D02*
X85631952Y-102073988D01*
X85631952Y-102073988D02*
X85727190Y-102121607D01*
X85727190Y-102121607D02*
X86108142Y-102121607D01*
X84965285Y-102026369D02*
X85060523Y-101978750D01*
X85060523Y-101978750D02*
X85108142Y-101931131D01*
X85108142Y-101931131D02*
X85155761Y-101835893D01*
X85155761Y-101835893D02*
X85155761Y-101788274D01*
X85155761Y-101788274D02*
X85108142Y-101693036D01*
X85108142Y-101693036D02*
X85060523Y-101645417D01*
X85060523Y-101645417D02*
X84965285Y-101597798D01*
X84965285Y-101597798D02*
X84774809Y-101597798D01*
X84774809Y-101597798D02*
X84679571Y-101645417D01*
X84679571Y-101645417D02*
X84631952Y-101693036D01*
X84631952Y-101693036D02*
X84584333Y-101788274D01*
X84584333Y-101788274D02*
X84584333Y-101835893D01*
X84584333Y-101835893D02*
X84631952Y-101931131D01*
X84631952Y-101931131D02*
X84679571Y-101978750D01*
X84679571Y-101978750D02*
X84774809Y-102026369D01*
X84774809Y-102026369D02*
X84965285Y-102026369D01*
X84965285Y-102026369D02*
X85060523Y-102073988D01*
X85060523Y-102073988D02*
X85108142Y-102121607D01*
X85108142Y-102121607D02*
X85155761Y-102216845D01*
X85155761Y-102216845D02*
X85155761Y-102407321D01*
X85155761Y-102407321D02*
X85108142Y-102502559D01*
X85108142Y-102502559D02*
X85060523Y-102550179D01*
X85060523Y-102550179D02*
X84965285Y-102597798D01*
X84965285Y-102597798D02*
X84774809Y-102597798D01*
X84774809Y-102597798D02*
X84679571Y-102550179D01*
X84679571Y-102550179D02*
X84631952Y-102502559D01*
X84631952Y-102502559D02*
X84584333Y-102407321D01*
X84584333Y-102407321D02*
X84584333Y-102216845D01*
X84584333Y-102216845D02*
X84631952Y-102121607D01*
X84631952Y-102121607D02*
X84679571Y-102073988D01*
X84679571Y-102073988D02*
X84774809Y-102026369D01*
X86584333Y-81339968D02*
X86584333Y-82054253D01*
X86584333Y-82054253D02*
X86631952Y-82197110D01*
X86631952Y-82197110D02*
X86727190Y-82292349D01*
X86727190Y-82292349D02*
X86870047Y-82339968D01*
X86870047Y-82339968D02*
X86965285Y-82339968D01*
X86108142Y-82339968D02*
X86108142Y-81339968D01*
X86108142Y-81339968D02*
X85727190Y-81339968D01*
X85727190Y-81339968D02*
X85631952Y-81387587D01*
X85631952Y-81387587D02*
X85584333Y-81435206D01*
X85584333Y-81435206D02*
X85536714Y-81530444D01*
X85536714Y-81530444D02*
X85536714Y-81673301D01*
X85536714Y-81673301D02*
X85584333Y-81768539D01*
X85584333Y-81768539D02*
X85631952Y-81816158D01*
X85631952Y-81816158D02*
X85727190Y-81863777D01*
X85727190Y-81863777D02*
X86108142Y-81863777D01*
X85155761Y-81435206D02*
X85108142Y-81387587D01*
X85108142Y-81387587D02*
X85012904Y-81339968D01*
X85012904Y-81339968D02*
X84774809Y-81339968D01*
X84774809Y-81339968D02*
X84679571Y-81387587D01*
X84679571Y-81387587D02*
X84631952Y-81435206D01*
X84631952Y-81435206D02*
X84584333Y-81530444D01*
X84584333Y-81530444D02*
X84584333Y-81625682D01*
X84584333Y-81625682D02*
X84631952Y-81768539D01*
X84631952Y-81768539D02*
X85203380Y-82339968D01*
X85203380Y-82339968D02*
X84584333Y-82339968D01*
X86584333Y-98221493D02*
X86584333Y-98935778D01*
X86584333Y-98935778D02*
X86631952Y-99078635D01*
X86631952Y-99078635D02*
X86727190Y-99173874D01*
X86727190Y-99173874D02*
X86870047Y-99221493D01*
X86870047Y-99221493D02*
X86965285Y-99221493D01*
X86108142Y-99221493D02*
X86108142Y-98221493D01*
X86108142Y-98221493D02*
X85727190Y-98221493D01*
X85727190Y-98221493D02*
X85631952Y-98269112D01*
X85631952Y-98269112D02*
X85584333Y-98316731D01*
X85584333Y-98316731D02*
X85536714Y-98411969D01*
X85536714Y-98411969D02*
X85536714Y-98554826D01*
X85536714Y-98554826D02*
X85584333Y-98650064D01*
X85584333Y-98650064D02*
X85631952Y-98697683D01*
X85631952Y-98697683D02*
X85727190Y-98745302D01*
X85727190Y-98745302D02*
X86108142Y-98745302D01*
X85203380Y-98221493D02*
X84536714Y-98221493D01*
X84536714Y-98221493D02*
X84965285Y-99221493D01*
X86584333Y-91468883D02*
X86584333Y-92183168D01*
X86584333Y-92183168D02*
X86631952Y-92326025D01*
X86631952Y-92326025D02*
X86727190Y-92421264D01*
X86727190Y-92421264D02*
X86870047Y-92468883D01*
X86870047Y-92468883D02*
X86965285Y-92468883D01*
X86108142Y-92468883D02*
X86108142Y-91468883D01*
X86108142Y-91468883D02*
X85727190Y-91468883D01*
X85727190Y-91468883D02*
X85631952Y-91516502D01*
X85631952Y-91516502D02*
X85584333Y-91564121D01*
X85584333Y-91564121D02*
X85536714Y-91659359D01*
X85536714Y-91659359D02*
X85536714Y-91802216D01*
X85536714Y-91802216D02*
X85584333Y-91897454D01*
X85584333Y-91897454D02*
X85631952Y-91945073D01*
X85631952Y-91945073D02*
X85727190Y-91992692D01*
X85727190Y-91992692D02*
X86108142Y-91992692D01*
X84631952Y-91468883D02*
X85108142Y-91468883D01*
X85108142Y-91468883D02*
X85155761Y-91945073D01*
X85155761Y-91945073D02*
X85108142Y-91897454D01*
X85108142Y-91897454D02*
X85012904Y-91849835D01*
X85012904Y-91849835D02*
X84774809Y-91849835D01*
X84774809Y-91849835D02*
X84679571Y-91897454D01*
X84679571Y-91897454D02*
X84631952Y-91945073D01*
X84631952Y-91945073D02*
X84584333Y-92040311D01*
X84584333Y-92040311D02*
X84584333Y-92278406D01*
X84584333Y-92278406D02*
X84631952Y-92373644D01*
X84631952Y-92373644D02*
X84679571Y-92421264D01*
X84679571Y-92421264D02*
X84774809Y-92468883D01*
X84774809Y-92468883D02*
X85012904Y-92468883D01*
X85012904Y-92468883D02*
X85108142Y-92421264D01*
X85108142Y-92421264D02*
X85155761Y-92373644D01*
X86584333Y-104974103D02*
X86584333Y-105688388D01*
X86584333Y-105688388D02*
X86631952Y-105831245D01*
X86631952Y-105831245D02*
X86727190Y-105926484D01*
X86727190Y-105926484D02*
X86870047Y-105974103D01*
X86870047Y-105974103D02*
X86965285Y-105974103D01*
X86108142Y-105974103D02*
X86108142Y-104974103D01*
X86108142Y-104974103D02*
X85727190Y-104974103D01*
X85727190Y-104974103D02*
X85631952Y-105021722D01*
X85631952Y-105021722D02*
X85584333Y-105069341D01*
X85584333Y-105069341D02*
X85536714Y-105164579D01*
X85536714Y-105164579D02*
X85536714Y-105307436D01*
X85536714Y-105307436D02*
X85584333Y-105402674D01*
X85584333Y-105402674D02*
X85631952Y-105450293D01*
X85631952Y-105450293D02*
X85727190Y-105497912D01*
X85727190Y-105497912D02*
X86108142Y-105497912D01*
X85060523Y-105974103D02*
X84870047Y-105974103D01*
X84870047Y-105974103D02*
X84774809Y-105926484D01*
X84774809Y-105926484D02*
X84727190Y-105878864D01*
X84727190Y-105878864D02*
X84631952Y-105736007D01*
X84631952Y-105736007D02*
X84584333Y-105545531D01*
X84584333Y-105545531D02*
X84584333Y-105164579D01*
X84584333Y-105164579D02*
X84631952Y-105069341D01*
X84631952Y-105069341D02*
X84679571Y-105021722D01*
X84679571Y-105021722D02*
X84774809Y-104974103D01*
X84774809Y-104974103D02*
X84965285Y-104974103D01*
X84965285Y-104974103D02*
X85060523Y-105021722D01*
X85060523Y-105021722D02*
X85108142Y-105069341D01*
X85108142Y-105069341D02*
X85155761Y-105164579D01*
X85155761Y-105164579D02*
X85155761Y-105402674D01*
X85155761Y-105402674D02*
X85108142Y-105497912D01*
X85108142Y-105497912D02*
X85060523Y-105545531D01*
X85060523Y-105545531D02*
X84965285Y-105593150D01*
X84965285Y-105593150D02*
X84774809Y-105593150D01*
X84774809Y-105593150D02*
X84679571Y-105545531D01*
X84679571Y-105545531D02*
X84631952Y-105497912D01*
X84631952Y-105497912D02*
X84584333Y-105402674D01*
X86584333Y-88092578D02*
X86584333Y-88806863D01*
X86584333Y-88806863D02*
X86631952Y-88949720D01*
X86631952Y-88949720D02*
X86727190Y-89044959D01*
X86727190Y-89044959D02*
X86870047Y-89092578D01*
X86870047Y-89092578D02*
X86965285Y-89092578D01*
X86108142Y-89092578D02*
X86108142Y-88092578D01*
X86108142Y-88092578D02*
X85727190Y-88092578D01*
X85727190Y-88092578D02*
X85631952Y-88140197D01*
X85631952Y-88140197D02*
X85584333Y-88187816D01*
X85584333Y-88187816D02*
X85536714Y-88283054D01*
X85536714Y-88283054D02*
X85536714Y-88425911D01*
X85536714Y-88425911D02*
X85584333Y-88521149D01*
X85584333Y-88521149D02*
X85631952Y-88568768D01*
X85631952Y-88568768D02*
X85727190Y-88616387D01*
X85727190Y-88616387D02*
X86108142Y-88616387D01*
X84679571Y-88425911D02*
X84679571Y-89092578D01*
X84917666Y-88044959D02*
X85155761Y-88759244D01*
X85155761Y-88759244D02*
X84536714Y-88759244D01*
X86584333Y-77963663D02*
X86584333Y-78677948D01*
X86584333Y-78677948D02*
X86631952Y-78820805D01*
X86631952Y-78820805D02*
X86727190Y-78916044D01*
X86727190Y-78916044D02*
X86870047Y-78963663D01*
X86870047Y-78963663D02*
X86965285Y-78963663D01*
X86108142Y-78963663D02*
X86108142Y-77963663D01*
X86108142Y-77963663D02*
X85727190Y-77963663D01*
X85727190Y-77963663D02*
X85631952Y-78011282D01*
X85631952Y-78011282D02*
X85584333Y-78058901D01*
X85584333Y-78058901D02*
X85536714Y-78154139D01*
X85536714Y-78154139D02*
X85536714Y-78296996D01*
X85536714Y-78296996D02*
X85584333Y-78392234D01*
X85584333Y-78392234D02*
X85631952Y-78439853D01*
X85631952Y-78439853D02*
X85727190Y-78487472D01*
X85727190Y-78487472D02*
X86108142Y-78487472D01*
X84584333Y-78963663D02*
X85155761Y-78963663D01*
X84870047Y-78963663D02*
X84870047Y-77963663D01*
X84870047Y-77963663D02*
X84965285Y-78106520D01*
X84965285Y-78106520D02*
X85060523Y-78201758D01*
X85060523Y-78201758D02*
X85155761Y-78249377D01*
D11*
X80073000Y-95744525D02*
X80073000Y-95144525D01*
X80723000Y-94444525D02*
X83523000Y-94444525D01*
X83523000Y-96444525D02*
X80723000Y-96444525D01*
X84173000Y-95144525D02*
X84173000Y-95744525D01*
X80073000Y-95144525D02*
G75*
G02*
X80773000Y-94444525I700000J0D01*
G01*
X80773000Y-96444525D02*
G75*
G02*
X80073000Y-95744525I0J700000D01*
G01*
X83473000Y-94444525D02*
G75*
G02*
X84173000Y-95144525I1J-699999D01*
G01*
X84173000Y-95744525D02*
G75*
G02*
X83473000Y-96444525I-699999J-1D01*
G01*
X80073000Y-85615610D02*
X80073000Y-85015610D01*
X80723000Y-84315610D02*
X83523000Y-84315610D01*
X83523000Y-86315610D02*
X80723000Y-86315610D01*
X84173000Y-85015610D02*
X84173000Y-85615610D01*
X80073000Y-85015610D02*
G75*
G02*
X80773000Y-84315610I700000J0D01*
G01*
X80773000Y-86315610D02*
G75*
G02*
X80073000Y-85615610I0J700000D01*
G01*
X83473000Y-84315610D02*
G75*
G02*
X84173000Y-85015610I1J-699999D01*
G01*
X84173000Y-85615610D02*
G75*
G02*
X83473000Y-86315610I-699999J-1D01*
G01*
X80073000Y-102497135D02*
X80073000Y-101897135D01*
X80723000Y-101197135D02*
X83523000Y-101197135D01*
X83523000Y-103197135D02*
X80723000Y-103197135D01*
X84173000Y-101897135D02*
X84173000Y-102497135D01*
X80073000Y-101897135D02*
G75*
G02*
X80773000Y-101197135I700000J0D01*
G01*
X80773000Y-103197135D02*
G75*
G02*
X80073000Y-102497135I0J700000D01*
G01*
X83473000Y-101197135D02*
G75*
G02*
X84173000Y-101897135I1J-699999D01*
G01*
X84173000Y-102497135D02*
G75*
G02*
X83473000Y-103197135I-699999J-1D01*
G01*
X80073000Y-82239305D02*
X80073000Y-81639305D01*
X80723000Y-80939305D02*
X83523000Y-80939305D01*
X83523000Y-82939305D02*
X80723000Y-82939305D01*
X84173000Y-81639305D02*
X84173000Y-82239305D01*
X80073000Y-81639305D02*
G75*
G02*
X80773000Y-80939305I700000J0D01*
G01*
X80773000Y-82939305D02*
G75*
G02*
X80073000Y-82239305I0J700000D01*
G01*
X83473000Y-80939305D02*
G75*
G02*
X84173000Y-81639305I1J-699999D01*
G01*
X84173000Y-82239305D02*
G75*
G02*
X83473000Y-82939305I-699999J-1D01*
G01*
X80073000Y-99120830D02*
X80073000Y-98520830D01*
X80723000Y-97820830D02*
X83523000Y-97820830D01*
X83523000Y-99820830D02*
X80723000Y-99820830D01*
X84173000Y-98520830D02*
X84173000Y-99120830D01*
X80073000Y-98520830D02*
G75*
G02*
X80773000Y-97820830I700000J0D01*
G01*
X80773000Y-99820830D02*
G75*
G02*
X80073000Y-99120830I0J700000D01*
G01*
X83473000Y-97820830D02*
G75*
G02*
X84173000Y-98520830I1J-699999D01*
G01*
X84173000Y-99120830D02*
G75*
G02*
X83473000Y-99820830I-699999J-1D01*
G01*
X80073000Y-92368220D02*
X80073000Y-91768220D01*
X80723000Y-91068220D02*
X83523000Y-91068220D01*
X83523000Y-93068220D02*
X80723000Y-93068220D01*
X84173000Y-91768220D02*
X84173000Y-92368220D01*
X80073000Y-91768220D02*
G75*
G02*
X80773000Y-91068220I700000J0D01*
G01*
X80773000Y-93068220D02*
G75*
G02*
X80073000Y-92368220I0J700000D01*
G01*
X83473000Y-91068220D02*
G75*
G02*
X84173000Y-91768220I1J-699999D01*
G01*
X84173000Y-92368220D02*
G75*
G02*
X83473000Y-93068220I-699999J-1D01*
G01*
X80073000Y-105873440D02*
X80073000Y-105273440D01*
X80723000Y-104573440D02*
X83523000Y-104573440D01*
X83523000Y-106573440D02*
X80723000Y-106573440D01*
X84173000Y-105273440D02*
X84173000Y-105873440D01*
X80073000Y-105273440D02*
G75*
G02*
X80773000Y-104573440I700000J0D01*
G01*
X80773000Y-106573440D02*
G75*
G02*
X80073000Y-105873440I0J700000D01*
G01*
X83473000Y-104573440D02*
G75*
G02*
X84173000Y-105273440I1J-699999D01*
G01*
X84173000Y-105873440D02*
G75*
G02*
X83473000Y-106573440I-699999J-1D01*
G01*
X80073000Y-88991915D02*
X80073000Y-88391915D01*
X80723000Y-87691915D02*
X83523000Y-87691915D01*
X83523000Y-89691915D02*
X80723000Y-89691915D01*
X84173000Y-88391915D02*
X84173000Y-88991915D01*
X80073000Y-88391915D02*
G75*
G02*
X80773000Y-87691915I700000J0D01*
G01*
X80773000Y-89691915D02*
G75*
G02*
X80073000Y-88991915I0J700000D01*
G01*
X83473000Y-87691915D02*
G75*
G02*
X84173000Y-88391915I1J-699999D01*
G01*
X84173000Y-88991915D02*
G75*
G02*
X83473000Y-89691915I-699999J-1D01*
G01*
X80073000Y-78863000D02*
X80073000Y-78263000D01*
X80723000Y-77563000D02*
X83523000Y-77563000D01*
X83523000Y-79563000D02*
X80723000Y-79563000D01*
X84173000Y-78263000D02*
X84173000Y-78863000D01*
X80073000Y-78263000D02*
G75*
G02*
X80773000Y-77563000I700000J0D01*
G01*
X80773000Y-79563000D02*
G75*
G02*
X80073000Y-78863000I0J700000D01*
G01*
X83473000Y-77563000D02*
G75*
G02*
X84173000Y-78263000I1J-699999D01*
G01*
X84173000Y-78863000D02*
G75*
G02*
X83473000Y-79563000I-699999J-1D01*
G01*
%LPC*%
D12*
X106680000Y-76200000D03*
D13*
X106680000Y-78740000D03*
X106680000Y-81280000D03*
X106680000Y-83820000D03*
X106680000Y-86360000D03*
X106680000Y-88900000D03*
X106680000Y-91440000D03*
X106680000Y-93980000D03*
X106680000Y-96520000D03*
X106680000Y-99060000D03*
X114300000Y-99060000D03*
X114300000Y-96520000D03*
X114300000Y-93980000D03*
X114300000Y-91440000D03*
X114300000Y-88900000D03*
X114300000Y-86360000D03*
X114300000Y-83820000D03*
X114300000Y-81280000D03*
X114300000Y-78740000D03*
X114300000Y-76200000D03*
D14*
X68580000Y-76200000D03*
D15*
X71120000Y-76200000D03*
X68580000Y-78740000D03*
X71120000Y-78740000D03*
X68580000Y-81280000D03*
X71120000Y-81280000D03*
X68580000Y-83820000D03*
X71120000Y-83820000D03*
X68580000Y-86360000D03*
X71120000Y-86360000D03*
X68580000Y-88900000D03*
X71120000Y-88900000D03*
X68580000Y-91440000D03*
X71120000Y-91440000D03*
X68580000Y-93980000D03*
X71120000Y-93980000D03*
X68580000Y-96520000D03*
X71120000Y-96520000D03*
X68580000Y-99060000D03*
X71120000Y-99060000D03*
D12*
X99060000Y-104140000D03*
D13*
X99060000Y-106680000D03*
X99060000Y-109220000D03*
X99060000Y-111760000D03*
X99060000Y-114300000D03*
X99060000Y-116840000D03*
X99060000Y-119380000D03*
X99060000Y-121920000D03*
X99060000Y-124460000D03*
X99060000Y-127000000D03*
X99060000Y-129540000D03*
X99060000Y-132080000D03*
X99060000Y-134620000D03*
X99060000Y-137160000D03*
X114300000Y-137160000D03*
X114300000Y-134620000D03*
X114300000Y-132080000D03*
X114300000Y-129540000D03*
X114300000Y-127000000D03*
X114300000Y-124460000D03*
X114300000Y-121920000D03*
X114300000Y-119380000D03*
X114300000Y-116840000D03*
X114300000Y-114300000D03*
X114300000Y-111760000D03*
X114300000Y-109220000D03*
X114300000Y-106680000D03*
X114300000Y-104140000D03*
D12*
X76200000Y-76200000D03*
D13*
X76200000Y-78740000D03*
X76200000Y-81280000D03*
X76200000Y-83820000D03*
X76200000Y-86360000D03*
X76200000Y-88900000D03*
X76200000Y-91440000D03*
X76200000Y-93980000D03*
X76200000Y-96520000D03*
X76200000Y-99060000D03*
X76200000Y-101600000D03*
X76200000Y-104140000D03*
X76200000Y-106680000D03*
X76200000Y-109220000D03*
X76200000Y-111760000D03*
X76200000Y-114300000D03*
X76200000Y-116840000D03*
X76200000Y-119380000D03*
X76200000Y-121920000D03*
X76200000Y-124460000D03*
X91440000Y-124460000D03*
X91440000Y-121920000D03*
X91440000Y-119380000D03*
X91440000Y-116840000D03*
X91440000Y-114300000D03*
X91440000Y-111760000D03*
X91440000Y-109220000D03*
X91440000Y-106680000D03*
X91440000Y-104140000D03*
X91440000Y-101600000D03*
X91440000Y-99060000D03*
X91440000Y-96520000D03*
X91440000Y-93980000D03*
X91440000Y-91440000D03*
X91440000Y-88900000D03*
X91440000Y-86360000D03*
X91440000Y-83820000D03*
X91440000Y-81280000D03*
X91440000Y-78740000D03*
X91440000Y-76200000D03*
D14*
X96520000Y-76200000D03*
D15*
X99060000Y-76200000D03*
X96520000Y-78740000D03*
X99060000Y-78740000D03*
X96520000Y-81280000D03*
X99060000Y-81280000D03*
X96520000Y-83820000D03*
X99060000Y-83820000D03*
X96520000Y-86360000D03*
X99060000Y-86360000D03*
X96520000Y-88900000D03*
X99060000Y-88900000D03*
X96520000Y-91440000D03*
X99060000Y-91440000D03*
X96520000Y-93980000D03*
X99060000Y-93980000D03*
X96520000Y-96520000D03*
X99060000Y-96520000D03*
X96520000Y-99060000D03*
X99060000Y-99060000D03*
D16*
X86360000Y-134620000D03*
D15*
X88900000Y-134620000D03*
X91440000Y-134620000D03*
D17*
X70612000Y-123190000D03*
D18*
X70612000Y-125690000D03*
D16*
X86360000Y-132080000D03*
D15*
X88900000Y-132080000D03*
X91440000Y-132080000D03*
D17*
X70612000Y-117348000D03*
D18*
X70612000Y-119848000D03*
D12*
X68580000Y-129540000D03*
D13*
X68580000Y-132080000D03*
X68580000Y-134620000D03*
X68580000Y-137160000D03*
X76200000Y-137160000D03*
X76200000Y-134620000D03*
X76200000Y-132080000D03*
X76200000Y-129540000D03*
D16*
X86360000Y-129540000D03*
D15*
X88900000Y-129540000D03*
X91440000Y-129540000D03*
D16*
X86360000Y-137160000D03*
D15*
X88900000Y-137160000D03*
X91440000Y-137160000D03*
D18*
X95250000Y-104140000D03*
D13*
X95250000Y-116840000D03*
D18*
X102870000Y-86360000D03*
D13*
X102870000Y-99060000D03*
D19*
X68580000Y-107950000D03*
D20*
X71080000Y-112950000D03*
X73580000Y-107950000D03*
D14*
X102870000Y-76200000D03*
D15*
X102870000Y-78740000D03*
D21*
X83423000Y-95444525D03*
D22*
X82123000Y-95444525D03*
D23*
X80823000Y-95444525D03*
D21*
X83423000Y-85315610D03*
D22*
X82123000Y-85315610D03*
D23*
X80823000Y-85315610D03*
D21*
X83423000Y-102197135D03*
D22*
X82123000Y-102197135D03*
D23*
X80823000Y-102197135D03*
D21*
X83423000Y-81939305D03*
D22*
X82123000Y-81939305D03*
D23*
X80823000Y-81939305D03*
D21*
X83423000Y-98820830D03*
D22*
X82123000Y-98820830D03*
D23*
X80823000Y-98820830D03*
D21*
X83423000Y-92068220D03*
D22*
X82123000Y-92068220D03*
D23*
X80823000Y-92068220D03*
D21*
X83423000Y-105573440D03*
D22*
X82123000Y-105573440D03*
D23*
X80823000Y-105573440D03*
D21*
X83423000Y-88691915D03*
D22*
X82123000Y-88691915D03*
D23*
X80823000Y-88691915D03*
D21*
X83423000Y-78563000D03*
D22*
X82123000Y-78563000D03*
D23*
X80823000Y-78563000D03*
%LPD*%
M02*
