G04 #@! TF.GenerationSoftware,KiCad,Pcbnew,8.0.6*
G04 #@! TF.CreationDate,2025-02-13T00:08:43+01:00*
G04 #@! TF.ProjectId,board_v1,626f6172-645f-4763-912e-6b696361645f,rev?*
G04 #@! TF.SameCoordinates,Original*
G04 #@! TF.FileFunction,Legend,Top*
G04 #@! TF.FilePolarity,Positive*
%FSLAX46Y46*%
G04 Gerber Fmt 4.6, Leading zero omitted, Abs format (unit mm)*
G04 Created by KiCad (PCBNEW 8.0.6) date 2025-02-13 00:08:43*
%MOMM*%
%LPD*%
G01*
G04 APERTURE LIST*
G04 Aperture macros list*
%AMRoundRect*
0 Rectangle with rounded corners*
0 $1 Rounding radius*
0 $2 $3 $4 $5 $6 $7 $8 $9 X,Y pos of 4 corners*
0 Add a 4 corners polygon primitive as box body*
4,1,4,$2,$3,$4,$5,$6,$7,$8,$9,$2,$3,0*
0 Add four circle primitives for the rounded corners*
1,1,$1+$1,$2,$3*
1,1,$1+$1,$4,$5*
1,1,$1+$1,$6,$7*
1,1,$1+$1,$8,$9*
0 Add four rect primitives between the rounded corners*
20,1,$1+$1,$2,$3,$4,$5,0*
20,1,$1+$1,$4,$5,$6,$7,0*
20,1,$1+$1,$6,$7,$8,$9,0*
20,1,$1+$1,$8,$9,$2,$3,0*%
G04 Aperture macros list end*
%ADD10C,0.150000*%
%ADD11C,0.153000*%
%ADD12C,0.120000*%
%ADD13RoundRect,0.038000X-0.800000X-0.800000X0.800000X-0.800000X0.800000X0.800000X-0.800000X0.800000X0*%
%ADD14O,1.676000X1.676000*%
%ADD15RoundRect,0.038000X-0.850000X-0.850000X0.850000X-0.850000X0.850000X0.850000X-0.850000X0.850000X0*%
%ADD16O,1.776000X1.776000*%
%ADD17RoundRect,0.038000X0.850000X-0.850000X0.850000X0.850000X-0.850000X0.850000X-0.850000X-0.850000X0*%
%ADD18RoundRect,0.038000X-0.800000X0.800000X-0.800000X-0.800000X0.800000X-0.800000X0.800000X0.800000X0*%
%ADD19C,1.676000*%
%ADD20RoundRect,0.038000X-0.780000X-0.780000X0.780000X-0.780000X0.780000X0.780000X-0.780000X0.780000X0*%
%ADD21C,1.636000*%
G04 APERTURE END LIST*
D10*
X78740000Y-127000000D02*
X96520000Y-127000000D01*
X96520000Y-139700000D01*
X78740000Y-139700000D01*
X78740000Y-127000000D01*
D11*
X81700952Y-74114663D02*
X81700952Y-73352758D01*
X81510476Y-73543234D02*
X81700952Y-73352758D01*
X81700952Y-73352758D02*
X81891428Y-73543234D01*
X82558095Y-73114663D02*
X82558095Y-73924186D01*
X82558095Y-73924186D02*
X82605714Y-74019424D01*
X82605714Y-74019424D02*
X82653333Y-74067044D01*
X82653333Y-74067044D02*
X82748571Y-74114663D01*
X82748571Y-74114663D02*
X82939047Y-74114663D01*
X82939047Y-74114663D02*
X83034285Y-74067044D01*
X83034285Y-74067044D02*
X83081904Y-74019424D01*
X83081904Y-74019424D02*
X83129523Y-73924186D01*
X83129523Y-73924186D02*
X83129523Y-73114663D01*
X83558095Y-74067044D02*
X83700952Y-74114663D01*
X83700952Y-74114663D02*
X83939047Y-74114663D01*
X83939047Y-74114663D02*
X84034285Y-74067044D01*
X84034285Y-74067044D02*
X84081904Y-74019424D01*
X84081904Y-74019424D02*
X84129523Y-73924186D01*
X84129523Y-73924186D02*
X84129523Y-73828948D01*
X84129523Y-73828948D02*
X84081904Y-73733710D01*
X84081904Y-73733710D02*
X84034285Y-73686091D01*
X84034285Y-73686091D02*
X83939047Y-73638472D01*
X83939047Y-73638472D02*
X83748571Y-73590853D01*
X83748571Y-73590853D02*
X83653333Y-73543234D01*
X83653333Y-73543234D02*
X83605714Y-73495615D01*
X83605714Y-73495615D02*
X83558095Y-73400377D01*
X83558095Y-73400377D02*
X83558095Y-73305139D01*
X83558095Y-73305139D02*
X83605714Y-73209901D01*
X83605714Y-73209901D02*
X83653333Y-73162282D01*
X83653333Y-73162282D02*
X83748571Y-73114663D01*
X83748571Y-73114663D02*
X83986666Y-73114663D01*
X83986666Y-73114663D02*
X84129523Y-73162282D01*
X84891428Y-73590853D02*
X85034285Y-73638472D01*
X85034285Y-73638472D02*
X85081904Y-73686091D01*
X85081904Y-73686091D02*
X85129523Y-73781329D01*
X85129523Y-73781329D02*
X85129523Y-73924186D01*
X85129523Y-73924186D02*
X85081904Y-74019424D01*
X85081904Y-74019424D02*
X85034285Y-74067044D01*
X85034285Y-74067044D02*
X84939047Y-74114663D01*
X84939047Y-74114663D02*
X84558095Y-74114663D01*
X84558095Y-74114663D02*
X84558095Y-73114663D01*
X84558095Y-73114663D02*
X84891428Y-73114663D01*
X84891428Y-73114663D02*
X84986666Y-73162282D01*
X84986666Y-73162282D02*
X85034285Y-73209901D01*
X85034285Y-73209901D02*
X85081904Y-73305139D01*
X85081904Y-73305139D02*
X85081904Y-73400377D01*
X85081904Y-73400377D02*
X85034285Y-73495615D01*
X85034285Y-73495615D02*
X84986666Y-73543234D01*
X84986666Y-73543234D02*
X84891428Y-73590853D01*
X84891428Y-73590853D02*
X84558095Y-73590853D01*
X85939047Y-74114663D02*
X85939047Y-73352758D01*
X85748571Y-73543234D02*
X85939047Y-73352758D01*
X85939047Y-73352758D02*
X86129523Y-73543234D01*
X93588514Y-136614663D02*
X94207561Y-136614663D01*
X94207561Y-136614663D02*
X93874228Y-136995615D01*
X93874228Y-136995615D02*
X94017085Y-136995615D01*
X94017085Y-136995615D02*
X94112323Y-137043234D01*
X94112323Y-137043234D02*
X94159942Y-137090853D01*
X94159942Y-137090853D02*
X94207561Y-137186091D01*
X94207561Y-137186091D02*
X94207561Y-137424186D01*
X94207561Y-137424186D02*
X94159942Y-137519424D01*
X94159942Y-137519424D02*
X94112323Y-137567044D01*
X94112323Y-137567044D02*
X94017085Y-137614663D01*
X94017085Y-137614663D02*
X93731371Y-137614663D01*
X93731371Y-137614663D02*
X93636133Y-137567044D01*
X93636133Y-137567044D02*
X93588514Y-137519424D01*
X94588514Y-136709901D02*
X94636133Y-136662282D01*
X94636133Y-136662282D02*
X94731371Y-136614663D01*
X94731371Y-136614663D02*
X94969466Y-136614663D01*
X94969466Y-136614663D02*
X95064704Y-136662282D01*
X95064704Y-136662282D02*
X95112323Y-136709901D01*
X95112323Y-136709901D02*
X95159942Y-136805139D01*
X95159942Y-136805139D02*
X95159942Y-136900377D01*
X95159942Y-136900377D02*
X95112323Y-137043234D01*
X95112323Y-137043234D02*
X94540895Y-137614663D01*
X94540895Y-137614663D02*
X95159942Y-137614663D01*
X95588514Y-137614663D02*
X95588514Y-136614663D01*
X96159942Y-137614663D02*
X95731371Y-137043234D01*
X96159942Y-136614663D02*
X95588514Y-137186091D01*
X94207561Y-135074663D02*
X93636133Y-135074663D01*
X93921847Y-135074663D02*
X93921847Y-134074663D01*
X93921847Y-134074663D02*
X93826609Y-134217520D01*
X93826609Y-134217520D02*
X93731371Y-134312758D01*
X93731371Y-134312758D02*
X93636133Y-134360377D01*
X95064704Y-134074663D02*
X94874228Y-134074663D01*
X94874228Y-134074663D02*
X94778990Y-134122282D01*
X94778990Y-134122282D02*
X94731371Y-134169901D01*
X94731371Y-134169901D02*
X94636133Y-134312758D01*
X94636133Y-134312758D02*
X94588514Y-134503234D01*
X94588514Y-134503234D02*
X94588514Y-134884186D01*
X94588514Y-134884186D02*
X94636133Y-134979424D01*
X94636133Y-134979424D02*
X94683752Y-135027044D01*
X94683752Y-135027044D02*
X94778990Y-135074663D01*
X94778990Y-135074663D02*
X94969466Y-135074663D01*
X94969466Y-135074663D02*
X95064704Y-135027044D01*
X95064704Y-135027044D02*
X95112323Y-134979424D01*
X95112323Y-134979424D02*
X95159942Y-134884186D01*
X95159942Y-134884186D02*
X95159942Y-134646091D01*
X95159942Y-134646091D02*
X95112323Y-134550853D01*
X95112323Y-134550853D02*
X95064704Y-134503234D01*
X95064704Y-134503234D02*
X94969466Y-134455615D01*
X94969466Y-134455615D02*
X94778990Y-134455615D01*
X94778990Y-134455615D02*
X94683752Y-134503234D01*
X94683752Y-134503234D02*
X94636133Y-134550853D01*
X94636133Y-134550853D02*
X94588514Y-134646091D01*
X95588514Y-135074663D02*
X95588514Y-134074663D01*
X96159942Y-135074663D02*
X95731371Y-134503234D01*
X96159942Y-134074663D02*
X95588514Y-134646091D01*
X93826609Y-131963234D02*
X93731371Y-131915615D01*
X93731371Y-131915615D02*
X93683752Y-131867996D01*
X93683752Y-131867996D02*
X93636133Y-131772758D01*
X93636133Y-131772758D02*
X93636133Y-131725139D01*
X93636133Y-131725139D02*
X93683752Y-131629901D01*
X93683752Y-131629901D02*
X93731371Y-131582282D01*
X93731371Y-131582282D02*
X93826609Y-131534663D01*
X93826609Y-131534663D02*
X94017085Y-131534663D01*
X94017085Y-131534663D02*
X94112323Y-131582282D01*
X94112323Y-131582282D02*
X94159942Y-131629901D01*
X94159942Y-131629901D02*
X94207561Y-131725139D01*
X94207561Y-131725139D02*
X94207561Y-131772758D01*
X94207561Y-131772758D02*
X94159942Y-131867996D01*
X94159942Y-131867996D02*
X94112323Y-131915615D01*
X94112323Y-131915615D02*
X94017085Y-131963234D01*
X94017085Y-131963234D02*
X93826609Y-131963234D01*
X93826609Y-131963234D02*
X93731371Y-132010853D01*
X93731371Y-132010853D02*
X93683752Y-132058472D01*
X93683752Y-132058472D02*
X93636133Y-132153710D01*
X93636133Y-132153710D02*
X93636133Y-132344186D01*
X93636133Y-132344186D02*
X93683752Y-132439424D01*
X93683752Y-132439424D02*
X93731371Y-132487044D01*
X93731371Y-132487044D02*
X93826609Y-132534663D01*
X93826609Y-132534663D02*
X94017085Y-132534663D01*
X94017085Y-132534663D02*
X94112323Y-132487044D01*
X94112323Y-132487044D02*
X94159942Y-132439424D01*
X94159942Y-132439424D02*
X94207561Y-132344186D01*
X94207561Y-132344186D02*
X94207561Y-132153710D01*
X94207561Y-132153710D02*
X94159942Y-132058472D01*
X94159942Y-132058472D02*
X94112323Y-132010853D01*
X94112323Y-132010853D02*
X94017085Y-131963234D01*
X94636133Y-132534663D02*
X94636133Y-131534663D01*
X95207561Y-132534663D02*
X94778990Y-131963234D01*
X95207561Y-131534663D02*
X94636133Y-132106091D01*
X80514663Y-135614819D02*
X80038472Y-135948152D01*
X80514663Y-136186247D02*
X79514663Y-136186247D01*
X79514663Y-136186247D02*
X79514663Y-135805295D01*
X79514663Y-135805295D02*
X79562282Y-135710057D01*
X79562282Y-135710057D02*
X79609901Y-135662438D01*
X79609901Y-135662438D02*
X79705139Y-135614819D01*
X79705139Y-135614819D02*
X79847996Y-135614819D01*
X79847996Y-135614819D02*
X79943234Y-135662438D01*
X79943234Y-135662438D02*
X79990853Y-135710057D01*
X79990853Y-135710057D02*
X80038472Y-135805295D01*
X80038472Y-135805295D02*
X80038472Y-136186247D01*
X80228948Y-135233866D02*
X80228948Y-134757676D01*
X80514663Y-135329104D02*
X79514663Y-134995771D01*
X79514663Y-134995771D02*
X80514663Y-134662438D01*
X80514663Y-134329104D02*
X79514663Y-134329104D01*
X79514663Y-134329104D02*
X80228948Y-133995771D01*
X80228948Y-133995771D02*
X79514663Y-133662438D01*
X79514663Y-133662438D02*
X80514663Y-133662438D01*
X80467044Y-132471961D02*
X80514663Y-132329104D01*
X80514663Y-132329104D02*
X80514663Y-132091009D01*
X80514663Y-132091009D02*
X80467044Y-131995771D01*
X80467044Y-131995771D02*
X80419424Y-131948152D01*
X80419424Y-131948152D02*
X80324186Y-131900533D01*
X80324186Y-131900533D02*
X80228948Y-131900533D01*
X80228948Y-131900533D02*
X80133710Y-131948152D01*
X80133710Y-131948152D02*
X80086091Y-131995771D01*
X80086091Y-131995771D02*
X80038472Y-132091009D01*
X80038472Y-132091009D02*
X79990853Y-132281485D01*
X79990853Y-132281485D02*
X79943234Y-132376723D01*
X79943234Y-132376723D02*
X79895615Y-132424342D01*
X79895615Y-132424342D02*
X79800377Y-132471961D01*
X79800377Y-132471961D02*
X79705139Y-132471961D01*
X79705139Y-132471961D02*
X79609901Y-132424342D01*
X79609901Y-132424342D02*
X79562282Y-132376723D01*
X79562282Y-132376723D02*
X79514663Y-132281485D01*
X79514663Y-132281485D02*
X79514663Y-132043390D01*
X79514663Y-132043390D02*
X79562282Y-131900533D01*
X80514663Y-131471961D02*
X79514663Y-131471961D01*
X79514663Y-131091009D02*
X79514663Y-130424343D01*
X79514663Y-130424343D02*
X80514663Y-131091009D01*
X80514663Y-131091009D02*
X80514663Y-130424343D01*
X79990853Y-130043390D02*
X79990853Y-129710057D01*
X80514663Y-129567200D02*
X80514663Y-130043390D01*
X80514663Y-130043390D02*
X79514663Y-130043390D01*
X79514663Y-130043390D02*
X79514663Y-129567200D01*
X94112323Y-129327996D02*
X94112323Y-129994663D01*
X93874228Y-128947044D02*
X93636133Y-129661329D01*
X93636133Y-129661329D02*
X94255180Y-129661329D01*
X94636133Y-129994663D02*
X94636133Y-128994663D01*
X95207561Y-129994663D02*
X94778990Y-129423234D01*
X95207561Y-128994663D02*
X94636133Y-129566091D01*
X109728095Y-73324663D02*
X109728095Y-74134186D01*
X109728095Y-74134186D02*
X109775714Y-74229424D01*
X109775714Y-74229424D02*
X109823333Y-74277044D01*
X109823333Y-74277044D02*
X109918571Y-74324663D01*
X109918571Y-74324663D02*
X110109047Y-74324663D01*
X110109047Y-74324663D02*
X110204285Y-74277044D01*
X110204285Y-74277044D02*
X110251904Y-74229424D01*
X110251904Y-74229424D02*
X110299523Y-74134186D01*
X110299523Y-74134186D02*
X110299523Y-73324663D01*
X110680476Y-73324663D02*
X111299523Y-73324663D01*
X111299523Y-73324663D02*
X110966190Y-73705615D01*
X110966190Y-73705615D02*
X111109047Y-73705615D01*
X111109047Y-73705615D02*
X111204285Y-73753234D01*
X111204285Y-73753234D02*
X111251904Y-73800853D01*
X111251904Y-73800853D02*
X111299523Y-73896091D01*
X111299523Y-73896091D02*
X111299523Y-74134186D01*
X111299523Y-74134186D02*
X111251904Y-74229424D01*
X111251904Y-74229424D02*
X111204285Y-74277044D01*
X111204285Y-74277044D02*
X111109047Y-74324663D01*
X111109047Y-74324663D02*
X110823333Y-74324663D01*
X110823333Y-74324663D02*
X110728095Y-74277044D01*
X110728095Y-74277044D02*
X110680476Y-74229424D01*
X69516666Y-73324663D02*
X69516666Y-74038948D01*
X69516666Y-74038948D02*
X69469047Y-74181805D01*
X69469047Y-74181805D02*
X69373809Y-74277044D01*
X69373809Y-74277044D02*
X69230952Y-74324663D01*
X69230952Y-74324663D02*
X69135714Y-74324663D01*
X70516666Y-74324663D02*
X69945238Y-74324663D01*
X70230952Y-74324663D02*
X70230952Y-73324663D01*
X70230952Y-73324663D02*
X70135714Y-73467520D01*
X70135714Y-73467520D02*
X70040476Y-73562758D01*
X70040476Y-73562758D02*
X69945238Y-73610377D01*
X105918095Y-101264663D02*
X105918095Y-102074186D01*
X105918095Y-102074186D02*
X105965714Y-102169424D01*
X105965714Y-102169424D02*
X106013333Y-102217044D01*
X106013333Y-102217044D02*
X106108571Y-102264663D01*
X106108571Y-102264663D02*
X106299047Y-102264663D01*
X106299047Y-102264663D02*
X106394285Y-102217044D01*
X106394285Y-102217044D02*
X106441904Y-102169424D01*
X106441904Y-102169424D02*
X106489523Y-102074186D01*
X106489523Y-102074186D02*
X106489523Y-101264663D01*
X106918095Y-101359901D02*
X106965714Y-101312282D01*
X106965714Y-101312282D02*
X107060952Y-101264663D01*
X107060952Y-101264663D02*
X107299047Y-101264663D01*
X107299047Y-101264663D02*
X107394285Y-101312282D01*
X107394285Y-101312282D02*
X107441904Y-101359901D01*
X107441904Y-101359901D02*
X107489523Y-101455139D01*
X107489523Y-101455139D02*
X107489523Y-101550377D01*
X107489523Y-101550377D02*
X107441904Y-101693234D01*
X107441904Y-101693234D02*
X106870476Y-102264663D01*
X106870476Y-102264663D02*
X107489523Y-102264663D01*
X93218095Y-124124663D02*
X93218095Y-124934186D01*
X93218095Y-124934186D02*
X93265714Y-125029424D01*
X93265714Y-125029424D02*
X93313333Y-125077044D01*
X93313333Y-125077044D02*
X93408571Y-125124663D01*
X93408571Y-125124663D02*
X93599047Y-125124663D01*
X93599047Y-125124663D02*
X93694285Y-125077044D01*
X93694285Y-125077044D02*
X93741904Y-125029424D01*
X93741904Y-125029424D02*
X93789523Y-124934186D01*
X93789523Y-124934186D02*
X93789523Y-124124663D01*
X94789523Y-125124663D02*
X94218095Y-125124663D01*
X94503809Y-125124663D02*
X94503809Y-124124663D01*
X94503809Y-124124663D02*
X94408571Y-124267520D01*
X94408571Y-124267520D02*
X94313333Y-124362758D01*
X94313333Y-124362758D02*
X94218095Y-124410377D01*
X97456666Y-73324663D02*
X97456666Y-74038948D01*
X97456666Y-74038948D02*
X97409047Y-74181805D01*
X97409047Y-74181805D02*
X97313809Y-74277044D01*
X97313809Y-74277044D02*
X97170952Y-74324663D01*
X97170952Y-74324663D02*
X97075714Y-74324663D01*
X97885238Y-73419901D02*
X97932857Y-73372282D01*
X97932857Y-73372282D02*
X98028095Y-73324663D01*
X98028095Y-73324663D02*
X98266190Y-73324663D01*
X98266190Y-73324663D02*
X98361428Y-73372282D01*
X98361428Y-73372282D02*
X98409047Y-73419901D01*
X98409047Y-73419901D02*
X98456666Y-73515139D01*
X98456666Y-73515139D02*
X98456666Y-73610377D01*
X98456666Y-73610377D02*
X98409047Y-73753234D01*
X98409047Y-73753234D02*
X97837619Y-74324663D01*
X97837619Y-74324663D02*
X98456666Y-74324663D01*
X81388476Y-133820663D02*
X81388476Y-134534948D01*
X81388476Y-134534948D02*
X81340857Y-134677805D01*
X81340857Y-134677805D02*
X81245619Y-134773044D01*
X81245619Y-134773044D02*
X81102762Y-134820663D01*
X81102762Y-134820663D02*
X81007524Y-134820663D01*
X81864667Y-134820663D02*
X81864667Y-133820663D01*
X81864667Y-133820663D02*
X82245619Y-133820663D01*
X82245619Y-133820663D02*
X82340857Y-133868282D01*
X82340857Y-133868282D02*
X82388476Y-133915901D01*
X82388476Y-133915901D02*
X82436095Y-134011139D01*
X82436095Y-134011139D02*
X82436095Y-134153996D01*
X82436095Y-134153996D02*
X82388476Y-134249234D01*
X82388476Y-134249234D02*
X82340857Y-134296853D01*
X82340857Y-134296853D02*
X82245619Y-134344472D01*
X82245619Y-134344472D02*
X81864667Y-134344472D01*
X83388476Y-134820663D02*
X82817048Y-134820663D01*
X83102762Y-134820663D02*
X83102762Y-133820663D01*
X83102762Y-133820663D02*
X83007524Y-133963520D01*
X83007524Y-133963520D02*
X82912286Y-134058758D01*
X82912286Y-134058758D02*
X82817048Y-134106377D01*
X83721810Y-133820663D02*
X84340857Y-133820663D01*
X84340857Y-133820663D02*
X84007524Y-134201615D01*
X84007524Y-134201615D02*
X84150381Y-134201615D01*
X84150381Y-134201615D02*
X84245619Y-134249234D01*
X84245619Y-134249234D02*
X84293238Y-134296853D01*
X84293238Y-134296853D02*
X84340857Y-134392091D01*
X84340857Y-134392091D02*
X84340857Y-134630186D01*
X84340857Y-134630186D02*
X84293238Y-134725424D01*
X84293238Y-134725424D02*
X84245619Y-134773044D01*
X84245619Y-134773044D02*
X84150381Y-134820663D01*
X84150381Y-134820663D02*
X83864667Y-134820663D01*
X83864667Y-134820663D02*
X83769429Y-134773044D01*
X83769429Y-134773044D02*
X83721810Y-134725424D01*
X73705424Y-122066666D02*
X73753044Y-122114285D01*
X73753044Y-122114285D02*
X73800663Y-122257142D01*
X73800663Y-122257142D02*
X73800663Y-122352380D01*
X73800663Y-122352380D02*
X73753044Y-122495237D01*
X73753044Y-122495237D02*
X73657805Y-122590475D01*
X73657805Y-122590475D02*
X73562567Y-122638094D01*
X73562567Y-122638094D02*
X73372091Y-122685713D01*
X73372091Y-122685713D02*
X73229234Y-122685713D01*
X73229234Y-122685713D02*
X73038758Y-122638094D01*
X73038758Y-122638094D02*
X72943520Y-122590475D01*
X72943520Y-122590475D02*
X72848282Y-122495237D01*
X72848282Y-122495237D02*
X72800663Y-122352380D01*
X72800663Y-122352380D02*
X72800663Y-122257142D01*
X72800663Y-122257142D02*
X72848282Y-122114285D01*
X72848282Y-122114285D02*
X72895901Y-122066666D01*
X73800663Y-121114285D02*
X73800663Y-121685713D01*
X73800663Y-121399999D02*
X72800663Y-121399999D01*
X72800663Y-121399999D02*
X72943520Y-121495237D01*
X72943520Y-121495237D02*
X73038758Y-121590475D01*
X73038758Y-121590475D02*
X73086377Y-121685713D01*
X81388476Y-131280663D02*
X81388476Y-131994948D01*
X81388476Y-131994948D02*
X81340857Y-132137805D01*
X81340857Y-132137805D02*
X81245619Y-132233044D01*
X81245619Y-132233044D02*
X81102762Y-132280663D01*
X81102762Y-132280663D02*
X81007524Y-132280663D01*
X81864667Y-132280663D02*
X81864667Y-131280663D01*
X81864667Y-131280663D02*
X82245619Y-131280663D01*
X82245619Y-131280663D02*
X82340857Y-131328282D01*
X82340857Y-131328282D02*
X82388476Y-131375901D01*
X82388476Y-131375901D02*
X82436095Y-131471139D01*
X82436095Y-131471139D02*
X82436095Y-131613996D01*
X82436095Y-131613996D02*
X82388476Y-131709234D01*
X82388476Y-131709234D02*
X82340857Y-131756853D01*
X82340857Y-131756853D02*
X82245619Y-131804472D01*
X82245619Y-131804472D02*
X81864667Y-131804472D01*
X83388476Y-132280663D02*
X82817048Y-132280663D01*
X83102762Y-132280663D02*
X83102762Y-131280663D01*
X83102762Y-131280663D02*
X83007524Y-131423520D01*
X83007524Y-131423520D02*
X82912286Y-131518758D01*
X82912286Y-131518758D02*
X82817048Y-131566377D01*
X83769429Y-131375901D02*
X83817048Y-131328282D01*
X83817048Y-131328282D02*
X83912286Y-131280663D01*
X83912286Y-131280663D02*
X84150381Y-131280663D01*
X84150381Y-131280663D02*
X84245619Y-131328282D01*
X84245619Y-131328282D02*
X84293238Y-131375901D01*
X84293238Y-131375901D02*
X84340857Y-131471139D01*
X84340857Y-131471139D02*
X84340857Y-131566377D01*
X84340857Y-131566377D02*
X84293238Y-131709234D01*
X84293238Y-131709234D02*
X83721810Y-132280663D01*
X83721810Y-132280663D02*
X84340857Y-132280663D01*
X73705424Y-116224666D02*
X73753044Y-116272285D01*
X73753044Y-116272285D02*
X73800663Y-116415142D01*
X73800663Y-116415142D02*
X73800663Y-116510380D01*
X73800663Y-116510380D02*
X73753044Y-116653237D01*
X73753044Y-116653237D02*
X73657805Y-116748475D01*
X73657805Y-116748475D02*
X73562567Y-116796094D01*
X73562567Y-116796094D02*
X73372091Y-116843713D01*
X73372091Y-116843713D02*
X73229234Y-116843713D01*
X73229234Y-116843713D02*
X73038758Y-116796094D01*
X73038758Y-116796094D02*
X72943520Y-116748475D01*
X72943520Y-116748475D02*
X72848282Y-116653237D01*
X72848282Y-116653237D02*
X72800663Y-116510380D01*
X72800663Y-116510380D02*
X72800663Y-116415142D01*
X72800663Y-116415142D02*
X72848282Y-116272285D01*
X72848282Y-116272285D02*
X72895901Y-116224666D01*
X72895901Y-115843713D02*
X72848282Y-115796094D01*
X72848282Y-115796094D02*
X72800663Y-115700856D01*
X72800663Y-115700856D02*
X72800663Y-115462761D01*
X72800663Y-115462761D02*
X72848282Y-115367523D01*
X72848282Y-115367523D02*
X72895901Y-115319904D01*
X72895901Y-115319904D02*
X72991139Y-115272285D01*
X72991139Y-115272285D02*
X73086377Y-115272285D01*
X73086377Y-115272285D02*
X73229234Y-115319904D01*
X73229234Y-115319904D02*
X73800663Y-115891332D01*
X73800663Y-115891332D02*
X73800663Y-115272285D01*
X72898095Y-126664663D02*
X72898095Y-127474186D01*
X72898095Y-127474186D02*
X72945714Y-127569424D01*
X72945714Y-127569424D02*
X72993333Y-127617044D01*
X72993333Y-127617044D02*
X73088571Y-127664663D01*
X73088571Y-127664663D02*
X73279047Y-127664663D01*
X73279047Y-127664663D02*
X73374285Y-127617044D01*
X73374285Y-127617044D02*
X73421904Y-127569424D01*
X73421904Y-127569424D02*
X73469523Y-127474186D01*
X73469523Y-127474186D02*
X73469523Y-126664663D01*
X74374285Y-126997996D02*
X74374285Y-127664663D01*
X74136190Y-126617044D02*
X73898095Y-127331329D01*
X73898095Y-127331329D02*
X74517142Y-127331329D01*
X81388476Y-128740663D02*
X81388476Y-129454948D01*
X81388476Y-129454948D02*
X81340857Y-129597805D01*
X81340857Y-129597805D02*
X81245619Y-129693044D01*
X81245619Y-129693044D02*
X81102762Y-129740663D01*
X81102762Y-129740663D02*
X81007524Y-129740663D01*
X81864667Y-129740663D02*
X81864667Y-128740663D01*
X81864667Y-128740663D02*
X82245619Y-128740663D01*
X82245619Y-128740663D02*
X82340857Y-128788282D01*
X82340857Y-128788282D02*
X82388476Y-128835901D01*
X82388476Y-128835901D02*
X82436095Y-128931139D01*
X82436095Y-128931139D02*
X82436095Y-129073996D01*
X82436095Y-129073996D02*
X82388476Y-129169234D01*
X82388476Y-129169234D02*
X82340857Y-129216853D01*
X82340857Y-129216853D02*
X82245619Y-129264472D01*
X82245619Y-129264472D02*
X81864667Y-129264472D01*
X83388476Y-129740663D02*
X82817048Y-129740663D01*
X83102762Y-129740663D02*
X83102762Y-128740663D01*
X83102762Y-128740663D02*
X83007524Y-128883520D01*
X83007524Y-128883520D02*
X82912286Y-128978758D01*
X82912286Y-128978758D02*
X82817048Y-129026377D01*
X84340857Y-129740663D02*
X83769429Y-129740663D01*
X84055143Y-129740663D02*
X84055143Y-128740663D01*
X84055143Y-128740663D02*
X83959905Y-128883520D01*
X83959905Y-128883520D02*
X83864667Y-128978758D01*
X83864667Y-128978758D02*
X83769429Y-129026377D01*
X81388476Y-136360663D02*
X81388476Y-137074948D01*
X81388476Y-137074948D02*
X81340857Y-137217805D01*
X81340857Y-137217805D02*
X81245619Y-137313044D01*
X81245619Y-137313044D02*
X81102762Y-137360663D01*
X81102762Y-137360663D02*
X81007524Y-137360663D01*
X81864667Y-137360663D02*
X81864667Y-136360663D01*
X81864667Y-136360663D02*
X82245619Y-136360663D01*
X82245619Y-136360663D02*
X82340857Y-136408282D01*
X82340857Y-136408282D02*
X82388476Y-136455901D01*
X82388476Y-136455901D02*
X82436095Y-136551139D01*
X82436095Y-136551139D02*
X82436095Y-136693996D01*
X82436095Y-136693996D02*
X82388476Y-136789234D01*
X82388476Y-136789234D02*
X82340857Y-136836853D01*
X82340857Y-136836853D02*
X82245619Y-136884472D01*
X82245619Y-136884472D02*
X81864667Y-136884472D01*
X83388476Y-137360663D02*
X82817048Y-137360663D01*
X83102762Y-137360663D02*
X83102762Y-136360663D01*
X83102762Y-136360663D02*
X83007524Y-136503520D01*
X83007524Y-136503520D02*
X82912286Y-136598758D01*
X82912286Y-136598758D02*
X82817048Y-136646377D01*
X84245619Y-136693996D02*
X84245619Y-137360663D01*
X84007524Y-136313044D02*
X83769429Y-137027329D01*
X83769429Y-137027329D02*
X84388476Y-137027329D01*
X97408663Y-104941666D02*
X96932472Y-105274999D01*
X97408663Y-105513094D02*
X96408663Y-105513094D01*
X96408663Y-105513094D02*
X96408663Y-105132142D01*
X96408663Y-105132142D02*
X96456282Y-105036904D01*
X96456282Y-105036904D02*
X96503901Y-104989285D01*
X96503901Y-104989285D02*
X96599139Y-104941666D01*
X96599139Y-104941666D02*
X96741996Y-104941666D01*
X96741996Y-104941666D02*
X96837234Y-104989285D01*
X96837234Y-104989285D02*
X96884853Y-105036904D01*
X96884853Y-105036904D02*
X96932472Y-105132142D01*
X96932472Y-105132142D02*
X96932472Y-105513094D01*
X97408663Y-103989285D02*
X97408663Y-104560713D01*
X97408663Y-104274999D02*
X96408663Y-104274999D01*
X96408663Y-104274999D02*
X96551520Y-104370237D01*
X96551520Y-104370237D02*
X96646758Y-104465475D01*
X96646758Y-104465475D02*
X96694377Y-104560713D01*
X105028663Y-87161666D02*
X104552472Y-87494999D01*
X105028663Y-87733094D02*
X104028663Y-87733094D01*
X104028663Y-87733094D02*
X104028663Y-87352142D01*
X104028663Y-87352142D02*
X104076282Y-87256904D01*
X104076282Y-87256904D02*
X104123901Y-87209285D01*
X104123901Y-87209285D02*
X104219139Y-87161666D01*
X104219139Y-87161666D02*
X104361996Y-87161666D01*
X104361996Y-87161666D02*
X104457234Y-87209285D01*
X104457234Y-87209285D02*
X104504853Y-87256904D01*
X104504853Y-87256904D02*
X104552472Y-87352142D01*
X104552472Y-87352142D02*
X104552472Y-87733094D01*
X104123901Y-86780713D02*
X104076282Y-86733094D01*
X104076282Y-86733094D02*
X104028663Y-86637856D01*
X104028663Y-86637856D02*
X104028663Y-86399761D01*
X104028663Y-86399761D02*
X104076282Y-86304523D01*
X104076282Y-86304523D02*
X104123901Y-86256904D01*
X104123901Y-86256904D02*
X104219139Y-86209285D01*
X104219139Y-86209285D02*
X104314377Y-86209285D01*
X104314377Y-86209285D02*
X104457234Y-86256904D01*
X104457234Y-86256904D02*
X105028663Y-86828332D01*
X105028663Y-86828332D02*
X105028663Y-86209285D01*
X70584761Y-105904663D02*
X70251428Y-105428472D01*
X70013333Y-105904663D02*
X70013333Y-104904663D01*
X70013333Y-104904663D02*
X70394285Y-104904663D01*
X70394285Y-104904663D02*
X70489523Y-104952282D01*
X70489523Y-104952282D02*
X70537142Y-104999901D01*
X70537142Y-104999901D02*
X70584761Y-105095139D01*
X70584761Y-105095139D02*
X70584761Y-105237996D01*
X70584761Y-105237996D02*
X70537142Y-105333234D01*
X70537142Y-105333234D02*
X70489523Y-105380853D01*
X70489523Y-105380853D02*
X70394285Y-105428472D01*
X70394285Y-105428472D02*
X70013333Y-105428472D01*
X70870476Y-104904663D02*
X71203809Y-105904663D01*
X71203809Y-105904663D02*
X71537142Y-104904663D01*
X72394285Y-105904663D02*
X71822857Y-105904663D01*
X72108571Y-105904663D02*
X72108571Y-104904663D01*
X72108571Y-104904663D02*
X72013333Y-105047520D01*
X72013333Y-105047520D02*
X71918095Y-105142758D01*
X71918095Y-105142758D02*
X71822857Y-105190377D01*
X102536666Y-73324663D02*
X102536666Y-74038948D01*
X102536666Y-74038948D02*
X102489047Y-74181805D01*
X102489047Y-74181805D02*
X102393809Y-74277044D01*
X102393809Y-74277044D02*
X102250952Y-74324663D01*
X102250952Y-74324663D02*
X102155714Y-74324663D01*
X102917619Y-73324663D02*
X103536666Y-73324663D01*
X103536666Y-73324663D02*
X103203333Y-73705615D01*
X103203333Y-73705615D02*
X103346190Y-73705615D01*
X103346190Y-73705615D02*
X103441428Y-73753234D01*
X103441428Y-73753234D02*
X103489047Y-73800853D01*
X103489047Y-73800853D02*
X103536666Y-73896091D01*
X103536666Y-73896091D02*
X103536666Y-74134186D01*
X103536666Y-74134186D02*
X103489047Y-74229424D01*
X103489047Y-74229424D02*
X103441428Y-74277044D01*
X103441428Y-74277044D02*
X103346190Y-74324663D01*
X103346190Y-74324663D02*
X103060476Y-74324663D01*
X103060476Y-74324663D02*
X102965238Y-74277044D01*
X102965238Y-74277044D02*
X102917619Y-74229424D01*
D12*
X105350000Y-74810000D02*
X105350000Y-100450000D01*
X105350000Y-100450000D02*
X115630000Y-100450000D01*
X107840000Y-74870000D02*
X107840000Y-100390000D01*
X107840000Y-100390000D02*
X113140000Y-100390000D01*
X109490000Y-74870000D02*
X107840000Y-74870000D01*
X113140000Y-74870000D02*
X111490000Y-74870000D01*
X113140000Y-100390000D02*
X113140000Y-74870000D01*
X115630000Y-74810000D02*
X105350000Y-74810000D01*
X115630000Y-100450000D02*
X115630000Y-74810000D01*
X111490000Y-74870000D02*
G75*
G02*
X109490000Y-74870000I-1000000J0D01*
G01*
X67250000Y-74870000D02*
X68580000Y-74870000D01*
X67250000Y-76200000D02*
X67250000Y-74870000D01*
X67250000Y-77470000D02*
X67250000Y-100390000D01*
X67250000Y-77470000D02*
X69850000Y-77470000D01*
X67250000Y-100390000D02*
X72450000Y-100390000D01*
X69850000Y-74870000D02*
X72450000Y-74870000D01*
X69850000Y-77470000D02*
X69850000Y-74870000D01*
X72450000Y-74870000D02*
X72450000Y-100390000D01*
X100220000Y-102810000D02*
X100220000Y-138490000D01*
X100220000Y-138490000D02*
X113140000Y-138490000D01*
X105680000Y-102810000D02*
X100220000Y-102810000D01*
X113140000Y-102810000D02*
X107680000Y-102810000D01*
X113140000Y-138490000D02*
X113140000Y-102810000D01*
X107680000Y-102810000D02*
G75*
G02*
X105680000Y-102810000I-1000000J0D01*
G01*
X74870000Y-74810000D02*
X74870000Y-125850000D01*
X74870000Y-125850000D02*
X92770000Y-125850000D01*
X77360000Y-74870000D02*
X77360000Y-125790000D01*
X77360000Y-125790000D02*
X90280000Y-125790000D01*
X82820000Y-74870000D02*
X77360000Y-74870000D01*
X90280000Y-74870000D02*
X84820000Y-74870000D01*
X90280000Y-125790000D02*
X90280000Y-74870000D01*
X92770000Y-74810000D02*
X74870000Y-74810000D01*
X92770000Y-125850000D02*
X92770000Y-74810000D01*
X84820000Y-74870000D02*
G75*
G02*
X82820000Y-74870000I-1000000J0D01*
G01*
X95190000Y-74870000D02*
X96520000Y-74870000D01*
X95190000Y-76200000D02*
X95190000Y-74870000D01*
X95190000Y-77470000D02*
X95190000Y-100390000D01*
X95190000Y-77470000D02*
X97790000Y-77470000D01*
X95190000Y-100390000D02*
X100390000Y-100390000D01*
X97790000Y-74870000D02*
X100390000Y-74870000D01*
X97790000Y-77470000D02*
X97790000Y-74870000D01*
X100390000Y-74870000D02*
X100390000Y-100390000D01*
X85030000Y-135950000D02*
X85030000Y-134620000D01*
X86360000Y-135950000D02*
X85030000Y-135950000D01*
X87630000Y-133290000D02*
X92770000Y-133290000D01*
X87630000Y-135950000D02*
X87630000Y-133290000D01*
X87630000Y-135950000D02*
X92770000Y-135950000D01*
X92770000Y-135950000D02*
X92770000Y-133290000D01*
X69572000Y-124680000D02*
X68043000Y-124680000D01*
X69572000Y-124720000D02*
X68047000Y-124720000D01*
X69572000Y-124760000D02*
X68051000Y-124760000D01*
X69572000Y-124800000D02*
X68056000Y-124800000D01*
X69572000Y-124840000D02*
X68062000Y-124840000D01*
X69572000Y-124880000D02*
X68069000Y-124880000D01*
X69572000Y-124920000D02*
X68076000Y-124920000D01*
X69572000Y-124960000D02*
X68084000Y-124960000D01*
X69572000Y-125000000D02*
X68092000Y-125000000D01*
X69572000Y-125040000D02*
X68101000Y-125040000D01*
X69572000Y-125080000D02*
X68111000Y-125080000D01*
X69572000Y-125120000D02*
X68121000Y-125120000D01*
X69572000Y-125161000D02*
X68132000Y-125161000D01*
X69572000Y-125201000D02*
X68144000Y-125201000D01*
X69572000Y-125241000D02*
X68157000Y-125241000D01*
X69572000Y-125281000D02*
X68170000Y-125281000D01*
X69572000Y-125321000D02*
X68184000Y-125321000D01*
X69572000Y-125361000D02*
X68198000Y-125361000D01*
X69572000Y-125401000D02*
X68214000Y-125401000D01*
X69572000Y-125441000D02*
X68230000Y-125441000D01*
X69572000Y-125481000D02*
X68247000Y-125481000D01*
X69572000Y-125521000D02*
X68264000Y-125521000D01*
X69572000Y-125561000D02*
X68283000Y-125561000D01*
X69572000Y-125601000D02*
X68302000Y-125601000D01*
X69572000Y-125641000D02*
X68322000Y-125641000D01*
X69572000Y-125681000D02*
X68344000Y-125681000D01*
X69572000Y-125721000D02*
X68365000Y-125721000D01*
X69572000Y-125761000D02*
X68388000Y-125761000D01*
X69572000Y-125801000D02*
X68412000Y-125801000D01*
X69572000Y-125841000D02*
X68437000Y-125841000D01*
X69572000Y-125881000D02*
X68463000Y-125881000D01*
X69572000Y-125921000D02*
X68490000Y-125921000D01*
X69572000Y-125961000D02*
X68517000Y-125961000D01*
X69572000Y-126001000D02*
X68547000Y-126001000D01*
X69572000Y-126041000D02*
X68577000Y-126041000D01*
X69572000Y-126081000D02*
X68608000Y-126081000D01*
X69572000Y-126121000D02*
X68641000Y-126121000D01*
X69572000Y-126161000D02*
X68675000Y-126161000D01*
X69572000Y-126201000D02*
X68711000Y-126201000D01*
X69572000Y-126241000D02*
X68748000Y-126241000D01*
X69572000Y-126281000D02*
X68786000Y-126281000D01*
X69572000Y-126321000D02*
X68827000Y-126321000D01*
X69572000Y-126361000D02*
X68869000Y-126361000D01*
X69572000Y-126401000D02*
X68913000Y-126401000D01*
X69572000Y-126441000D02*
X68959000Y-126441000D01*
X69572000Y-126481000D02*
X69007000Y-126481000D01*
X69572000Y-126521000D02*
X69058000Y-126521000D01*
X69572000Y-126561000D02*
X69112000Y-126561000D01*
X69572000Y-126601000D02*
X69169000Y-126601000D01*
X69572000Y-126641000D02*
X69229000Y-126641000D01*
X69572000Y-126681000D02*
X69293000Y-126681000D01*
X69572000Y-126721000D02*
X69361000Y-126721000D01*
X70896000Y-127041000D02*
X70328000Y-127041000D01*
X71130000Y-127001000D02*
X70094000Y-127001000D01*
X71289000Y-126961000D02*
X69935000Y-126961000D01*
X71417000Y-126921000D02*
X69807000Y-126921000D01*
X71527000Y-126881000D02*
X69697000Y-126881000D01*
X71623000Y-126841000D02*
X69601000Y-126841000D01*
X71710000Y-126801000D02*
X69514000Y-126801000D01*
X71790000Y-126761000D02*
X69434000Y-126761000D01*
X71863000Y-126721000D02*
X71652000Y-126721000D01*
X71931000Y-126681000D02*
X71652000Y-126681000D01*
X71995000Y-126641000D02*
X71652000Y-126641000D01*
X72055000Y-126601000D02*
X71652000Y-126601000D01*
X72087000Y-121635225D02*
X72087000Y-122135225D01*
X72112000Y-126561000D02*
X71652000Y-126561000D01*
X72166000Y-126521000D02*
X71652000Y-126521000D01*
X72217000Y-126481000D02*
X71652000Y-126481000D01*
X72265000Y-126441000D02*
X71652000Y-126441000D01*
X72311000Y-126401000D02*
X71652000Y-126401000D01*
X72337000Y-121885225D02*
X71837000Y-121885225D01*
X72355000Y-126361000D02*
X71652000Y-126361000D01*
X72397000Y-126321000D02*
X71652000Y-126321000D01*
X72438000Y-126281000D02*
X71652000Y-126281000D01*
X72476000Y-126241000D02*
X71652000Y-126241000D01*
X72513000Y-126201000D02*
X71652000Y-126201000D01*
X72549000Y-126161000D02*
X71652000Y-126161000D01*
X72583000Y-126121000D02*
X71652000Y-126121000D01*
X72616000Y-126081000D02*
X71652000Y-126081000D01*
X72647000Y-126041000D02*
X71652000Y-126041000D01*
X72677000Y-126001000D02*
X71652000Y-126001000D01*
X72707000Y-125961000D02*
X71652000Y-125961000D01*
X72734000Y-125921000D02*
X71652000Y-125921000D01*
X72761000Y-125881000D02*
X71652000Y-125881000D01*
X72787000Y-125841000D02*
X71652000Y-125841000D01*
X72812000Y-125801000D02*
X71652000Y-125801000D01*
X72836000Y-125761000D02*
X71652000Y-125761000D01*
X72859000Y-125721000D02*
X71652000Y-125721000D01*
X72880000Y-125681000D02*
X71652000Y-125681000D01*
X72902000Y-125641000D02*
X71652000Y-125641000D01*
X72922000Y-125601000D02*
X71652000Y-125601000D01*
X72941000Y-125561000D02*
X71652000Y-125561000D01*
X72960000Y-125521000D02*
X71652000Y-125521000D01*
X72977000Y-125481000D02*
X71652000Y-125481000D01*
X72994000Y-125441000D02*
X71652000Y-125441000D01*
X73010000Y-125401000D02*
X71652000Y-125401000D01*
X73026000Y-125361000D02*
X71652000Y-125361000D01*
X73040000Y-125321000D02*
X71652000Y-125321000D01*
X73054000Y-125281000D02*
X71652000Y-125281000D01*
X73067000Y-125241000D02*
X71652000Y-125241000D01*
X73080000Y-125201000D02*
X71652000Y-125201000D01*
X73092000Y-125161000D02*
X71652000Y-125161000D01*
X73103000Y-125120000D02*
X71652000Y-125120000D01*
X73113000Y-125080000D02*
X71652000Y-125080000D01*
X73123000Y-125040000D02*
X71652000Y-125040000D01*
X73132000Y-125000000D02*
X71652000Y-125000000D01*
X73140000Y-124960000D02*
X71652000Y-124960000D01*
X73148000Y-124920000D02*
X71652000Y-124920000D01*
X73155000Y-124880000D02*
X71652000Y-124880000D01*
X73162000Y-124840000D02*
X71652000Y-124840000D01*
X73168000Y-124800000D02*
X71652000Y-124800000D01*
X73173000Y-124760000D02*
X71652000Y-124760000D01*
X73177000Y-124720000D02*
X71652000Y-124720000D01*
X73181000Y-124680000D02*
X71652000Y-124680000D01*
X73185000Y-124640000D02*
X68039000Y-124640000D01*
X73188000Y-124600000D02*
X68036000Y-124600000D01*
X73190000Y-124560000D02*
X68034000Y-124560000D01*
X73191000Y-124520000D02*
X68033000Y-124520000D01*
X73192000Y-124440000D02*
X68032000Y-124440000D01*
X73192000Y-124480000D02*
X68032000Y-124480000D01*
X73232000Y-124440000D02*
G75*
G02*
X67992000Y-124440000I-2620000J0D01*
G01*
X67992000Y-124440000D02*
G75*
G02*
X73232000Y-124440000I2620000J0D01*
G01*
X85030000Y-133410000D02*
X85030000Y-132080000D01*
X86360000Y-133410000D02*
X85030000Y-133410000D01*
X87630000Y-130750000D02*
X92770000Y-130750000D01*
X87630000Y-133410000D02*
X87630000Y-130750000D01*
X87630000Y-133410000D02*
X92770000Y-133410000D01*
X92770000Y-133410000D02*
X92770000Y-130750000D01*
X69572000Y-118838000D02*
X68043000Y-118838000D01*
X69572000Y-118878000D02*
X68047000Y-118878000D01*
X69572000Y-118918000D02*
X68051000Y-118918000D01*
X69572000Y-118958000D02*
X68056000Y-118958000D01*
X69572000Y-118998000D02*
X68062000Y-118998000D01*
X69572000Y-119038000D02*
X68069000Y-119038000D01*
X69572000Y-119078000D02*
X68076000Y-119078000D01*
X69572000Y-119118000D02*
X68084000Y-119118000D01*
X69572000Y-119158000D02*
X68092000Y-119158000D01*
X69572000Y-119198000D02*
X68101000Y-119198000D01*
X69572000Y-119238000D02*
X68111000Y-119238000D01*
X69572000Y-119278000D02*
X68121000Y-119278000D01*
X69572000Y-119319000D02*
X68132000Y-119319000D01*
X69572000Y-119359000D02*
X68144000Y-119359000D01*
X69572000Y-119399000D02*
X68157000Y-119399000D01*
X69572000Y-119439000D02*
X68170000Y-119439000D01*
X69572000Y-119479000D02*
X68184000Y-119479000D01*
X69572000Y-119519000D02*
X68198000Y-119519000D01*
X69572000Y-119559000D02*
X68214000Y-119559000D01*
X69572000Y-119599000D02*
X68230000Y-119599000D01*
X69572000Y-119639000D02*
X68247000Y-119639000D01*
X69572000Y-119679000D02*
X68264000Y-119679000D01*
X69572000Y-119719000D02*
X68283000Y-119719000D01*
X69572000Y-119759000D02*
X68302000Y-119759000D01*
X69572000Y-119799000D02*
X68322000Y-119799000D01*
X69572000Y-119839000D02*
X68344000Y-119839000D01*
X69572000Y-119879000D02*
X68365000Y-119879000D01*
X69572000Y-119919000D02*
X68388000Y-119919000D01*
X69572000Y-119959000D02*
X68412000Y-119959000D01*
X69572000Y-119999000D02*
X68437000Y-119999000D01*
X69572000Y-120039000D02*
X68463000Y-120039000D01*
X69572000Y-120079000D02*
X68490000Y-120079000D01*
X69572000Y-120119000D02*
X68517000Y-120119000D01*
X69572000Y-120159000D02*
X68547000Y-120159000D01*
X69572000Y-120199000D02*
X68577000Y-120199000D01*
X69572000Y-120239000D02*
X68608000Y-120239000D01*
X69572000Y-120279000D02*
X68641000Y-120279000D01*
X69572000Y-120319000D02*
X68675000Y-120319000D01*
X69572000Y-120359000D02*
X68711000Y-120359000D01*
X69572000Y-120399000D02*
X68748000Y-120399000D01*
X69572000Y-120439000D02*
X68786000Y-120439000D01*
X69572000Y-120479000D02*
X68827000Y-120479000D01*
X69572000Y-120519000D02*
X68869000Y-120519000D01*
X69572000Y-120559000D02*
X68913000Y-120559000D01*
X69572000Y-120599000D02*
X68959000Y-120599000D01*
X69572000Y-120639000D02*
X69007000Y-120639000D01*
X69572000Y-120679000D02*
X69058000Y-120679000D01*
X69572000Y-120719000D02*
X69112000Y-120719000D01*
X69572000Y-120759000D02*
X69169000Y-120759000D01*
X69572000Y-120799000D02*
X69229000Y-120799000D01*
X69572000Y-120839000D02*
X69293000Y-120839000D01*
X69572000Y-120879000D02*
X69361000Y-120879000D01*
X70896000Y-121199000D02*
X70328000Y-121199000D01*
X71130000Y-121159000D02*
X70094000Y-121159000D01*
X71289000Y-121119000D02*
X69935000Y-121119000D01*
X71417000Y-121079000D02*
X69807000Y-121079000D01*
X71527000Y-121039000D02*
X69697000Y-121039000D01*
X71623000Y-120999000D02*
X69601000Y-120999000D01*
X71710000Y-120959000D02*
X69514000Y-120959000D01*
X71790000Y-120919000D02*
X69434000Y-120919000D01*
X71863000Y-120879000D02*
X71652000Y-120879000D01*
X71931000Y-120839000D02*
X71652000Y-120839000D01*
X71995000Y-120799000D02*
X71652000Y-120799000D01*
X72055000Y-120759000D02*
X71652000Y-120759000D01*
X72087000Y-115793225D02*
X72087000Y-116293225D01*
X72112000Y-120719000D02*
X71652000Y-120719000D01*
X72166000Y-120679000D02*
X71652000Y-120679000D01*
X72217000Y-120639000D02*
X71652000Y-120639000D01*
X72265000Y-120599000D02*
X71652000Y-120599000D01*
X72311000Y-120559000D02*
X71652000Y-120559000D01*
X72337000Y-116043225D02*
X71837000Y-116043225D01*
X72355000Y-120519000D02*
X71652000Y-120519000D01*
X72397000Y-120479000D02*
X71652000Y-120479000D01*
X72438000Y-120439000D02*
X71652000Y-120439000D01*
X72476000Y-120399000D02*
X71652000Y-120399000D01*
X72513000Y-120359000D02*
X71652000Y-120359000D01*
X72549000Y-120319000D02*
X71652000Y-120319000D01*
X72583000Y-120279000D02*
X71652000Y-120279000D01*
X72616000Y-120239000D02*
X71652000Y-120239000D01*
X72647000Y-120199000D02*
X71652000Y-120199000D01*
X72677000Y-120159000D02*
X71652000Y-120159000D01*
X72707000Y-120119000D02*
X71652000Y-120119000D01*
X72734000Y-120079000D02*
X71652000Y-120079000D01*
X72761000Y-120039000D02*
X71652000Y-120039000D01*
X72787000Y-119999000D02*
X71652000Y-119999000D01*
X72812000Y-119959000D02*
X71652000Y-119959000D01*
X72836000Y-119919000D02*
X71652000Y-119919000D01*
X72859000Y-119879000D02*
X71652000Y-119879000D01*
X72880000Y-119839000D02*
X71652000Y-119839000D01*
X72902000Y-119799000D02*
X71652000Y-119799000D01*
X72922000Y-119759000D02*
X71652000Y-119759000D01*
X72941000Y-119719000D02*
X71652000Y-119719000D01*
X72960000Y-119679000D02*
X71652000Y-119679000D01*
X72977000Y-119639000D02*
X71652000Y-119639000D01*
X72994000Y-119599000D02*
X71652000Y-119599000D01*
X73010000Y-119559000D02*
X71652000Y-119559000D01*
X73026000Y-119519000D02*
X71652000Y-119519000D01*
X73040000Y-119479000D02*
X71652000Y-119479000D01*
X73054000Y-119439000D02*
X71652000Y-119439000D01*
X73067000Y-119399000D02*
X71652000Y-119399000D01*
X73080000Y-119359000D02*
X71652000Y-119359000D01*
X73092000Y-119319000D02*
X71652000Y-119319000D01*
X73103000Y-119278000D02*
X71652000Y-119278000D01*
X73113000Y-119238000D02*
X71652000Y-119238000D01*
X73123000Y-119198000D02*
X71652000Y-119198000D01*
X73132000Y-119158000D02*
X71652000Y-119158000D01*
X73140000Y-119118000D02*
X71652000Y-119118000D01*
X73148000Y-119078000D02*
X71652000Y-119078000D01*
X73155000Y-119038000D02*
X71652000Y-119038000D01*
X73162000Y-118998000D02*
X71652000Y-118998000D01*
X73168000Y-118958000D02*
X71652000Y-118958000D01*
X73173000Y-118918000D02*
X71652000Y-118918000D01*
X73177000Y-118878000D02*
X71652000Y-118878000D01*
X73181000Y-118838000D02*
X71652000Y-118838000D01*
X73185000Y-118798000D02*
X68039000Y-118798000D01*
X73188000Y-118758000D02*
X68036000Y-118758000D01*
X73190000Y-118718000D02*
X68034000Y-118718000D01*
X73191000Y-118678000D02*
X68033000Y-118678000D01*
X73192000Y-118598000D02*
X68032000Y-118598000D01*
X73192000Y-118638000D02*
X68032000Y-118638000D01*
X73232000Y-118598000D02*
G75*
G02*
X67992000Y-118598000I-2620000J0D01*
G01*
X67992000Y-118598000D02*
G75*
G02*
X73232000Y-118598000I2620000J0D01*
G01*
X67250000Y-128150000D02*
X67250000Y-138550000D01*
X67250000Y-138550000D02*
X77530000Y-138550000D01*
X69740000Y-128210000D02*
X69740000Y-138490000D01*
X69740000Y-138490000D02*
X75040000Y-138490000D01*
X71390000Y-128210000D02*
X69740000Y-128210000D01*
X75040000Y-128210000D02*
X73390000Y-128210000D01*
X75040000Y-138490000D02*
X75040000Y-128210000D01*
X77530000Y-128150000D02*
X67250000Y-128150000D01*
X77530000Y-138550000D02*
X77530000Y-128150000D01*
X73390000Y-128210000D02*
G75*
G02*
X71390000Y-128210000I-1000000J0D01*
G01*
X85030000Y-130870000D02*
X85030000Y-129540000D01*
X86360000Y-130870000D02*
X85030000Y-130870000D01*
X87630000Y-128210000D02*
X92770000Y-128210000D01*
X87630000Y-130870000D02*
X87630000Y-128210000D01*
X87630000Y-130870000D02*
X92770000Y-130870000D01*
X92770000Y-130870000D02*
X92770000Y-128210000D01*
X85030000Y-138490000D02*
X85030000Y-137160000D01*
X86360000Y-138490000D02*
X85030000Y-138490000D01*
X87630000Y-135830000D02*
X92770000Y-135830000D01*
X87630000Y-138490000D02*
X87630000Y-135830000D01*
X87630000Y-138490000D02*
X92770000Y-138490000D01*
X92770000Y-138490000D02*
X92770000Y-135830000D01*
X93530000Y-105870000D02*
X93530000Y-115110000D01*
X93530000Y-115110000D02*
X96970000Y-115110000D01*
X95250000Y-105180000D02*
X95250000Y-105870000D01*
X95250000Y-115800000D02*
X95250000Y-115110000D01*
X96970000Y-105870000D02*
X93530000Y-105870000D01*
X96970000Y-115110000D02*
X96970000Y-105870000D01*
X101150000Y-88090000D02*
X101150000Y-97330000D01*
X101150000Y-97330000D02*
X104590000Y-97330000D01*
X102870000Y-87400000D02*
X102870000Y-88090000D01*
X102870000Y-98020000D02*
X102870000Y-97330000D01*
X104590000Y-88090000D02*
X101150000Y-88090000D01*
X104590000Y-97330000D02*
X104590000Y-88090000D01*
X67770000Y-106740000D02*
X67770000Y-106990000D01*
X67770000Y-112450000D02*
X67770000Y-108910000D01*
X67870000Y-106540000D02*
X67870000Y-106740000D01*
X67870000Y-106540000D02*
X69290000Y-106540000D01*
X67870000Y-106740000D02*
X67770000Y-106740000D01*
X69290000Y-106740000D02*
X69290000Y-106540000D01*
X69290000Y-106740000D02*
X72870000Y-106740000D01*
X70570000Y-113760000D02*
X69080000Y-113760000D01*
X72870000Y-106540000D02*
X74290000Y-106540000D01*
X72870000Y-106740000D02*
X72870000Y-106540000D01*
X73080000Y-113760000D02*
X71590000Y-113760000D01*
X74290000Y-106540000D02*
X74290000Y-106740000D01*
X74290000Y-106740000D02*
X74390000Y-106740000D01*
X74390000Y-106740000D02*
X74390000Y-107430000D01*
X74390000Y-108470000D02*
X74390000Y-112450000D01*
X69080000Y-113760000D02*
G75*
G02*
X67770000Y-112450000I0J1310000D01*
G01*
X74390000Y-112450000D02*
G75*
G02*
X73080000Y-113760000I-1310000J0D01*
G01*
X101540000Y-74870000D02*
X102870000Y-74870000D01*
X101540000Y-76200000D02*
X101540000Y-74870000D01*
X101540000Y-77470000D02*
X101540000Y-80070000D01*
X101540000Y-77470000D02*
X104200000Y-77470000D01*
X101540000Y-80070000D02*
X104200000Y-80070000D01*
X104200000Y-77470000D02*
X104200000Y-80070000D01*
%LPC*%
D13*
X106680000Y-76200000D03*
D14*
X106680000Y-78740000D03*
X106680000Y-81280000D03*
X106680000Y-83820000D03*
X106680000Y-86360000D03*
X106680000Y-88900000D03*
X106680000Y-91440000D03*
X106680000Y-93980000D03*
X106680000Y-96520000D03*
X106680000Y-99060000D03*
X114300000Y-99060000D03*
X114300000Y-96520000D03*
X114300000Y-93980000D03*
X114300000Y-91440000D03*
X114300000Y-88900000D03*
X114300000Y-86360000D03*
X114300000Y-83820000D03*
X114300000Y-81280000D03*
X114300000Y-78740000D03*
X114300000Y-76200000D03*
D15*
X68580000Y-76200000D03*
D16*
X71120000Y-76200000D03*
X68580000Y-78740000D03*
X71120000Y-78740000D03*
X68580000Y-81280000D03*
X71120000Y-81280000D03*
X68580000Y-83820000D03*
X71120000Y-83820000D03*
X68580000Y-86360000D03*
X71120000Y-86360000D03*
X68580000Y-88900000D03*
X71120000Y-88900000D03*
X68580000Y-91440000D03*
X71120000Y-91440000D03*
X68580000Y-93980000D03*
X71120000Y-93980000D03*
X68580000Y-96520000D03*
X71120000Y-96520000D03*
X68580000Y-99060000D03*
X71120000Y-99060000D03*
D13*
X99060000Y-104140000D03*
D14*
X99060000Y-106680000D03*
X99060000Y-109220000D03*
X99060000Y-111760000D03*
X99060000Y-114300000D03*
X99060000Y-116840000D03*
X99060000Y-119380000D03*
X99060000Y-121920000D03*
X99060000Y-124460000D03*
X99060000Y-127000000D03*
X99060000Y-129540000D03*
X99060000Y-132080000D03*
X99060000Y-134620000D03*
X99060000Y-137160000D03*
X114300000Y-137160000D03*
X114300000Y-134620000D03*
X114300000Y-132080000D03*
X114300000Y-129540000D03*
X114300000Y-127000000D03*
X114300000Y-124460000D03*
X114300000Y-121920000D03*
X114300000Y-119380000D03*
X114300000Y-116840000D03*
X114300000Y-114300000D03*
X114300000Y-111760000D03*
X114300000Y-109220000D03*
X114300000Y-106680000D03*
X114300000Y-104140000D03*
D13*
X76200000Y-76200000D03*
D14*
X76200000Y-78740000D03*
X76200000Y-81280000D03*
X76200000Y-83820000D03*
X76200000Y-86360000D03*
X76200000Y-88900000D03*
X76200000Y-91440000D03*
X76200000Y-93980000D03*
X76200000Y-96520000D03*
X76200000Y-99060000D03*
X76200000Y-101600000D03*
X76200000Y-104140000D03*
X76200000Y-106680000D03*
X76200000Y-109220000D03*
X76200000Y-111760000D03*
X76200000Y-114300000D03*
X76200000Y-116840000D03*
X76200000Y-119380000D03*
X76200000Y-121920000D03*
X76200000Y-124460000D03*
X91440000Y-124460000D03*
X91440000Y-121920000D03*
X91440000Y-119380000D03*
X91440000Y-116840000D03*
X91440000Y-114300000D03*
X91440000Y-111760000D03*
X91440000Y-109220000D03*
X91440000Y-106680000D03*
X91440000Y-104140000D03*
X91440000Y-101600000D03*
X91440000Y-99060000D03*
X91440000Y-96520000D03*
X91440000Y-93980000D03*
X91440000Y-91440000D03*
X91440000Y-88900000D03*
X91440000Y-86360000D03*
X91440000Y-83820000D03*
X91440000Y-81280000D03*
X91440000Y-78740000D03*
X91440000Y-76200000D03*
D15*
X96520000Y-76200000D03*
D16*
X99060000Y-76200000D03*
X96520000Y-78740000D03*
X99060000Y-78740000D03*
X96520000Y-81280000D03*
X99060000Y-81280000D03*
X96520000Y-83820000D03*
X99060000Y-83820000D03*
X96520000Y-86360000D03*
X99060000Y-86360000D03*
X96520000Y-88900000D03*
X99060000Y-88900000D03*
X96520000Y-91440000D03*
X99060000Y-91440000D03*
X96520000Y-93980000D03*
X99060000Y-93980000D03*
X96520000Y-96520000D03*
X99060000Y-96520000D03*
X96520000Y-99060000D03*
X99060000Y-99060000D03*
D17*
X86360000Y-134620000D03*
D16*
X88900000Y-134620000D03*
X91440000Y-134620000D03*
D18*
X70612000Y-123190000D03*
D19*
X70612000Y-125690000D03*
D17*
X86360000Y-132080000D03*
D16*
X88900000Y-132080000D03*
X91440000Y-132080000D03*
D18*
X70612000Y-117348000D03*
D19*
X70612000Y-119848000D03*
D13*
X68580000Y-129540000D03*
D14*
X68580000Y-132080000D03*
X68580000Y-134620000D03*
X68580000Y-137160000D03*
X76200000Y-137160000D03*
X76200000Y-134620000D03*
X76200000Y-132080000D03*
X76200000Y-129540000D03*
D17*
X86360000Y-129540000D03*
D16*
X88900000Y-129540000D03*
X91440000Y-129540000D03*
D17*
X86360000Y-137160000D03*
D16*
X88900000Y-137160000D03*
X91440000Y-137160000D03*
D19*
X95250000Y-104140000D03*
D14*
X95250000Y-116840000D03*
D19*
X102870000Y-86360000D03*
D14*
X102870000Y-99060000D03*
D20*
X68580000Y-107950000D03*
D21*
X71080000Y-112950000D03*
X73580000Y-107950000D03*
D15*
X102870000Y-76200000D03*
D16*
X102870000Y-78740000D03*
%LPD*%
M02*
