%TF.GenerationSoftware,KiCad,Pcbnew,8.0.6*%
%TF.CreationDate,2025-02-13T00:08:48+01:00*%
%TF.ProjectId,board_v1,626f6172-645f-4763-912e-6b696361645f,rev?*%
%TF.SameCoordinates,Original*%
%TF.FileFunction,Drillmap*%
%TF.FilePolarity,Positive*%
%FSLAX45Y45*%
G04 Gerber Fmt 4.5, Leading zero omitted, Abs format (unit mm)*
G04 Created by KiCad (PCBNEW 8.0.6) date 2025-02-13 00:08:48*
%MOMM*%
%LPD*%
G01*
G04 APERTURE LIST*
%ADD10C,0.050000*%
%ADD11C,0.200000*%
G04 APERTURE END LIST*
D10*
X6604000Y-7239000D02*
X11684000Y-7239000D01*
X11684000Y-14097000D01*
X6604000Y-14097000D01*
X6604000Y-7239000D01*
D11*
X6862277Y-14410984D02*
X6862277Y-14210984D01*
X6862277Y-14210984D02*
X6909896Y-14210984D01*
X6909896Y-14210984D02*
X6938467Y-14220508D01*
X6938467Y-14220508D02*
X6957515Y-14239555D01*
X6957515Y-14239555D02*
X6967039Y-14258603D01*
X6967039Y-14258603D02*
X6976562Y-14296698D01*
X6976562Y-14296698D02*
X6976562Y-14325269D01*
X6976562Y-14325269D02*
X6967039Y-14363365D01*
X6967039Y-14363365D02*
X6957515Y-14382412D01*
X6957515Y-14382412D02*
X6938467Y-14401460D01*
X6938467Y-14401460D02*
X6909896Y-14410984D01*
X6909896Y-14410984D02*
X6862277Y-14410984D01*
X7062277Y-14410984D02*
X7062277Y-14277650D01*
X7062277Y-14315746D02*
X7071801Y-14296698D01*
X7071801Y-14296698D02*
X7081324Y-14287174D01*
X7081324Y-14287174D02*
X7100372Y-14277650D01*
X7100372Y-14277650D02*
X7119420Y-14277650D01*
X7186086Y-14410984D02*
X7186086Y-14277650D01*
X7186086Y-14210984D02*
X7176562Y-14220508D01*
X7176562Y-14220508D02*
X7186086Y-14230031D01*
X7186086Y-14230031D02*
X7195610Y-14220508D01*
X7195610Y-14220508D02*
X7186086Y-14210984D01*
X7186086Y-14210984D02*
X7186086Y-14230031D01*
X7309896Y-14410984D02*
X7290848Y-14401460D01*
X7290848Y-14401460D02*
X7281324Y-14382412D01*
X7281324Y-14382412D02*
X7281324Y-14210984D01*
X7414658Y-14410984D02*
X7395610Y-14401460D01*
X7395610Y-14401460D02*
X7386086Y-14382412D01*
X7386086Y-14382412D02*
X7386086Y-14210984D01*
X7643229Y-14410984D02*
X7643229Y-14210984D01*
X7643229Y-14210984D02*
X7709896Y-14353841D01*
X7709896Y-14353841D02*
X7776562Y-14210984D01*
X7776562Y-14210984D02*
X7776562Y-14410984D01*
X7957515Y-14410984D02*
X7957515Y-14306222D01*
X7957515Y-14306222D02*
X7947991Y-14287174D01*
X7947991Y-14287174D02*
X7928943Y-14277650D01*
X7928943Y-14277650D02*
X7890848Y-14277650D01*
X7890848Y-14277650D02*
X7871801Y-14287174D01*
X7957515Y-14401460D02*
X7938467Y-14410984D01*
X7938467Y-14410984D02*
X7890848Y-14410984D01*
X7890848Y-14410984D02*
X7871801Y-14401460D01*
X7871801Y-14401460D02*
X7862277Y-14382412D01*
X7862277Y-14382412D02*
X7862277Y-14363365D01*
X7862277Y-14363365D02*
X7871801Y-14344317D01*
X7871801Y-14344317D02*
X7890848Y-14334793D01*
X7890848Y-14334793D02*
X7938467Y-14334793D01*
X7938467Y-14334793D02*
X7957515Y-14325269D01*
X8052753Y-14277650D02*
X8052753Y-14477650D01*
X8052753Y-14287174D02*
X8071801Y-14277650D01*
X8071801Y-14277650D02*
X8109896Y-14277650D01*
X8109896Y-14277650D02*
X8128943Y-14287174D01*
X8128943Y-14287174D02*
X8138467Y-14296698D01*
X8138467Y-14296698D02*
X8147991Y-14315746D01*
X8147991Y-14315746D02*
X8147991Y-14372888D01*
X8147991Y-14372888D02*
X8138467Y-14391936D01*
X8138467Y-14391936D02*
X8128943Y-14401460D01*
X8128943Y-14401460D02*
X8109896Y-14410984D01*
X8109896Y-14410984D02*
X8071801Y-14410984D01*
X8071801Y-14410984D02*
X8052753Y-14401460D01*
X8233705Y-14391936D02*
X8243229Y-14401460D01*
X8243229Y-14401460D02*
X8233705Y-14410984D01*
X8233705Y-14410984D02*
X8224182Y-14401460D01*
X8224182Y-14401460D02*
X8233705Y-14391936D01*
X8233705Y-14391936D02*
X8233705Y-14410984D01*
X8233705Y-14287174D02*
X8243229Y-14296698D01*
X8243229Y-14296698D02*
X8233705Y-14306222D01*
X8233705Y-14306222D02*
X8224182Y-14296698D01*
X8224182Y-14296698D02*
X8233705Y-14287174D01*
X8233705Y-14287174D02*
X8233705Y-14306222D01*
M02*
