G04 #@! TF.GenerationSoftware,KiCad,Pcbnew,8.0.6*
G04 #@! TF.CreationDate,2025-02-13T00:08:42+01:00*
G04 #@! TF.ProjectId,board_v1,626f6172-645f-4763-912e-6b696361645f,rev?*
G04 #@! TF.SameCoordinates,Original*
G04 #@! TF.FileFunction,Copper,L1,Top*
G04 #@! TF.FilePolarity,Positive*
%FSLAX46Y46*%
G04 Gerber Fmt 4.6, Leading zero omitted, Abs format (unit mm)*
G04 Created by KiCad (PCBNEW 8.0.6) date 2025-02-13 00:08:42*
%MOMM*%
%LPD*%
G01*
G04 APERTURE LIST*
G04 #@! TA.AperFunction,ComponentPad*
%ADD10R,1.600000X1.600000*%
G04 #@! TD*
G04 #@! TA.AperFunction,ComponentPad*
%ADD11O,1.600000X1.600000*%
G04 #@! TD*
G04 #@! TA.AperFunction,ComponentPad*
%ADD12R,1.700000X1.700000*%
G04 #@! TD*
G04 #@! TA.AperFunction,ComponentPad*
%ADD13O,1.700000X1.700000*%
G04 #@! TD*
G04 #@! TA.AperFunction,ComponentPad*
%ADD14C,1.600000*%
G04 #@! TD*
G04 #@! TA.AperFunction,ComponentPad*
%ADD15R,1.560000X1.560000*%
G04 #@! TD*
G04 #@! TA.AperFunction,ComponentPad*
%ADD16C,1.560000*%
G04 #@! TD*
G04 #@! TA.AperFunction,ViaPad*
%ADD17C,0.600000*%
G04 #@! TD*
G04 #@! TA.AperFunction,Conductor*
%ADD18C,0.200000*%
G04 #@! TD*
G04 #@! TA.AperFunction,Conductor*
%ADD19C,0.500000*%
G04 #@! TD*
G04 #@! TA.AperFunction,Conductor*
%ADD20C,0.300000*%
G04 #@! TD*
G04 APERTURE END LIST*
D10*
X106680000Y-76200000D03*
D11*
X106680000Y-78740000D03*
X106680000Y-81280000D03*
X106680000Y-83820000D03*
X106680000Y-86360000D03*
X106680000Y-88900000D03*
X106680000Y-91440000D03*
X106680000Y-93980000D03*
X106680000Y-96520000D03*
X106680000Y-99060000D03*
X114300000Y-99060000D03*
X114300000Y-96520000D03*
X114300000Y-93980000D03*
X114300000Y-91440000D03*
X114300000Y-88900000D03*
X114300000Y-86360000D03*
X114300000Y-83820000D03*
X114300000Y-81280000D03*
X114300000Y-78740000D03*
X114300000Y-76200000D03*
D12*
X68580000Y-76200000D03*
D13*
X71120000Y-76200000D03*
X68580000Y-78740000D03*
X71120000Y-78740000D03*
X68580000Y-81280000D03*
X71120000Y-81280000D03*
X68580000Y-83820000D03*
X71120000Y-83820000D03*
X68580000Y-86360000D03*
X71120000Y-86360000D03*
X68580000Y-88900000D03*
X71120000Y-88900000D03*
X68580000Y-91440000D03*
X71120000Y-91440000D03*
X68580000Y-93980000D03*
X71120000Y-93980000D03*
X68580000Y-96520000D03*
X71120000Y-96520000D03*
X68580000Y-99060000D03*
X71120000Y-99060000D03*
D10*
X99060000Y-104140000D03*
D11*
X99060000Y-106680000D03*
X99060000Y-109220000D03*
X99060000Y-111760000D03*
X99060000Y-114300000D03*
X99060000Y-116840000D03*
X99060000Y-119380000D03*
X99060000Y-121920000D03*
X99060000Y-124460000D03*
X99060000Y-127000000D03*
X99060000Y-129540000D03*
X99060000Y-132080000D03*
X99060000Y-134620000D03*
X99060000Y-137160000D03*
X114300000Y-137160000D03*
X114300000Y-134620000D03*
X114300000Y-132080000D03*
X114300000Y-129540000D03*
X114300000Y-127000000D03*
X114300000Y-124460000D03*
X114300000Y-121920000D03*
X114300000Y-119380000D03*
X114300000Y-116840000D03*
X114300000Y-114300000D03*
X114300000Y-111760000D03*
X114300000Y-109220000D03*
X114300000Y-106680000D03*
X114300000Y-104140000D03*
D10*
X76200000Y-76200000D03*
D11*
X76200000Y-78740000D03*
X76200000Y-81280000D03*
X76200000Y-83820000D03*
X76200000Y-86360000D03*
X76200000Y-88900000D03*
X76200000Y-91440000D03*
X76200000Y-93980000D03*
X76200000Y-96520000D03*
X76200000Y-99060000D03*
X76200000Y-101600000D03*
X76200000Y-104140000D03*
X76200000Y-106680000D03*
X76200000Y-109220000D03*
X76200000Y-111760000D03*
X76200000Y-114300000D03*
X76200000Y-116840000D03*
X76200000Y-119380000D03*
X76200000Y-121920000D03*
X76200000Y-124460000D03*
X91440000Y-124460000D03*
X91440000Y-121920000D03*
X91440000Y-119380000D03*
X91440000Y-116840000D03*
X91440000Y-114300000D03*
X91440000Y-111760000D03*
X91440000Y-109220000D03*
X91440000Y-106680000D03*
X91440000Y-104140000D03*
X91440000Y-101600000D03*
X91440000Y-99060000D03*
X91440000Y-96520000D03*
X91440000Y-93980000D03*
X91440000Y-91440000D03*
X91440000Y-88900000D03*
X91440000Y-86360000D03*
X91440000Y-83820000D03*
X91440000Y-81280000D03*
X91440000Y-78740000D03*
X91440000Y-76200000D03*
D12*
X96520000Y-76200000D03*
D13*
X99060000Y-76200000D03*
X96520000Y-78740000D03*
X99060000Y-78740000D03*
X96520000Y-81280000D03*
X99060000Y-81280000D03*
X96520000Y-83820000D03*
X99060000Y-83820000D03*
X96520000Y-86360000D03*
X99060000Y-86360000D03*
X96520000Y-88900000D03*
X99060000Y-88900000D03*
X96520000Y-91440000D03*
X99060000Y-91440000D03*
X96520000Y-93980000D03*
X99060000Y-93980000D03*
X96520000Y-96520000D03*
X99060000Y-96520000D03*
X96520000Y-99060000D03*
X99060000Y-99060000D03*
D12*
X86360000Y-134620000D03*
D13*
X88900000Y-134620000D03*
X91440000Y-134620000D03*
D10*
X70612000Y-123190000D03*
D14*
X70612000Y-125690000D03*
D12*
X86360000Y-132080000D03*
D13*
X88900000Y-132080000D03*
X91440000Y-132080000D03*
D10*
X70612000Y-117348000D03*
D14*
X70612000Y-119848000D03*
D10*
X68580000Y-129540000D03*
D11*
X68580000Y-132080000D03*
X68580000Y-134620000D03*
X68580000Y-137160000D03*
X76200000Y-137160000D03*
X76200000Y-134620000D03*
X76200000Y-132080000D03*
X76200000Y-129540000D03*
D12*
X86360000Y-129540000D03*
D13*
X88900000Y-129540000D03*
X91440000Y-129540000D03*
D12*
X86360000Y-137160000D03*
D13*
X88900000Y-137160000D03*
X91440000Y-137160000D03*
D14*
X95250000Y-104140000D03*
D11*
X95250000Y-116840000D03*
D14*
X102870000Y-86360000D03*
D11*
X102870000Y-99060000D03*
D15*
X68580000Y-107950000D03*
D16*
X71080000Y-112950000D03*
X73580000Y-107950000D03*
D12*
X102870000Y-76200000D03*
D13*
X102870000Y-78740000D03*
D17*
X93726000Y-90170000D03*
X85436000Y-87376000D03*
X96266000Y-101854000D03*
X94402200Y-101269800D03*
X85436000Y-89662000D03*
X93218000Y-92710000D03*
X85252000Y-102997000D03*
X77114400Y-102852135D03*
X78486000Y-97866200D03*
X80060800Y-97586800D03*
X72034400Y-74371200D03*
X80264000Y-74234600D03*
X103124000Y-96520000D03*
X113512600Y-101066600D03*
X84810600Y-94335600D03*
X104477735Y-80002465D03*
X79460800Y-125476000D03*
X79400400Y-98806000D03*
X73152000Y-91948000D03*
X102642233Y-100600000D03*
X69088000Y-110236000D03*
X79387700Y-89293700D03*
X79959200Y-103200200D03*
X79885735Y-126275735D03*
X92872000Y-127635000D03*
X84493100Y-100977700D03*
X108600000Y-129540000D03*
X105400000Y-129540000D03*
X94234000Y-86360000D03*
X111000000Y-132080000D03*
X102200000Y-137160000D03*
X101400000Y-134620000D03*
X104600000Y-132080000D03*
X107800000Y-127000000D03*
X111800000Y-134620000D03*
X85699600Y-104724200D03*
X80660800Y-100752200D03*
X84442300Y-93332300D03*
X84582000Y-107950000D03*
X85852000Y-107950000D03*
X72199500Y-109283500D03*
X85852000Y-122936000D03*
X69697600Y-103733600D03*
X84963000Y-122047000D03*
X71247000Y-109347000D03*
X86868000Y-123952000D03*
X112600000Y-116840000D03*
X103000000Y-119380000D03*
X110200000Y-114300000D03*
X109400000Y-111760000D03*
X107000000Y-109220000D03*
X106200000Y-127000000D03*
X100600000Y-121920000D03*
X103800000Y-124460000D03*
D18*
X92964000Y-110744000D02*
X92964000Y-127635000D01*
D19*
X72034400Y-74371200D02*
X72390000Y-74015600D01*
X72390000Y-74015600D02*
X80045000Y-74015600D01*
X80045000Y-74015600D02*
X80264000Y-74234600D01*
D18*
X68580000Y-86360000D02*
X69850000Y-85090000D01*
X69850000Y-85090000D02*
X69850000Y-82550000D01*
X69850000Y-82550000D02*
X71120000Y-81280000D01*
X109474000Y-103632000D02*
X113792000Y-107950000D01*
X115570000Y-108712000D02*
X115570000Y-118110000D01*
X85436000Y-87376000D02*
X88230000Y-90170000D01*
X96266000Y-101854000D02*
X102108000Y-101854000D01*
X88230000Y-90170000D02*
X93726000Y-90170000D01*
X102108000Y-101854000D02*
X103886000Y-103632000D01*
X114808000Y-107950000D02*
X115570000Y-108712000D01*
X103886000Y-103632000D02*
X109474000Y-103632000D01*
X113792000Y-107950000D02*
X114808000Y-107950000D01*
X115570000Y-118110000D02*
X114300000Y-119380000D01*
X94402200Y-101269800D02*
X94418000Y-101254000D01*
X93218000Y-92710000D02*
X88484000Y-92710000D01*
X104140000Y-102870000D02*
X110490000Y-102870000D01*
X110490000Y-102870000D02*
X114300000Y-106680000D01*
X88484000Y-92710000D02*
X85436000Y-89662000D01*
X94418000Y-101254000D02*
X102524000Y-101254000D01*
X102524000Y-101254000D02*
X104140000Y-102870000D01*
X90170000Y-97790000D02*
X95250000Y-97790000D01*
X85252000Y-102708000D02*
X90170000Y-97790000D01*
X95250000Y-97790000D02*
X96520000Y-96520000D01*
X85252000Y-102997000D02*
X85252000Y-102708000D01*
D20*
X68834000Y-126746000D02*
X68834000Y-124460000D01*
X70104000Y-123190000D02*
X70612000Y-123190000D01*
X68580000Y-132080000D02*
X70104000Y-130556000D01*
X72136000Y-114006000D02*
X71080000Y-112950000D01*
X70104000Y-130556000D02*
X70104000Y-128016000D01*
X70104000Y-128016000D02*
X68834000Y-126746000D01*
X68834000Y-124460000D02*
X70104000Y-123190000D01*
X72136000Y-121666000D02*
X72136000Y-114006000D01*
X70612000Y-123190000D02*
X72136000Y-121666000D01*
D18*
X72440800Y-97840800D02*
X71120000Y-96520000D01*
X72440800Y-99949000D02*
X72440800Y-97840800D01*
X77114400Y-102852135D02*
X75343935Y-102852135D01*
X75343935Y-102852135D02*
X72440800Y-99949000D01*
D19*
X76962000Y-124460000D02*
X76200000Y-124460000D01*
X78486000Y-122936000D02*
X76962000Y-124460000D01*
X78486000Y-97866200D02*
X78486000Y-122936000D01*
D18*
X84836000Y-106934000D02*
X86614000Y-106934000D01*
X80060800Y-97586800D02*
X80060800Y-102158800D01*
X86614000Y-106934000D02*
X91440000Y-111760000D01*
X80060800Y-102158800D02*
X84836000Y-106934000D01*
D19*
X106984800Y-130755861D02*
X106984800Y-125933200D01*
X68072000Y-117308000D02*
X70612000Y-119848000D01*
X71411999Y-129831999D02*
X76200000Y-134620000D01*
X103124000Y-97028000D02*
X103124000Y-96520000D01*
X106984800Y-125933200D02*
X108458000Y-124460000D01*
X70612000Y-125690000D02*
X71411999Y-126489999D01*
X68580000Y-107950000D02*
X68072000Y-108458000D01*
X104477735Y-78402265D02*
X106680000Y-76200000D01*
X108458000Y-124460000D02*
X114300000Y-124460000D01*
X100580661Y-137160000D02*
X106984800Y-130755861D01*
X106680000Y-99060000D02*
X105156000Y-99060000D01*
D18*
X68580000Y-99060000D02*
X76200000Y-106680000D01*
D19*
X104477735Y-80002465D02*
X104477735Y-78402265D01*
X71411999Y-126489999D02*
X71411999Y-129831999D01*
X68580000Y-107950000D02*
X68488000Y-108042000D01*
X111506000Y-99060000D02*
X106680000Y-99060000D01*
X105156000Y-99060000D02*
X103124000Y-97028000D01*
X68072000Y-108458000D02*
X68072000Y-117308000D01*
X113512600Y-101066600D02*
X111506000Y-99060000D01*
X99060000Y-137160000D02*
X100580661Y-137160000D01*
D18*
X72364600Y-95224600D02*
X69824600Y-95224600D01*
X69824600Y-95224600D02*
X68580000Y-93980000D01*
X76200000Y-99060000D02*
X72364600Y-95224600D01*
X71120000Y-93980000D02*
X73660000Y-93980000D01*
X76200000Y-96520000D02*
X73660000Y-93980000D01*
X79359200Y-125374400D02*
X79460800Y-125476000D01*
X79400400Y-98806000D02*
X79359200Y-98847200D01*
X79359200Y-98847200D02*
X79359200Y-125374400D01*
D19*
X88417400Y-75336400D02*
X77836400Y-75336400D01*
X73152000Y-75946000D02*
X73152000Y-91948000D01*
X104368600Y-74726800D02*
X89027000Y-74726800D01*
X69088000Y-110236000D02*
X69088000Y-115824000D01*
X69088000Y-115824000D02*
X70612000Y-117348000D01*
X104724200Y-74371200D02*
X104368600Y-74726800D01*
X95250000Y-104140000D02*
X95250000Y-103886000D01*
X110960000Y-100800000D02*
X114300000Y-104140000D01*
X102642233Y-100600000D02*
X102842233Y-100800000D01*
X77252200Y-74752200D02*
X74345800Y-74752200D01*
X104724200Y-74371200D02*
X112471200Y-74371200D01*
X102870000Y-78740000D02*
X104724200Y-76885800D01*
X89027000Y-74726800D02*
X88417400Y-75336400D01*
X79387700Y-89293700D02*
X79387700Y-75374500D01*
X74345800Y-74752200D02*
X73152000Y-75946000D01*
X104724200Y-76885800D02*
X104724200Y-74371200D01*
X77836400Y-75336400D02*
X77252200Y-74752200D01*
X102842233Y-100800000D02*
X110960000Y-100800000D01*
X112471200Y-74371200D02*
X114300000Y-76200000D01*
D18*
X80060800Y-103301800D02*
X79959200Y-103200200D01*
X79885735Y-126275735D02*
X80060800Y-126100670D01*
X80060800Y-126100670D02*
X80060800Y-103301800D01*
X97028000Y-107950000D02*
X113030000Y-107950000D01*
X92583000Y-101600000D02*
X93980000Y-102997000D01*
X113030000Y-107950000D02*
X114300000Y-109220000D01*
X93980000Y-104902000D02*
X97028000Y-107950000D01*
X91440000Y-101600000D02*
X92583000Y-101600000D01*
X93980000Y-102997000D02*
X93980000Y-104902000D01*
X90170000Y-130810000D02*
X90170000Y-132842000D01*
X90170000Y-132842000D02*
X90678000Y-133350000D01*
X88900000Y-129540000D02*
X90170000Y-130810000D01*
X90678000Y-133350000D02*
X92964000Y-133350000D01*
X94742000Y-131572000D02*
X94742000Y-119253000D01*
X98425000Y-115570000D02*
X113030000Y-115570000D01*
X94742000Y-119253000D02*
X98425000Y-115570000D01*
X113030000Y-115570000D02*
X114300000Y-114300000D01*
X92964000Y-133350000D02*
X94742000Y-131572000D01*
X97790000Y-95250000D02*
X99060000Y-93980000D01*
X77724000Y-97028000D02*
X79502000Y-95250000D01*
X77724000Y-103378000D02*
X77724000Y-97028000D01*
X76962000Y-104140000D02*
X77724000Y-103378000D01*
X79502000Y-95250000D02*
X97790000Y-95250000D01*
X76200000Y-104140000D02*
X76962000Y-104140000D01*
X93472000Y-130048000D02*
X91440000Y-132080000D01*
X91440000Y-106680000D02*
X93472000Y-108712000D01*
X93472000Y-108712000D02*
X93472000Y-130048000D01*
X95504000Y-120015000D02*
X95504000Y-133350000D01*
X97409000Y-118110000D02*
X95504000Y-120015000D01*
X90170000Y-133858000D02*
X88900000Y-132588000D01*
X90170000Y-135382000D02*
X90170000Y-133858000D01*
X88900000Y-132588000D02*
X88900000Y-132080000D01*
X114300000Y-116840000D02*
X113030000Y-118110000D01*
X92964000Y-135890000D02*
X90678000Y-135890000D01*
X90678000Y-135890000D02*
X90170000Y-135382000D01*
X113030000Y-118110000D02*
X97409000Y-118110000D01*
X95504000Y-133350000D02*
X92964000Y-135890000D01*
X113030000Y-120650000D02*
X98298000Y-120650000D01*
X92964000Y-138430000D02*
X90678000Y-138430000D01*
X96266000Y-122682000D02*
X96266000Y-135128000D01*
X114300000Y-121920000D02*
X113030000Y-120650000D01*
X90170000Y-136398000D02*
X88900000Y-135128000D01*
X96266000Y-135128000D02*
X92964000Y-138430000D01*
X88900000Y-135128000D02*
X88900000Y-134620000D01*
X90170000Y-137922000D02*
X90170000Y-136398000D01*
X98298000Y-120650000D02*
X96266000Y-122682000D01*
X90678000Y-138430000D02*
X90170000Y-137922000D01*
X67818000Y-92710000D02*
X74930000Y-92710000D01*
X67284600Y-93243400D02*
X67818000Y-92710000D01*
X68580000Y-96520000D02*
X67284600Y-95224600D01*
X67284600Y-95224600D02*
X67284600Y-93243400D01*
X74930000Y-92710000D02*
X76200000Y-93980000D01*
X113030000Y-110490000D02*
X114300000Y-111760000D01*
X93218000Y-104038400D02*
X93218000Y-105156000D01*
X90170000Y-102870000D02*
X92049600Y-102870000D01*
X85090000Y-105410000D02*
X87630000Y-105410000D01*
X87630000Y-105410000D02*
X90170000Y-102870000D01*
X98552000Y-110490000D02*
X113030000Y-110490000D01*
X84493100Y-100977700D02*
X84493100Y-104813100D01*
X92049600Y-102870000D02*
X93218000Y-104038400D01*
X93218000Y-105156000D02*
X98552000Y-110490000D01*
X84493100Y-104813100D02*
X85090000Y-105410000D01*
X95504000Y-82550000D02*
X101600000Y-82550000D01*
X91440000Y-81280000D02*
X94234000Y-81280000D01*
X101600000Y-82550000D02*
X104140000Y-85090000D01*
X94234000Y-81280000D02*
X95504000Y-82550000D01*
X104140000Y-85090000D02*
X113030000Y-85090000D01*
X113030000Y-85090000D02*
X114300000Y-83820000D01*
X114300000Y-129540000D02*
X108600000Y-129540000D01*
X99695000Y-77470000D02*
X103505000Y-81280000D01*
X103505000Y-81280000D02*
X106680000Y-81280000D01*
X99060000Y-129540000D02*
X105400000Y-129540000D01*
X92710000Y-77470000D02*
X99695000Y-77470000D01*
X91440000Y-76200000D02*
X92710000Y-77470000D01*
X114300000Y-132080000D02*
X111000000Y-132080000D01*
X114300000Y-91440000D02*
X113030000Y-90170000D01*
X95504000Y-85090000D02*
X94234000Y-86360000D01*
X99822000Y-85090000D02*
X95504000Y-85090000D01*
X113030000Y-90170000D02*
X104902000Y-90170000D01*
X104902000Y-90170000D02*
X99822000Y-85090000D01*
X114300000Y-137160000D02*
X102200000Y-137160000D01*
X101346000Y-90170000D02*
X105156000Y-93980000D01*
X93726000Y-91440000D02*
X94996000Y-90170000D01*
X91440000Y-91440000D02*
X93726000Y-91440000D01*
X105156000Y-93980000D02*
X106680000Y-93980000D01*
X94996000Y-90170000D02*
X101346000Y-90170000D01*
X100584000Y-87630000D02*
X104394000Y-91440000D01*
X94996000Y-87630000D02*
X100584000Y-87630000D01*
X91440000Y-88900000D02*
X93726000Y-88900000D01*
X93726000Y-88900000D02*
X94996000Y-87630000D01*
X104394000Y-91440000D02*
X106680000Y-91440000D01*
X99060000Y-134620000D02*
X101400000Y-134620000D01*
X99060000Y-132080000D02*
X104600000Y-132080000D01*
X113030000Y-82550000D02*
X114300000Y-81280000D01*
X91440000Y-78740000D02*
X94234000Y-78740000D01*
X105664000Y-82550000D02*
X113030000Y-82550000D01*
X101669314Y-80010000D02*
X103339314Y-81680000D01*
X94234000Y-78740000D02*
X95504000Y-80010000D01*
X103339314Y-81680000D02*
X104794000Y-81680000D01*
X95504000Y-80010000D02*
X101669314Y-80010000D01*
X114300000Y-127000000D02*
X107800000Y-127000000D01*
X104794000Y-81680000D02*
X105664000Y-82550000D01*
X95758000Y-92710000D02*
X100838000Y-92710000D01*
X91440000Y-93980000D02*
X94488000Y-93980000D01*
X103378000Y-95250000D02*
X113030000Y-95250000D01*
X114300000Y-134620000D02*
X111800000Y-134620000D01*
X113030000Y-95250000D02*
X114300000Y-93980000D01*
X100838000Y-92710000D02*
X103378000Y-95250000D01*
X94488000Y-93980000D02*
X95758000Y-92710000D01*
X101574600Y-100355400D02*
X102870000Y-99060000D01*
X85699600Y-104724200D02*
X90068400Y-100355400D01*
X90068400Y-100355400D02*
X101574600Y-100355400D01*
X68580000Y-129540000D02*
X69189600Y-129540000D01*
D20*
X93980000Y-107188000D02*
X92202000Y-105410000D01*
X85090000Y-106172000D02*
X80660800Y-101742800D01*
X88900000Y-105410000D02*
X88138000Y-106172000D01*
X80660800Y-101742800D02*
X80660800Y-100752200D01*
X88138000Y-106172000D02*
X85090000Y-106172000D01*
X95250000Y-116840000D02*
X93980000Y-115570000D01*
X92202000Y-105410000D02*
X88900000Y-105410000D01*
X93980000Y-115570000D02*
X93980000Y-107188000D01*
D18*
X88646000Y-86360000D02*
X89916000Y-87630000D01*
X84442300Y-93332300D02*
X84836000Y-92938600D01*
X89916000Y-87630000D02*
X91948000Y-87630000D01*
X91948000Y-87630000D02*
X95758000Y-83820000D01*
X95758000Y-83820000D02*
X96520000Y-83820000D01*
X85344000Y-86360000D02*
X88646000Y-86360000D01*
X84836000Y-92938600D02*
X84836000Y-86868000D01*
X84836000Y-86868000D02*
X85344000Y-86360000D01*
X91440000Y-124460000D02*
X84582000Y-117602000D01*
X84582000Y-117602000D02*
X84582000Y-107950000D01*
X85852000Y-116332000D02*
X85852000Y-107950000D01*
X91440000Y-121920000D02*
X85852000Y-116332000D01*
X81280000Y-127508000D02*
X85852000Y-122936000D01*
X76200000Y-127508000D02*
X81280000Y-127508000D01*
X73660000Y-124968000D02*
X76200000Y-127508000D01*
X72199500Y-109283500D02*
X73660000Y-110744000D01*
X73660000Y-110744000D02*
X73660000Y-124968000D01*
X69697600Y-103733600D02*
X69697600Y-105765600D01*
X69697600Y-105765600D02*
X74168000Y-110236000D01*
X74168000Y-124460000D02*
X76708000Y-127000000D01*
X80010000Y-127000000D02*
X84963000Y-122047000D01*
X91440000Y-114300000D02*
X91440000Y-114894529D01*
X74168000Y-110236000D02*
X74168000Y-124460000D01*
X76708000Y-127000000D02*
X80010000Y-127000000D01*
X71247000Y-109347000D02*
X73152000Y-111252000D01*
X75692000Y-128016000D02*
X82804000Y-128016000D01*
X73152000Y-125476000D02*
X75692000Y-128016000D01*
X82804000Y-128016000D02*
X86868000Y-123952000D01*
X73152000Y-111252000D02*
X73152000Y-125476000D01*
X99060000Y-116840000D02*
X112600000Y-116840000D01*
X99060000Y-119380000D02*
X103000000Y-119380000D01*
X99060000Y-114300000D02*
X110200000Y-114300000D01*
X99060000Y-111760000D02*
X109400000Y-111760000D01*
X99060000Y-109220000D02*
X107000000Y-109220000D01*
X99060000Y-127000000D02*
X106200000Y-127000000D01*
X99060000Y-121920000D02*
X100600000Y-121920000D01*
X99060000Y-124460000D02*
X103800000Y-124460000D01*
D19*
X80010000Y-93980000D02*
X77978000Y-91948000D01*
X77978000Y-77978000D02*
X76200000Y-76200000D01*
X84029339Y-93980000D02*
X80010000Y-93980000D01*
X77978000Y-91948000D02*
X77978000Y-77978000D01*
X84810600Y-94335600D02*
X84384939Y-94335600D01*
X84384939Y-94335600D02*
X84029339Y-93980000D01*
D18*
X91440000Y-109220000D02*
X92964000Y-110744000D01*
M02*
